<?xml version="1.0" encoding="UTF-8" standalone="no"?>
<!-- Created with Inkscape (http://www.inkscape.org/) -->

<svg
   xmlns:dc="http://purl.org/dc/elements/1.1/"
   xmlns:cc="http://creativecommons.org/ns#"
   xmlns:rdf="http://www.w3.org/1999/02/22-rdf-syntax-ns#"
   xmlns:svg="http://www.w3.org/2000/svg"
   xmlns="http://www.w3.org/2000/svg"
   xmlns:xlink="http://www.w3.org/1999/xlink"
   xmlns:sodipodi="http://sodipodi.sourceforge.net/DTD/sodipodi-0.dtd"
   xmlns:inkscape="http://www.inkscape.org/namespaces/inkscape"
   width="164.6147mm"
   height="74.986252mm"
   viewBox="0 0 583.28043 265.69932"
   id="svg2"
   version="1.1"
   inkscape:version="0.91 r13725"
   sodipodi:docname="cx1.svg">
  <defs
     id="defs4">
    <inkscape:perspective
       id="perspective14"
       inkscape:persp3d-origin="24.999999 : 6.6666668 : 1"
       inkscape:vp_z="49.999997 : 10 : 1"
       inkscape:vp_y="0 : 1000 : 0"
       inkscape:vp_x="0 : 10 : 1"
       sodipodi:type="inkscape:persp3d" />
    <linearGradient
       inkscape:collect="always"
       xlink:href="#linearGradient3189"
       id="linearGradient3187"
       gradientUnits="userSpaceOnUse"
       gradientTransform="matrix(0.2664003,0,0,0.2664003,22.291563,7.1254585)"
       x1="21.909702"
       y1="14.877447"
       x2="37.283634"
       y2="-0.49648574" />
    <linearGradient
       inkscape:collect="always"
       xlink:href="#linearGradient3183"
       id="linearGradient3297"
       gradientUnits="userSpaceOnUse"
       gradientTransform="matrix(0.8235066,0,0,0.8235066,17.023824,1.1141097)"
       x1="21.909702"
       y1="14.877447"
       x2="37.283634"
       y2="-0.49648574" />
    <linearGradient
       inkscape:collect="always"
       xlink:href="#linearGradient3171"
       id="linearGradient3294"
       gradientUnits="userSpaceOnUse"
       gradientTransform="matrix(0.8235066,0,0,0.8235066,3.2633246,1.1215684)"
       x1="21.909702"
       y1="14.877447"
       x2="37.283634"
       y2="-0.49648574" />
    <linearGradient
       inkscape:collect="always"
       xlink:href="#linearGradient3171"
       id="linearGradient3291"
       gradientUnits="userSpaceOnUse"
       gradientTransform="matrix(0.948408,0,0,0.948408,-0.03348006,-22.23239)"
       x1="21.909702"
       y1="14.877447"
       x2="37.283634"
       y2="-0.49648574" />
    <linearGradient
       inkscape:collect="always"
       xlink:href="#linearGradient3183"
       id="linearGradient3289"
       gradientUnits="userSpaceOnUse"
       gradientTransform="matrix(0.948408,0,0,0.948408,15.814076,-22.24098)"
       x1="21.909702"
       y1="14.877447"
       x2="37.283634"
       y2="-0.49648574" />
    <linearGradient
       inkscape:collect="always"
       xlink:href="#linearGradient3183"
       id="linearGradient3274"
       gradientUnits="userSpaceOnUse"
       gradientTransform="matrix(0.948408,0,0,0.948408,-35.372652,3.1257621)"
       x1="21.909702"
       y1="14.877447"
       x2="37.283634"
       y2="-0.49648574" />
    <linearGradient
       inkscape:collect="always"
       xlink:href="#linearGradient3183"
       id="linearGradient2496"
       gradientUnits="userSpaceOnUse"
       gradientTransform="matrix(-0.948408,0,0,0.948408,6.0609237,3.1257621)"
       x1="21.909702"
       y1="14.877447"
       x2="37.283634"
       y2="-0.49648574" />
    <linearGradient
       inkscape:collect="always"
       xlink:href="#linearGradient3171"
       id="linearGradient2493"
       gradientUnits="userSpaceOnUse"
       x1="21.909702"
       y1="14.877447"
       x2="37.283634"
       y2="-0.49648574"
       gradientTransform="matrix(0.948408,0,0,0.948408,-0.03348006,-0.2250238)" />
    <linearGradient
       id="linearGradient3183">
      <stop
         style="stop-color:#1c88ed;stop-opacity:1;"
         offset="0"
         id="stop3185" />
      <stop
         style="stop-color:#ffffff;stop-opacity:1;"
         offset="1"
         id="stop3187" />
    </linearGradient>
    <linearGradient
       id="linearGradient3171">
      <stop
         id="stop3173"
         offset="0"
         style="stop-color:#ed1c24;stop-opacity:1;" />
      <stop
         id="stop3175"
         offset="1"
         style="stop-color:#ffffff;stop-opacity:1;" />
    </linearGradient>
    <inkscape:perspective
       id="perspective2497"
       inkscape:persp3d-origin="17.999999 : 13.333333 : 1"
       inkscape:vp_z="35.999998 : 20 : 1"
       inkscape:vp_y="0 : 1000 : 0"
       inkscape:vp_x="0 : 20 : 1"
       sodipodi:type="inkscape:persp3d" />
    <linearGradient
       gradientUnits="userSpaceOnUse"
       y2="-0.49648574"
       x2="37.283634"
       y1="14.877447"
       x1="21.909702"
       id="linearGradient3177"
       xlink:href="#linearGradient3171"
       inkscape:collect="always" />
    <linearGradient
       gradientTransform="matrix(-1,0,0,1,36.046875,18.40625)"
       y2="-0.49648574"
       x2="37.283634"
       y1="14.877447"
       x1="21.909702"
       gradientUnits="userSpaceOnUse"
       id="linearGradient3181"
       xlink:href="#linearGradient3183"
       inkscape:collect="always" />
    <inkscape:perspective
       sodipodi:type="inkscape:persp3d"
       inkscape:vp_x="0 : 10 : 1"
       inkscape:vp_y="0 : 1000 : 0"
       inkscape:vp_z="49.999997 : 10 : 1"
       inkscape:persp3d-origin="24.999999 : 6.6666668 : 1"
       id="perspective13" />
    <linearGradient
       id="linearGradient3189">
      <stop
         id="stop3191"
         offset="0"
         style="stop-color:#a61ced;stop-opacity:1;" />
      <stop
         id="stop3193"
         offset="1"
         style="stop-color:#ffffff;stop-opacity:1;" />
    </linearGradient>
    <inkscape:perspective
       sodipodi:type="inkscape:persp3d"
       inkscape:vp_x="0 : 20 : 1"
       inkscape:vp_y="0 : 1000 : 0"
       inkscape:vp_z="35.999998 : 20 : 1"
       inkscape:persp3d-origin="17.999999 : 13.333333 : 1"
       id="perspective2625" />
    <linearGradient
       gradientTransform="matrix(0.948408,0,0,0.948408,53.929067,-11.431696)"
       y2="-0.49648574"
       x2="37.283634"
       y1="14.877447"
       x1="21.909702"
       gradientUnits="userSpaceOnUse"
       id="linearGradient2638"
       xlink:href="#linearGradient3171"
       inkscape:collect="always" />
    <linearGradient
       y2="-0.49648574"
       x2="37.283634"
       y1="14.877447"
       x1="21.909702"
       gradientTransform="matrix(-0.8272523,0,0,0.8249111,49.918574,1.1064261)"
       gradientUnits="userSpaceOnUse"
       id="linearGradient2641"
       xlink:href="#linearGradient3183"
       inkscape:collect="always" />
    <linearGradient
       y2="-3.4240246"
       x2="37.478802"
       y1="13.511262"
       x1="17.420809"
       gradientTransform="matrix(0.2664003,0,0,0.2664003,34.091034,14.040547)"
       gradientUnits="userSpaceOnUse"
       id="linearGradient2644"
       xlink:href="#linearGradient3189"
       inkscape:collect="always" />
    <linearGradient
       y2="-0.49648574"
       x2="37.283634"
       y1="14.877447"
       x1="21.909702"
       gradientTransform="matrix(0.8235066,0,0,0.8235066,9.3955434,1.1735615)"
       gradientUnits="userSpaceOnUse"
       id="linearGradient2648"
       xlink:href="#linearGradient3171"
       inkscape:collect="always" />
    <linearGradient
       y2="2.9760098"
       x2="11.20835"
       y1="14.877447"
       x1="21.909702"
       gradientTransform="matrix(0.8235066,0,0,0.8235066,21.492261,2.2059658)"
       gradientUnits="userSpaceOnUse"
       id="linearGradient2651"
       xlink:href="#linearGradient3183"
       inkscape:collect="always" />
    <linearGradient
       y2="-0.49648574"
       x2="37.283634"
       y1="14.877447"
       x1="21.909702"
       gradientTransform="matrix(0.8235066,0,0,0.8235066,13.797276,1.1141097)"
       gradientUnits="userSpaceOnUse"
       id="linearGradient2654"
       xlink:href="#linearGradient3183"
       inkscape:collect="always" />
    <filter
       inkscape:collect="always"
       style="color-interpolation-filters:sRGB"
       id="filter5185"
       x="-0.054000001"
       width="1.108"
       y="-0.054000001"
       height="1.108">
      <feGaussianBlur
         inkscape:collect="always"
         stdDeviation="3.4513393"
         id="feGaussianBlur5187" />
    </filter>
    <filter
       inkscape:collect="always"
       style="color-interpolation-filters:sRGB"
       id="filter4826"
       x="-0.12352307"
       width="1.2470461"
       y="-0.11667232"
       height="1.2333446">
      <feGaussianBlur
         inkscape:collect="always"
         stdDeviation="4.2297596"
         id="feGaussianBlur4828" />
    </filter>
  </defs>
  <sodipodi:namedview
     id="base"
     pagecolor="#ffffff"
     bordercolor="#666666"
     borderopacity="1.0"
     inkscape:pageopacity="0.0"
     inkscape:pageshadow="2"
     inkscape:zoom="1.4"
     inkscape:cx="144.91248"
     inkscape:cy="128.14445"
     inkscape:document-units="px"
     inkscape:current-layer="layer1"
     showgrid="false"
     inkscape:window-width="960"
     inkscape:window-height="1007"
     inkscape:window-x="0"
     inkscape:window-y="27"
     inkscape:window-maximized="0"
     fit-margin-top="0"
     fit-margin-left="0"
     fit-margin-right="0"
     fit-margin-bottom="0" />
  <metadata
     id="metadata7">
    <rdf:RDF>
      <cc:Work
         rdf:about="">
        <dc:format>image/svg+xml</dc:format>
        <dc:type
           rdf:resource="http://purl.org/dc/dcmitype/StillImage" />
        <dc:title />
      </cc:Work>
    </rdf:RDF>
  </metadata>
  <g
     inkscape:label="Layer 1"
     inkscape:groupmode="layer"
     id="layer1"
     transform="translate(-56.219739,-490.44904)">
    <g
       id="Layer_2"
       transform="matrix(3.8348214,0,0,3.8348214,-2.0000046,884.64792)" />
    <path
       style="fill:none;fill-opacity:1;stroke:#4e6070;stroke-width:2.26756263;stroke-linecap:round;stroke-linejoin:round;stroke-miterlimit:4;stroke-dasharray:none;stroke-opacity:1"
       d="m 263.2403,674.52265 -25.65182,-19.62858 0,11.76298 -40.08368,0 0,15.73121 40.22542,0 0,11.62126 25.51008,-19.48687 z"
       id="path4443"
       sodipodi:nodetypes="cccccccc"
       inkscape:connector-curvature="0" />
    <g
       id="g4420">
      <g
         transform="matrix(1.7538375,0,0,1.7538375,56.219739,624.58424)"
         id="g4261">
        <circle
           style="fill:#77b3d4"
           class="st0"
           cx="32"
           cy="32"
           r="32"
           id="circle4263" />
      </g>
      <g
         style="fill:#000000;fill-opacity:1;filter:url(#filter5185)"
         id="g4739"
         transform="matrix(0.45734528,0,0,0.45734528,72.13168,269.82836)">
        <g
           transform="matrix(3.8348214,0,0,3.8348214,-32.809657,781.61236)"
           style="opacity:0.2;fill:#000000;fill-opacity:1"
           class="st1"
           id="g4741">
          <path
             style="fill:#000000;fill-opacity:1"
             inkscape:connector-curvature="0"
             class="st2"
             d="m 52,48 c 0,2.2 -1.8,4 -4,4 l -32,0 c -2.2,0 -4,-1.8 -4,-4 l 0,-30 c 0,-2.2 1.8,-4 4,-4 l 32,0 c 2.2,0 4,1.8 4,4 l 0,30 z"
             id="path4743" />
        </g>
        <g
           style="fill:#000000;fill-opacity:1"
           transform="matrix(3.8348214,0,0,3.8348214,-32.809657,781.61236)"
           id="g4745">
          <path
             style="fill:#000000;fill-opacity:1"
             inkscape:connector-curvature="0"
             class="st3"
             d="M 12,21.5 12,46 c 0,2.2 1.8,4 4,4 l 32,0 c 2.2,0 4,-1.8 4,-4 l 0,-24.5 -40,0 z"
             id="path4747" />
        </g>
        <g
           transform="matrix(3.8348214,0,0,3.8348214,-32.809657,781.61236)"
           style="opacity:0.2;fill:#000000;fill-opacity:1"
           class="st1"
           id="g4749">
          <path
             style="fill:#000000;fill-opacity:1"
             inkscape:connector-curvature="0"
             class="st2"
             d="m 52,18 c 0,-2.2 -1.8,-4 -4,-4 l -32,0 c -2.2,0 -4,1.8 -4,4 l 0,6 40,0 0,-6 z"
             id="path4751" />
        </g>
        <g
           style="fill:#000000;fill-opacity:1"
           transform="matrix(3.8348214,0,0,3.8348214,-32.809657,781.61236)"
           id="g4753">
          <path
             style="fill:#000000;fill-opacity:1"
             inkscape:connector-curvature="0"
             class="st4"
             d="m 52,16 c 0,-2.2 -1.8,-4 -4,-4 l -32,0 c -2.2,0 -4,1.8 -4,4 l 0,6 40,0 0,-6 z"
             id="path4755" />
        </g>
        <g
           style="fill:#000000;fill-opacity:1"
           transform="matrix(3.8348214,0,0,3.8348214,-32.809657,781.61236)"
           id="g4757">
          <circle
             style="fill:#000000;fill-opacity:1"
             class="st5"
             cx="23"
             cy="17"
             r="2"
             id="circle4759" />
        </g>
        <g
           style="fill:#000000;fill-opacity:1"
           transform="matrix(3.8348214,0,0,3.8348214,-32.809657,781.61236)"
           id="g4761">
          <circle
             style="fill:#000000;fill-opacity:1"
             class="st6"
             cx="29"
             cy="17"
             r="2"
             id="circle4763" />
        </g>
        <g
           style="fill:#000000;fill-opacity:1"
           transform="matrix(3.8348214,0,0,3.8348214,-32.809657,781.61236)"
           id="g4765">
          <circle
             style="fill:#000000;fill-opacity:1"
             class="st7"
             cx="17"
             cy="17"
             r="2"
             id="circle4767" />
        </g>
        <g
           style="fill:#000000;fill-opacity:1"
           transform="matrix(3.8348214,0,0,3.8348214,-32.809657,781.61236)"
           id="g4769">
          <rect
             style="fill:#000000;fill-opacity:1"
             x="16"
             y="28"
             class="st8"
             width="12"
             height="18"
             id="rect4771" />
        </g>
        <g
           style="fill:#000000;fill-opacity:1"
           transform="matrix(3.8348214,0,0,3.8348214,-32.809657,781.61236)"
           id="g4773">
          <rect
             style="fill:#000000;fill-opacity:1"
             x="32"
             y="28"
             class="st4"
             width="16"
             height="2"
             id="rect4775" />
        </g>
        <g
           style="fill:#000000;fill-opacity:1"
           transform="matrix(3.8348214,0,0,3.8348214,-32.809657,781.61236)"
           id="g4777">
          <rect
             style="fill:#000000;fill-opacity:1"
             x="32"
             y="32"
             class="st4"
             width="16"
             height="2"
             id="rect4779" />
        </g>
        <g
           style="fill:#000000;fill-opacity:1"
           transform="matrix(3.8348214,0,0,3.8348214,-32.809657,781.61236)"
           id="g4781">
          <rect
             style="fill:#000000;fill-opacity:1"
             x="32"
             y="36"
             class="st4"
             width="16"
             height="2"
             id="rect4783" />
        </g>
        <g
           style="fill:#000000;fill-opacity:1"
           transform="matrix(3.8348214,0,0,3.8348214,-32.809657,781.61236)"
           id="g4785">
          <rect
             style="fill:#000000;fill-opacity:1"
             x="32"
             y="40"
             class="st4"
             width="16"
             height="2"
             id="rect4787" />
        </g>
        <g
           style="fill:#000000;fill-opacity:1"
           transform="matrix(3.8348214,0,0,3.8348214,-32.809657,781.61236)"
           id="g4789">
          <rect
             style="fill:#000000;fill-opacity:1"
             x="32"
             y="44"
             class="st4"
             width="16"
             height="2"
             id="rect4791" />
        </g>
      </g>
      <g
         transform="matrix(0.45734528,0,0,0.45734528,71.22508,269.00918)"
         id="g4415">
        <g
           id="g4265"
           class="st1"
           style="opacity:0.2"
           transform="matrix(3.8348214,0,0,3.8348214,-32.809657,781.61236)">
          <path
             id="path4267"
             d="m 52,48 c 0,2.2 -1.8,4 -4,4 l -32,0 c -2.2,0 -4,-1.8 -4,-4 l 0,-30 c 0,-2.2 1.8,-4 4,-4 l 32,0 c 2.2,0 4,1.8 4,4 l 0,30 z"
             class="st2"
             inkscape:connector-curvature="0"
             style="fill:#231f20" />
        </g>
        <g
           id="g4269"
           transform="matrix(3.8348214,0,0,3.8348214,-32.809657,781.61236)">
          <path
             id="path4271"
             d="M 12,21.5 12,46 c 0,2.2 1.8,4 4,4 l 32,0 c 2.2,0 4,-1.8 4,-4 l 0,-24.5 -40,0 z"
             class="st3"
             inkscape:connector-curvature="0"
             style="fill:#ffffff" />
        </g>
        <g
           id="g4273"
           class="st1"
           style="opacity:0.2"
           transform="matrix(3.8348214,0,0,3.8348214,-32.809657,781.61236)">
          <path
             id="path4275"
             d="m 52,18 c 0,-2.2 -1.8,-4 -4,-4 l -32,0 c -2.2,0 -4,1.8 -4,4 l 0,6 40,0 0,-6 z"
             class="st2"
             inkscape:connector-curvature="0"
             style="fill:#231f20" />
        </g>
        <g
           id="g4277"
           transform="matrix(3.8348214,0,0,3.8348214,-32.809657,781.61236)">
          <path
             id="path4279"
             d="m 52,16 c 0,-2.2 -1.8,-4 -4,-4 l -32,0 c -2.2,0 -4,1.8 -4,4 l 0,6 40,0 0,-6 z"
             class="st4"
             inkscape:connector-curvature="0"
             style="fill:#e0e0d1" />
        </g>
        <g
           id="g4281"
           transform="matrix(3.8348214,0,0,3.8348214,-32.809657,781.61236)">
          <circle
             id="circle4283"
             r="2"
             cy="17"
             cx="23"
             class="st5"
             style="fill:#e0995e" />
        </g>
        <g
           id="g4285"
           transform="matrix(3.8348214,0,0,3.8348214,-32.809657,781.61236)">
          <circle
             id="circle4287"
             r="2"
             cy="17"
             cx="29"
             class="st6"
             style="fill:#76c2af" />
        </g>
        <g
           id="g4289"
           transform="matrix(3.8348214,0,0,3.8348214,-32.809657,781.61236)">
          <circle
             id="circle4291"
             r="2"
             cy="17"
             cx="17"
             class="st7"
             style="fill:#c75c5c" />
        </g>
        <g
           id="g4293"
           transform="matrix(3.8348214,0,0,3.8348214,-32.809657,781.61236)">
          <rect
             id="rect4295"
             height="18"
             width="12"
             class="st8"
             y="28"
             x="16"
             style="fill:#4f5d73" />
        </g>
        <g
           id="g4297"
           transform="matrix(3.8348214,0,0,3.8348214,-32.809657,781.61236)">
          <rect
             id="rect4299"
             height="2"
             width="16"
             class="st4"
             y="28"
             x="32"
             style="fill:#e0e0d1" />
        </g>
        <g
           id="g4301"
           transform="matrix(3.8348214,0,0,3.8348214,-32.809657,781.61236)">
          <rect
             id="rect4303"
             height="2"
             width="16"
             class="st4"
             y="32"
             x="32"
             style="fill:#e0e0d1" />
        </g>
        <g
           id="g4305"
           transform="matrix(3.8348214,0,0,3.8348214,-32.809657,781.61236)">
          <rect
             id="rect4307"
             height="2"
             width="16"
             class="st4"
             y="36"
             x="32"
             style="fill:#e0e0d1" />
        </g>
        <g
           id="g4309"
           transform="matrix(3.8348214,0,0,3.8348214,-32.809657,781.61236)">
          <rect
             id="rect4311"
             height="2"
             width="16"
             class="st4"
             y="40"
             x="32"
             style="fill:#e0e0d1" />
        </g>
        <g
           id="g4313"
           transform="matrix(3.8348214,0,0,3.8348214,-32.809657,781.61236)">
          <rect
             id="rect4315"
             height="2"
             width="16"
             class="st4"
             y="44"
             x="32"
             style="fill:#e0e0d1" />
        </g>
      </g>
      <g
         transform="translate(-455.83395,254.78901)"
         id="g5939">
        <g
           id="g5855"
           class="st1"
           style="opacity:0.2"
           transform="matrix(1.7538375,0,0,1.7538375,511.21876,371.22867)">
          <path
             id="path5857"
             d="m 52,48 c 0,2.2 -1.8,4 -4,4 l -32,0 c -2.2,0 -4,-1.8 -4,-4 l 0,-30 c 0,-2.2 1.8,-4 4,-4 l 32,0 c 2.2,0 4,1.8 4,4 l 0,30 z"
             class="st2"
             inkscape:connector-curvature="0"
             style="fill:#231f20" />
        </g>
        <g
           id="g5859"
           transform="matrix(1.7538375,0,0,1.7538375,511.21876,371.22867)">
          <path
             id="path5861"
             d="M 12,21.5 12,46 c 0,2.2 1.8,4 4,4 l 32,0 c 2.2,0 4,-1.8 4,-4 l 0,-24.5 -40,0 z"
             class="st3"
             inkscape:connector-curvature="0"
             style="fill:#ffffff" />
        </g>
        <g
           id="g5863"
           class="st1"
           style="opacity:0.2"
           transform="matrix(1.7538375,0,0,1.7538375,511.21876,371.22867)">
          <path
             id="path5865"
             d="m 52,18 c 0,-2.2 -1.8,-4 -4,-4 l -32,0 c -2.2,0 -4,1.8 -4,4 l 0,6 40,0 0,-6 z"
             class="st2"
             inkscape:connector-curvature="0"
             style="fill:#231f20" />
        </g>
        <g
           id="g5867"
           transform="matrix(1.7538375,0,0,1.7538375,511.21876,371.22867)">
          <path
             id="path5869"
             d="m 52,16 c 0,-2.2 -1.8,-4 -4,-4 l -32,0 c -2.2,0 -4,1.8 -4,4 l 0,6 40,0 0,-6 z"
             class="st4"
             inkscape:connector-curvature="0"
             style="fill:#e0e0d1" />
        </g>
        <g
           id="g5871"
           transform="matrix(1.7538375,0,0,1.7538375,511.21876,371.22867)">
          <circle
             id="circle5873"
             r="2"
             cy="17"
             cx="23"
             class="st5"
             style="fill:#e0995e" />
        </g>
        <g
           id="g5875"
           transform="matrix(1.7538375,0,0,1.7538375,511.21876,371.22867)">
          <circle
             id="circle5877"
             r="2"
             cy="17"
             cx="29"
             class="st6"
             style="fill:#76c2af" />
        </g>
        <g
           id="g5879"
           transform="matrix(1.7538375,0,0,1.7538375,511.21876,371.22867)">
          <circle
             id="circle5881"
             r="2"
             cy="17"
             cx="17"
             class="st7"
             style="fill:#c75c5c" />
        </g>
      </g>
      <g
         id="flowRoot4451-3"
         style="font-style:normal;font-weight:normal;font-size:40px;line-height:125%;font-family:sans-serif;letter-spacing:0px;word-spacing:0px;fill:#000000;fill-opacity:1;stroke:none;stroke-width:1px;stroke-linecap:butt;stroke-linejoin:miter;stroke-opacity:1"
         transform="matrix(0.45734528,0,0,0.45734528,111.69297,244.64961)">
        <path
           inkscape:connector-curvature="0"
           id="path4375"
           style="font-style:normal;font-variant:normal;font-weight:bold;font-stretch:normal;font-family:Sawasdee;-inkscape-font-specification:'Sawasdee Bold'"
           d="m -68.853516,1103.2638 7.65625,0 q 2.871094,0 4.824219,-1.7383 1.953125,-1.7383 1.953125,-4.1015 0,-2.3633 -1.953125,-4.0821 -1.953125,-1.7187 -4.824219,-1.7187 l -7.65625,0 0,11.6406 z m 12.246094,-18.8086 0,-0.039 q 0,-1.6992 -1.445312,-2.9882 -1.425782,-1.3086 -3.515625,-1.3086 l -7.285157,0 0,8.5351 7.285157,0 q 2.128906,0 3.535156,-1.25 1.425781,-1.2695 1.425781,-2.9492 z m -4.84375,-7.3437 q 3.28125,0 5.625,2.1679 2.363281,2.1485 2.363281,5.1758 0,1.6016 -0.722656,3.0274 -0.722656,1.4062 -1.992187,2.4023 2.226562,1.1328 3.535156,3.1445 1.328125,1.9922 1.328125,4.3946 0,2.4414 -1.367188,4.4921 -1.347656,2.0508 -3.613281,3.2032 -2.265625,1.1523 -4.902344,1.1523 l -10.761718,0 0,-29.1601 10.507812,0 z" />
        <path
           inkscape:connector-curvature="0"
           id="path4377"
           style="font-style:normal;font-variant:normal;font-weight:bold;font-stretch:normal;font-family:Sawasdee;-inkscape-font-specification:'Sawasdee Bold'"
           d="m -43.677734,1089.3771 q 2.089843,-2.3438 4.785156,-3.3008 l 3.886719,2.7148 q -1.679688,0 -3.046875,0.3516 -1.367188,0.332 -2.246094,0.8594 -0.878906,0.5078 -1.542969,1.2305 -0.664062,0.7226 -0.996094,1.3867 -0.332031,0.664 -0.546875,1.4258 -0.195312,0.7421 -0.253906,1.1914 -0.03906,0.4492 -0.03906,0.8593 l 0,10.1758 -3.046875,0 0,-13.9844 q 0,-1.4648 -0.273438,-3.3203 -0.253906,-1.8554 -0.605469,-2.539 l 3.417969,0 q 0.507813,1.3867 0.507813,2.9492 z" />
        <path
           inkscape:connector-curvature="0"
           id="path4379"
           style="font-style:normal;font-variant:normal;font-weight:bold;font-stretch:normal;font-family:Sawasdee;-inkscape-font-specification:'Sawasdee Bold'"
           d="m -13.404297,1091.2326 q 1.425781,2.3437 1.425781,5.1171 0,2.7735 -1.425781,5.1172 -1.425781,2.3438 -3.867187,3.711 -2.441407,1.3476 -5.3125,1.3476 -2.890625,0 -5.351563,-1.3476 -2.441406,-1.3672 -3.867187,-3.711 -1.425782,-2.3437 -1.425782,-5.1172 0,-2.7734 1.425782,-5.1171 1.425781,-2.3633 3.867187,-3.711 2.460938,-1.3672 5.351563,-1.3672 2.871093,0 5.3125,1.3672 2.441406,1.3477 3.867187,3.711 z m -16.699219,5.1171 q 0,3.0274 2.207032,5.1368 2.207031,2.1093 5.351562,2.1093 3.144531,0 5.371094,-2.1093 2.226562,-2.1289 2.226562,-5.1368 0,-2.9882 -2.226562,-5.0976 -2.226563,-2.1289 -5.371094,-2.1289 -3.144531,0 -5.351562,2.1289 -2.207032,2.1094 -2.207032,5.0976 z" />
        <path
           inkscape:connector-curvature="0"
           id="path4381"
           style="font-style:normal;font-variant:normal;font-weight:bold;font-stretch:normal;font-family:Sawasdee;-inkscape-font-specification:'Sawasdee Bold'"
           d="m -9.5761719,1086.4279 3.359375,0 5.85937502,12.3242 6.52343748,-12.5977 6.5039064,12.5977 5.761719,-12.3242 3.339843,0 -9.101562,20.1367 -6.5625001,-13.1445 -6.50390628,13.1445 -9.17968752,-20.1367 z" />
        <path
           inkscape:connector-curvature="0"
           id="path4383"
           style="font-style:normal;font-variant:normal;font-weight:bold;font-stretch:normal;font-family:Sawasdee;-inkscape-font-specification:'Sawasdee Bold'"
           d="m 36.947266,1090.7443 -2.890625,1.0156 -0.214844,-0.6641 q -0.371094,-1.0156 -1.152344,-1.5234 -0.761719,-0.5273 -1.640625,-0.5273 -1.035156,0 -1.699219,0.6054 -0.664062,0.6055 -0.664062,1.5625 0,0.625 0.507812,1.1524 0.507813,0.5078 1.328125,0.8984 0.820313,0.3711 1.796875,0.7617 0.996094,0.3906 1.972657,0.918 0.996093,0.5273 1.816406,1.1914 0.820312,0.6641 1.328125,1.7187 0.507812,1.0547 0.507812,2.3829 0,2.7734 -2.070312,4.5703 -2.070313,1.7968 -4.902344,1.7968 -1.621094,0 -3.027344,-0.625 -1.40625,-0.6445 -2.460937,-2.0703 -1.054688,-1.4453 -1.347656,-3.4765 l -0.09766,-0.6641 3.066407,-0.3711 0.09766,0.625 q 0.253906,1.836 1.308594,2.7344 1.054687,0.8984 2.5,0.8984 1.542968,0 2.714843,-0.9375 1.171875,-0.957 1.171875,-2.4804 0,-0.8594 -0.527343,-1.5039 -0.507813,-0.6641 -1.328125,-1.0938 -0.820313,-0.4492 -1.816407,-0.8398 -0.976562,-0.4102 -1.972656,-0.8789 -0.996094,-0.4688 -1.816406,-1.0352 -0.820313,-0.5859 -1.347656,-1.5234 -0.507813,-0.9375 -0.507813,-2.1485 0,-2.3242 1.601563,-3.7109 1.621093,-1.3867 3.867187,-1.3867 1.035156,0 2.050781,0.332 1.015625,0.332 2.050782,1.2891 1.054687,0.957 1.582031,2.4023 l 0.214844,0.6055 z" />
        <path
           inkscape:connector-curvature="0"
           id="path4385"
           style="font-style:normal;font-variant:normal;font-weight:bold;font-stretch:normal;font-family:Sawasdee;-inkscape-font-specification:'Sawasdee Bold'"
           d="m 45.189453,1094.1232 12.402344,0 q -0.625,-2.2266 -2.363281,-3.6133 -1.71875,-1.3867 -3.828125,-1.3867 -2.070313,0 -3.808594,1.3867 -1.71875,1.3867 -2.402344,3.6133 z m -0.351562,2.8906 q 0.234375,2.8125 2.128906,4.6875 1.894531,1.8555 4.355469,1.8555 1.933593,0 3.59375,-0.9766 1.660156,-0.9961 2.792968,-2.9101 l 2.65625,1.4257 q -0.761718,1.3477 -1.777343,2.3828 -1.015625,1.0157 -1.972657,1.5821 -0.957031,0.5664 -2.011718,0.9179 -1.054688,0.3516 -1.816407,0.4493 -0.742187,0.098 -1.464843,0.098 -2.65625,0 -4.863282,-1.3867 -2.207031,-1.3867 -3.457031,-3.7109 -1.230469,-2.3438 -1.230469,-5.0782 0,-2.7148 1.269532,-5.039 1.269531,-2.3438 3.496093,-3.75 2.226563,-1.4063 4.863282,-1.4063 2.519531,0 4.648437,1.2696 2.128906,1.2695 3.417969,3.4179 1.289062,2.1289 1.503906,4.668 l 0.07813,1.5039 -16.210937,0 z" />
        <path
           inkscape:connector-curvature="0"
           id="path4387"
           style="font-style:normal;font-variant:normal;font-weight:bold;font-stretch:normal;font-family:Sawasdee;-inkscape-font-specification:'Sawasdee Bold'"
           d="m 68.822266,1089.3771 q 2.089843,-2.3438 4.785156,-3.3008 l 3.886719,2.7148 q -1.679688,0 -3.046875,0.3516 -1.367188,0.332 -2.246094,0.8594 -0.878906,0.5078 -1.542969,1.2305 -0.664062,0.7226 -0.996094,1.3867 -0.332031,0.664 -0.546875,1.4258 -0.195312,0.7421 -0.253906,1.1914 -0.03906,0.4492 -0.03906,0.8593 l 0,10.1758 -3.046875,0 0,-13.9844 q 0,-1.4648 -0.273438,-3.3203 -0.253906,-1.8554 -0.605469,-2.539 l 3.417969,0 q 0.507813,1.3867 0.507813,2.9492 z" />
      </g>
    </g>
    <g
       transform="translate(573.61101,175.56821)"
       id="g4561">
      <g
         id="g4563"
         style="font-style:normal;font-weight:normal;font-size:19.34154129px;line-height:125%;font-family:sans-serif;letter-spacing:0px;word-spacing:0px;fill:#000000;fill-opacity:1;stroke:none;stroke-width:1px;stroke-linecap:butt;stroke-linejoin:miter;stroke-opacity:1"
         transform="translate(-570.47461,-177.14262)">
        <path
           inkscape:connector-curvature="0"
           id="path4565"
           style="font-style:normal;font-variant:normal;font-weight:bold;font-stretch:normal;font-family:Sawasdee;-inkscape-font-specification:'Sawasdee Bold'"
           d="m 306.25266,743.64469 1.20885,0.78386 q -2.40825,3.19211 -6.09145,3.19211 -1.49217,0 -2.86157,-0.56664 -1.35995,-0.56665 -2.35158,-1.52051 -0.98219,-0.95385 -1.56773,-2.27603 -0.58553,-1.33162 -0.58553,-2.79545 0,-1.46384 0.58553,-2.79546 0.58554,-1.33162 1.56773,-2.29492 0.99163,-0.9633 2.35158,-1.52995 1.3694,-0.56664 2.86157,-0.56664 0.75552,0 1.46383,0.14166 0.70831,0.14166 1.24663,0.35887 0.53831,0.20778 1.04829,0.51943 0.50998,0.31166 0.84997,0.59498 0.33999,0.27388 0.67053,0.62331 0.33055,0.33999 0.4911,0.53832 0.16055,0.18888 0.3211,0.41554 l -1.18996,0.85941 q -0.25499,-0.3211 -0.41554,-0.50998 -0.16055,-0.18888 -0.66109,-0.63276 -0.49109,-0.44387 -0.97274,-0.70831 -0.48165,-0.27387 -1.25607,-0.50053 -0.76497,-0.22666 -1.59605,-0.22666 -1.19941,0 -2.28548,0.45332 -1.08607,0.45331 -1.86993,1.21829 -0.78387,0.76497 -1.24663,1.83215 -0.45331,1.05774 -0.45331,2.22881 0,1.16163 0.45331,2.21937 0.46276,1.05774 1.23718,1.83216 0.78386,0.76497 1.86994,1.21829 1.09551,0.45332 2.29492,0.45332 0.82163,0 1.57716,-0.21722 0.76498,-0.21721 1.26551,-0.50054 0.50054,-0.28332 0.9633,-0.68942 0.47221,-0.40609 0.67053,-0.6422 0.20777,-0.2361 0.4061,-0.50998 z" />
        <path
           inkscape:connector-curvature="0"
           id="path4567"
           style="font-style:normal;font-variant:normal;font-weight:bold;font-stretch:normal;font-family:Sawasdee;-inkscape-font-specification:'Sawasdee Bold'"
           d="m 318.85111,740.22592 q 0.68942,1.1333 0.68942,2.47436 0,1.34106 -0.68942,2.47436 -0.68942,1.13329 -1.86994,1.79438 -1.18051,0.65164 -2.5688,0.65164 -1.39772,0 -2.58768,-0.65164 -1.18052,-0.66109 -1.86994,-1.79438 -0.68942,-1.1333 -0.68942,-2.47436 0,-1.34106 0.68942,-2.47436 0.68942,-1.14273 1.86994,-1.79438 1.18996,-0.66109 2.58768,-0.66109 1.38829,0 2.5688,0.66109 1.18052,0.65165 1.86994,1.79438 z m -8.07472,2.47436 q 0,1.46384 1.06719,2.4838 1.06718,1.01997 2.58768,1.01997 1.5205,0 2.59713,-1.01997 1.07663,-1.02941 1.07663,-2.4838 0,-1.44495 -1.07663,-2.46491 -1.07663,-1.02941 -2.59713,-1.02941 -1.5205,0 -2.58768,1.02941 -1.06719,1.01996 -1.06719,2.46491 z" />
        <path
           inkscape:connector-curvature="0"
           id="path4569"
           style="font-style:normal;font-variant:normal;font-weight:bold;font-stretch:normal;font-family:Sawasdee;-inkscape-font-specification:'Sawasdee Bold'"
           d="m 323.31817,739.77261 q 0.43443,-0.83109 1.16163,-1.39773 0.73664,-0.57609 1.45439,-0.57609 1.01052,0 1.67161,0.53831 0.66109,0.52887 0.97274,1.43551 0.52887,-0.85942 1.23718,-1.41662 0.71775,-0.5572 1.42606,-0.5572 0.60442,0 1.10496,0.22665 0.50054,0.21722 0.83108,0.58554 0.33055,0.36832 0.55721,0.8783 0.22666,0.50054 0.3211,1.05774 0.10388,0.54776 0.10388,1.14274 l 0,5.80813 -1.47328,0 0,-5.80813 q 0,-0.43443 -0.0756,-0.83108 -0.0661,-0.39665 -0.21722,-0.77442 -0.1511,-0.38721 -0.45331,-0.61387 -0.30222,-0.2361 -0.71776,-0.2361 -0.50998,0 -1.1144,0.61387 -0.59498,0.60442 -0.99163,1.4355 -0.38721,0.82164 -0.38721,1.43551 l 0,4.77872 -1.48273,0 0,-5.85535 q 0,-0.43443 -0.0661,-0.83108 -0.0661,-0.39665 -0.22666,-0.77442 -0.1511,-0.38721 -0.46276,-0.61387 -0.30221,-0.2361 -0.71775,-0.2361 -0.47221,0 -1.05774,0.59498 -0.58554,0.58553 -0.99163,1.42606 -0.4061,0.84053 -0.4061,1.49217 l 0,4.79761 -1.50161,0 0,-6.76198 q 0,-0.7272 -0.12278,-1.6055 -0.11333,-0.88775 -0.30221,-1.22774 l 1.67161,0 q 0.16999,0.5572 0.20777,0.86886 0.0472,0.30221 0.0472,1.00108 z" />
        <path
           inkscape:connector-curvature="0"
           id="path4571"
           style="font-style:normal;font-variant:normal;font-weight:bold;font-stretch:normal;font-family:Sawasdee;-inkscape-font-specification:'Sawasdee Bold'"
           d="m 336.4266,737.90267 1.67161,0 q 0.25499,0.80275 0.25499,1.48273 0.61386,-0.70831 1.46383,-1.16163 0.85942,-0.45332 1.6905,-0.45332 1.2844,0 2.34214,0.67998 1.06719,0.67998 1.66216,1.81327 0.60443,1.12385 0.60443,2.43658 0,1.31273 -0.60443,2.44603 -0.59497,1.12384 -1.66216,1.80382 -1.05774,0.67053 -2.34214,0.67053 -0.84053,0 -1.69994,-0.42498 -0.85941,-0.43443 -1.45439,-1.1333 l 0,5.88369 -1.50162,0 0,-11.22905 q 0,-0.71776 -0.12277,-1.6055 -0.11333,-0.88775 -0.30221,-1.20885 z m 1.9266,4.79761 q 0,1.47328 0.93496,2.49325 0.94442,1.01052 2.21937,1.01052 1.25607,0 2.20048,-1.01997 0.94441,-1.01996 0.94441,-2.4838 0,-1.46384 -0.94441,-2.4838 -0.94441,-1.02941 -2.20048,-1.02941 -1.27495,0 -2.21937,1.02941 -0.93496,1.01996 -0.93496,2.4838 z" />
        <path
           inkscape:connector-curvature="0"
           id="path4573"
           style="font-style:normal;font-variant:normal;font-weight:bold;font-stretch:normal;font-family:Sawasdee;-inkscape-font-specification:'Sawasdee Bold'"
           d="m 357.53419,740.22592 q 0.68942,1.1333 0.68942,2.47436 0,1.34106 -0.68942,2.47436 -0.68942,1.13329 -1.86994,1.79438 -1.18051,0.65164 -2.56879,0.65164 -1.39773,0 -2.58769,-0.65164 -1.18051,-0.66109 -1.86993,-1.79438 -0.68943,-1.1333 -0.68943,-2.47436 0,-1.34106 0.68943,-2.47436 0.68942,-1.14273 1.86993,-1.79438 1.18996,-0.66109 2.58769,-0.66109 1.38828,0 2.56879,0.66109 1.18052,0.65165 1.86994,1.79438 z m -8.07472,2.47436 q 0,1.46384 1.06719,2.4838 1.06718,1.01997 2.58768,1.01997 1.52051,0 2.59713,-1.01997 1.07663,-1.02941 1.07663,-2.4838 0,-1.44495 -1.07663,-2.46491 -1.07662,-1.02941 -2.59713,-1.02941 -1.5205,0 -2.58768,1.02941 -1.06719,1.01996 -1.06719,2.46491 z" />
        <path
           inkscape:connector-curvature="0"
           id="path4575"
           style="font-style:normal;font-variant:normal;font-weight:bold;font-stretch:normal;font-family:Sawasdee;-inkscape-font-specification:'Sawasdee Bold'"
           d="m 359.75355,737.90267 1.71883,0 2.37048,3.296 2.37047,-3.296 1.77549,0 -3.25822,4.55206 3.63599,5.04316 -1.7755,0 -2.7199,-3.80598 -2.72935,3.80598 -1.75661,0 3.6171,-5.04316 -3.24878,-4.55206 z" />
        <path
           inkscape:connector-curvature="0"
           id="path4577"
           style="font-style:normal;font-variant:normal;font-weight:bold;font-stretch:normal;font-family:Sawasdee;-inkscape-font-specification:'Sawasdee Bold'"
           d="m 369.90597,737.92156 1.50162,0 0,5.83646 q 0,1.0483 0.6422,1.74716 0.6422,0.69887 1.54883,0.69887 0.92552,0 1.59606,-0.69887 0.67997,-0.70831 0.67997,-1.74716 l 0,-5.83646 1.49217,0 0,5.83646 q 0,1.59606 -1.08607,2.73879 -1.07663,1.14274 -2.64435,1.14274 -1.56772,0 -2.6538,-1.14274 -1.07663,-1.14273 -1.07663,-2.73879 l 0,-5.83646 z" />
        <path
           inkscape:connector-curvature="0"
           id="path4579"
           style="font-style:normal;font-variant:normal;font-weight:bold;font-stretch:normal;font-family:Sawasdee;-inkscape-font-specification:'Sawasdee Bold'"
           d="m 381.50335,739.32873 q 1.01052,-1.13329 2.3138,-1.59605 l 1.87938,1.31273 q -0.81219,0 -1.47328,0.16999 -0.66109,0.16055 -1.08607,0.41554 -0.42499,0.24555 -0.74609,0.59498 -0.3211,0.34944 -0.48165,0.67054 -0.16055,0.32109 -0.26443,0.68942 -0.0944,0.35887 -0.12277,0.57609 -0.0189,0.21721 -0.0189,0.41554 l 0,4.92038 -1.47328,0 0,-6.76198 q 0,-0.70831 -0.13222,-1.6055 -0.12278,-0.89719 -0.29277,-1.22774 l 1.65272,0 q 0.24555,0.67053 0.24555,1.42606 z" />
        <path
           inkscape:connector-curvature="0"
           id="path4581"
           style="font-style:normal;font-variant:normal;font-weight:bold;font-stretch:normal;font-family:Sawasdee;-inkscape-font-specification:'Sawasdee Bold'"
           d="m 388.20867,741.62365 5.99701,0 q -0.30221,-1.07663 -1.14274,-1.74716 -0.83108,-0.67053 -1.85105,-0.67053 -1.00107,0 -1.8416,0.67053 -0.83108,0.67053 -1.16162,1.74716 z m -0.17,1.39773 q 0.11333,1.35995 1.02941,2.26659 0.91608,0.89719 2.10604,0.89719 0.93497,0 1.73771,-0.47221 0.80275,-0.48165 1.35051,-1.40717 l 1.2844,0.68942 q -0.36832,0.65164 -0.85941,1.15218 -0.4911,0.4911 -0.95386,0.76497 -0.46276,0.27388 -0.97274,0.44388 -0.50998,0.16999 -0.8783,0.21721 -0.35888,0.0472 -0.70831,0.0472 -1.2844,0 -2.35159,-0.67053 -1.06718,-0.67053 -1.6716,-1.79438 -0.59498,-1.13329 -0.59498,-2.45547 0,-1.31273 0.61386,-2.43658 0.61387,-1.13329 1.6905,-1.81327 1.07663,-0.67998 2.35158,-0.67998 1.2183,0 2.2477,0.61387 1.02941,0.61387 1.65272,1.65272 0.62331,1.02941 0.7272,2.25714 l 0.0378,0.7272 -7.83862,0 z" />
      </g>
      <rect
         ry="15.675912"
         y="449.39392"
         x="-278.86108"
         height="102.48667"
         width="106.65392"
         id="rect4583"
         style="opacity:1;fill:#e0e0d1;fill-opacity:1;stroke:none;stroke-width:1;stroke-linecap:round;stroke-linejoin:round;stroke-miterlimit:4;stroke-dasharray:none;stroke-dashoffset:0;stroke-opacity:1" />
      <g
         id="g4585"
         transform="matrix(0.77697139,0,0,0.77697139,-442.78626,202.87597)">
        <path
           style="fill:#000000;fill-opacity:1;fill-rule:evenodd;stroke:none;stroke-width:1.06729305;stroke-linecap:butt;stroke-linejoin:round;stroke-miterlimit:4;stroke-dasharray:none;stroke-opacity:1;filter:url(#filter4826)"
           id="path4587"
           d="m 249.80944,357.75007 c 0,0 22.90168,5.863 23.86936,1.21653 0.94793,-4.55166 -4.09848,-5.04132 -4.51583,-10.3405 -0.40319,-5.11956 3.59182,-10.22268 10.64444,-10.13775 7.01566,0.0845 10.99926,4.68026 11.28956,9.79982 0.38582,6.80399 -5.11947,6.79254 -3.35461,10.67843 1.9031,4.19027 23.06062,-1.13297 25.80471,2.36548 3.04818,3.88613 2.4837,14.61525 -0.70963,19.93757 -3.19333,5.32232 -5.66091,-2.23031 -10.45091,-1.01377 -4.79,1.21652 -4.48356,4.9168 -4.19326,9.93499 0.2903,5.01819 0.88704,7.68779 5.67703,8.44812 4.79,0.76034 7.16081,-8.92121 8.96714,-4.39302 1.80633,4.52819 1.99987,22.80994 -1.74182,27.57468 -3.43505,4.37428 -24.2412,5.16732 -25.15959,0.60826 -1.04831,-5.20404 4.16101,-3.34546 3.87071,-7.90744 -0.2903,-4.56199 -5.46737,-6.53885 -10.83798,-7.29918 -5.3706,-0.76033 -8.75747,-0.30413 -10.64444,4.25785 -1.88697,4.56199 4.87064,6.52196 3.41913,10.94877 -1.53248,4.67374 -25.67569,0 -25.67569,0 0,0 5.63791,-24.35569 0.38707,-27.50709 -4.75774,-2.85547 -5.09643,3.83545 -9.74127,1.55446 -4.64485,-2.281 -3.403,-7.53573 -2.38694,-12.70598 1.01606,-5.17026 3.95456,-8.24464 7.41885,-7.97503 2.82239,0.21965 8.87037,8.9719 10.32189,5.47438 1.45151,-3.49752 -2.25792,-23.51958 -2.25792,-23.51958 z"
           inkscape:connector-curvature="0" />
        <path
           inkscape:connector-curvature="0"
           d="m 252.66659,353.46435 c 0,0 22.90168,5.863 23.86936,1.21653 0.94793,-4.55166 -4.09848,-5.04132 -4.51583,-10.3405 -0.40319,-5.11956 3.59182,-10.22268 10.64444,-10.13775 7.01566,0.0845 10.99926,4.68026 11.28956,9.79982 0.38582,6.80399 -5.11947,6.79254 -3.35461,10.67843 1.9031,4.19027 23.06062,-1.13297 25.80471,2.36548 3.04818,3.88613 2.4837,14.61525 -0.70963,19.93757 -3.19333,5.32232 -5.66091,-2.23031 -10.45091,-1.01377 -4.79,1.21652 -4.48356,4.9168 -4.19326,9.93499 0.2903,5.01819 0.88704,7.68779 5.67703,8.44812 4.79,0.76034 7.16081,-8.92121 8.96714,-4.39302 1.80633,4.52819 1.99987,22.80994 -1.74182,27.57468 -3.43505,4.37428 -24.2412,5.16732 -25.15959,0.60826 -1.04831,-5.20404 4.16101,-3.34546 3.87071,-7.90744 -0.2903,-4.56199 -5.46737,-6.53885 -10.83798,-7.29918 -5.3706,-0.76033 -8.75747,-0.30413 -10.64444,4.25785 -1.88697,4.56199 4.87064,6.52196 3.41913,10.94877 -1.53248,4.67374 -25.67569,0 -25.67569,0 0,0 5.63791,-24.35569 0.38707,-27.50709 -4.75774,-2.85547 -5.09643,3.83545 -9.74127,1.55446 -4.64485,-2.281 -3.403,-7.53573 -2.38694,-12.70598 1.01606,-5.17026 3.95456,-8.24464 7.41885,-7.97503 2.82239,0.21965 8.87037,8.9719 10.32189,5.47438 1.45151,-3.49752 -2.25792,-23.51958 -2.25792,-23.51958 z"
           id="path4589"
           style="fill:#77b3d4;fill-opacity:1;fill-rule:evenodd;stroke:none;stroke-width:1.06729305;stroke-linecap:butt;stroke-linejoin:round;stroke-miterlimit:4;stroke-dasharray:none;stroke-opacity:1" />
      </g>
    </g>
  </g>
  <style
     id="style4258"
     type="text/css">
	.st0{fill:#77B3D4;}
	.st1{opacity:0.2;}
	.st2{fill:#231F20;}
	.st3{fill:#FFFFFF;}
	.st4{fill:#E0E0D1;}
	.st5{fill:#E0995E;}
	.st6{fill:#76C2AF;}
	.st7{fill:#C75C5C;}
	.st8{fill:#4F5D73;}
</style>
</svg>
