<?xml version="1.0" encoding="UTF-8" standalone="no"?>
<!-- Created with Inkscape (http://www.inkscape.org/) -->

<svg
   xmlns:dc="http://purl.org/dc/elements/1.1/"
   xmlns:cc="http://creativecommons.org/ns#"
   xmlns:rdf="http://www.w3.org/1999/02/22-rdf-syntax-ns#"
   xmlns:svg="http://www.w3.org/2000/svg"
   xmlns="http://www.w3.org/2000/svg"
   xmlns:xlink="http://www.w3.org/1999/xlink"
   xmlns:sodipodi="http://sodipodi.sourceforge.net/DTD/sodipodi-0.dtd"
   xmlns:inkscape="http://www.inkscape.org/namespaces/inkscape"
   width="164.6147mm"
   height="74.986252mm"
   viewBox="0 0 583.28043 265.69932"
   id="svg2"
   version="1.1"
   inkscape:version="0.91 r13725"
   sodipodi:docname="cx.svg">
  <defs
     id="defs4">
    <inkscape:perspective
       id="perspective14"
       inkscape:persp3d-origin="24.999999 : 6.6666668 : 1"
       inkscape:vp_z="49.999997 : 10 : 1"
       inkscape:vp_y="0 : 1000 : 0"
       inkscape:vp_x="0 : 10 : 1"
       sodipodi:type="inkscape:persp3d" />
    <linearGradient
       inkscape:collect="always"
       xlink:href="#linearGradient3189"
       id="linearGradient3187"
       gradientUnits="userSpaceOnUse"
       gradientTransform="matrix(0.2664003,0,0,0.2664003,22.291563,7.1254585)"
       x1="21.909702"
       y1="14.877447"
       x2="37.283634"
       y2="-0.49648574" />
    <linearGradient
       inkscape:collect="always"
       xlink:href="#linearGradient3183"
       id="linearGradient3297"
       gradientUnits="userSpaceOnUse"
       gradientTransform="matrix(0.8235066,0,0,0.8235066,17.023824,1.1141097)"
       x1="21.909702"
       y1="14.877447"
       x2="37.283634"
       y2="-0.49648574" />
    <linearGradient
       inkscape:collect="always"
       xlink:href="#linearGradient3171"
       id="linearGradient3294"
       gradientUnits="userSpaceOnUse"
       gradientTransform="matrix(0.8235066,0,0,0.8235066,3.2633246,1.1215684)"
       x1="21.909702"
       y1="14.877447"
       x2="37.283634"
       y2="-0.49648574" />
    <linearGradient
       inkscape:collect="always"
       xlink:href="#linearGradient3171"
       id="linearGradient3291"
       gradientUnits="userSpaceOnUse"
       gradientTransform="matrix(0.948408,0,0,0.948408,-0.03348006,-22.23239)"
       x1="21.909702"
       y1="14.877447"
       x2="37.283634"
       y2="-0.49648574" />
    <linearGradient
       inkscape:collect="always"
       xlink:href="#linearGradient3183"
       id="linearGradient3289"
       gradientUnits="userSpaceOnUse"
       gradientTransform="matrix(0.948408,0,0,0.948408,15.814076,-22.24098)"
       x1="21.909702"
       y1="14.877447"
       x2="37.283634"
       y2="-0.49648574" />
    <linearGradient
       inkscape:collect="always"
       xlink:href="#linearGradient3183"
       id="linearGradient3274"
       gradientUnits="userSpaceOnUse"
       gradientTransform="matrix(0.948408,0,0,0.948408,-35.372652,3.1257621)"
       x1="21.909702"
       y1="14.877447"
       x2="37.283634"
       y2="-0.49648574" />
    <linearGradient
       inkscape:collect="always"
       xlink:href="#linearGradient3183"
       id="linearGradient2496"
       gradientUnits="userSpaceOnUse"
       gradientTransform="matrix(-0.948408,0,0,0.948408,6.0609237,3.1257621)"
       x1="21.909702"
       y1="14.877447"
       x2="37.283634"
       y2="-0.49648574" />
    <linearGradient
       inkscape:collect="always"
       xlink:href="#linearGradient3171"
       id="linearGradient2493"
       gradientUnits="userSpaceOnUse"
       x1="21.909702"
       y1="14.877447"
       x2="37.283634"
       y2="-0.49648574"
       gradientTransform="matrix(0.948408,0,0,0.948408,-0.03348006,-0.2250238)" />
    <linearGradient
       id="linearGradient3183">
      <stop
         style="stop-color:#1c88ed;stop-opacity:1;"
         offset="0"
         id="stop3185" />
      <stop
         style="stop-color:#ffffff;stop-opacity:1;"
         offset="1"
         id="stop3187" />
    </linearGradient>
    <linearGradient
       id="linearGradient3171">
      <stop
         id="stop3173"
         offset="0"
         style="stop-color:#ed1c24;stop-opacity:1;" />
      <stop
         id="stop3175"
         offset="1"
         style="stop-color:#ffffff;stop-opacity:1;" />
    </linearGradient>
    <inkscape:perspective
       id="perspective2497"
       inkscape:persp3d-origin="17.999999 : 13.333333 : 1"
       inkscape:vp_z="35.999998 : 20 : 1"
       inkscape:vp_y="0 : 1000 : 0"
       inkscape:vp_x="0 : 20 : 1"
       sodipodi:type="inkscape:persp3d" />
    <linearGradient
       gradientUnits="userSpaceOnUse"
       y2="-0.49648574"
       x2="37.283634"
       y1="14.877447"
       x1="21.909702"
       id="linearGradient3177"
       xlink:href="#linearGradient3171"
       inkscape:collect="always" />
    <linearGradient
       gradientTransform="matrix(-1,0,0,1,36.046875,18.40625)"
       y2="-0.49648574"
       x2="37.283634"
       y1="14.877447"
       x1="21.909702"
       gradientUnits="userSpaceOnUse"
       id="linearGradient3181"
       xlink:href="#linearGradient3183"
       inkscape:collect="always" />
    <inkscape:perspective
       sodipodi:type="inkscape:persp3d"
       inkscape:vp_x="0 : 10 : 1"
       inkscape:vp_y="0 : 1000 : 0"
       inkscape:vp_z="49.999997 : 10 : 1"
       inkscape:persp3d-origin="24.999999 : 6.6666668 : 1"
       id="perspective13" />
    <linearGradient
       id="linearGradient3189">
      <stop
         id="stop3191"
         offset="0"
         style="stop-color:#a61ced;stop-opacity:1;" />
      <stop
         id="stop3193"
         offset="1"
         style="stop-color:#ffffff;stop-opacity:1;" />
    </linearGradient>
    <inkscape:perspective
       sodipodi:type="inkscape:persp3d"
       inkscape:vp_x="0 : 20 : 1"
       inkscape:vp_y="0 : 1000 : 0"
       inkscape:vp_z="35.999998 : 20 : 1"
       inkscape:persp3d-origin="17.999999 : 13.333333 : 1"
       id="perspective2625" />
    <linearGradient
       gradientTransform="matrix(0.948408,0,0,0.948408,53.929067,-11.431696)"
       y2="-0.49648574"
       x2="37.283634"
       y1="14.877447"
       x1="21.909702"
       gradientUnits="userSpaceOnUse"
       id="linearGradient2638"
       xlink:href="#linearGradient3171"
       inkscape:collect="always" />
    <linearGradient
       y2="-0.49648574"
       x2="37.283634"
       y1="14.877447"
       x1="21.909702"
       gradientTransform="matrix(-0.8272523,0,0,0.8249111,49.918574,1.1064261)"
       gradientUnits="userSpaceOnUse"
       id="linearGradient2641"
       xlink:href="#linearGradient3183"
       inkscape:collect="always" />
    <linearGradient
       y2="-3.4240246"
       x2="37.478802"
       y1="13.511262"
       x1="17.420809"
       gradientTransform="matrix(0.2664003,0,0,0.2664003,34.091034,14.040547)"
       gradientUnits="userSpaceOnUse"
       id="linearGradient2644"
       xlink:href="#linearGradient3189"
       inkscape:collect="always" />
    <linearGradient
       y2="-0.49648574"
       x2="37.283634"
       y1="14.877447"
       x1="21.909702"
       gradientTransform="matrix(0.8235066,0,0,0.8235066,9.3955434,1.1735615)"
       gradientUnits="userSpaceOnUse"
       id="linearGradient2648"
       xlink:href="#linearGradient3171"
       inkscape:collect="always" />
    <linearGradient
       y2="2.9760098"
       x2="11.20835"
       y1="14.877447"
       x1="21.909702"
       gradientTransform="matrix(0.8235066,0,0,0.8235066,21.492261,2.2059658)"
       gradientUnits="userSpaceOnUse"
       id="linearGradient2651"
       xlink:href="#linearGradient3183"
       inkscape:collect="always" />
    <linearGradient
       y2="-0.49648574"
       x2="37.283634"
       y1="14.877447"
       x1="21.909702"
       gradientTransform="matrix(0.8235066,0,0,0.8235066,13.797276,1.1141097)"
       gradientUnits="userSpaceOnUse"
       id="linearGradient2654"
       xlink:href="#linearGradient3183"
       inkscape:collect="always" />
    <filter
       inkscape:collect="always"
       style="color-interpolation-filters:sRGB"
       id="filter4735"
       x="-0.096851736"
       width="1.1937035"
       y="-0.11608559"
       height="1.2321712">
      <feGaussianBlur
         inkscape:collect="always"
         stdDeviation="3.7356343"
         id="feGaussianBlur4737" />
    </filter>
    <filter
       inkscape:collect="always"
       style="color-interpolation-filters:sRGB"
       id="filter5185"
       x="-0.054000001"
       width="1.108"
       y="-0.054000001"
       height="1.108">
      <feGaussianBlur
         inkscape:collect="always"
         stdDeviation="3.4513393"
         id="feGaussianBlur5187" />
    </filter>
  </defs>
  <sodipodi:namedview
     id="base"
     pagecolor="#ffffff"
     bordercolor="#666666"
     borderopacity="1.0"
     inkscape:pageopacity="0.0"
     inkscape:pageshadow="2"
     inkscape:zoom="1.4"
     inkscape:cx="270.26962"
     inkscape:cy="159.57302"
     inkscape:document-units="px"
     inkscape:current-layer="layer1"
     showgrid="false"
     inkscape:window-width="1920"
     inkscape:window-height="1007"
     inkscape:window-x="0"
     inkscape:window-y="27"
     inkscape:window-maximized="1"
     fit-margin-top="0"
     fit-margin-left="0"
     fit-margin-right="0"
     fit-margin-bottom="0" />
  <metadata
     id="metadata7">
    <rdf:RDF>
      <cc:Work
         rdf:about="">
        <dc:format>image/svg+xml</dc:format>
        <dc:type
           rdf:resource="http://purl.org/dc/dcmitype/StillImage" />
        <dc:title />
      </cc:Work>
    </rdf:RDF>
  </metadata>
  <g
     inkscape:label="Layer 1"
     inkscape:groupmode="layer"
     id="layer1"
     transform="translate(-56.219739,-490.44904)">
    <g
       id="Layer_2"
       transform="matrix(3.8348214,0,0,3.8348214,-2.0000046,884.64792)" />
    <path
       style="fill:none;fill-opacity:1;stroke:#4e6070;stroke-width:2.26756263;stroke-linecap:round;stroke-linejoin:round;stroke-miterlimit:4;stroke-dasharray:none;stroke-opacity:1"
       d="m 263.2403,712.52265 -25.65182,-19.62858 0,11.76298 -40.08368,0 0,15.73121 40.22542,0 0,11.62126 25.51008,-19.48687 z"
       id="path4443"
       sodipodi:nodetypes="cccccccc"
       inkscape:connector-curvature="0" />
    <g
       id="g4586">
      <g
         transform="matrix(1.7538375,0,0,1.7538375,56.219739,624.58424)"
         id="g4261">
        <circle
           style="fill:#77b3d4"
           class="st0"
           cx="32"
           cy="32"
           r="32"
           id="circle4263" />
      </g>
      <g
         style="fill:#000000;fill-opacity:1;filter:url(#filter5185)"
         id="g4739"
         transform="matrix(0.45734528,0,0,0.45734528,72.13168,269.82836)">
        <g
           transform="matrix(3.8348214,0,0,3.8348214,-32.809657,781.61236)"
           style="opacity:0.2;fill:#000000;fill-opacity:1"
           class="st1"
           id="g4741">
          <path
             style="fill:#000000;fill-opacity:1"
             inkscape:connector-curvature="0"
             class="st2"
             d="m 52,48 c 0,2.2 -1.8,4 -4,4 l -32,0 c -2.2,0 -4,-1.8 -4,-4 l 0,-30 c 0,-2.2 1.8,-4 4,-4 l 32,0 c 2.2,0 4,1.8 4,4 l 0,30 z"
             id="path4743" />
        </g>
        <g
           style="fill:#000000;fill-opacity:1"
           transform="matrix(3.8348214,0,0,3.8348214,-32.809657,781.61236)"
           id="g4745">
          <path
             style="fill:#000000;fill-opacity:1"
             inkscape:connector-curvature="0"
             class="st3"
             d="M 12,21.5 12,46 c 0,2.2 1.8,4 4,4 l 32,0 c 2.2,0 4,-1.8 4,-4 l 0,-24.5 -40,0 z"
             id="path4747" />
        </g>
        <g
           transform="matrix(3.8348214,0,0,3.8348214,-32.809657,781.61236)"
           style="opacity:0.2;fill:#000000;fill-opacity:1"
           class="st1"
           id="g4749">
          <path
             style="fill:#000000;fill-opacity:1"
             inkscape:connector-curvature="0"
             class="st2"
             d="m 52,18 c 0,-2.2 -1.8,-4 -4,-4 l -32,0 c -2.2,0 -4,1.8 -4,4 l 0,6 40,0 0,-6 z"
             id="path4751" />
        </g>
        <g
           style="fill:#000000;fill-opacity:1"
           transform="matrix(3.8348214,0,0,3.8348214,-32.809657,781.61236)"
           id="g4753">
          <path
             style="fill:#000000;fill-opacity:1"
             inkscape:connector-curvature="0"
             class="st4"
             d="m 52,16 c 0,-2.2 -1.8,-4 -4,-4 l -32,0 c -2.2,0 -4,1.8 -4,4 l 0,6 40,0 0,-6 z"
             id="path4755" />
        </g>
        <g
           style="fill:#000000;fill-opacity:1"
           transform="matrix(3.8348214,0,0,3.8348214,-32.809657,781.61236)"
           id="g4757">
          <circle
             style="fill:#000000;fill-opacity:1"
             class="st5"
             cx="23"
             cy="17"
             r="2"
             id="circle4759" />
        </g>
        <g
           style="fill:#000000;fill-opacity:1"
           transform="matrix(3.8348214,0,0,3.8348214,-32.809657,781.61236)"
           id="g4761">
          <circle
             style="fill:#000000;fill-opacity:1"
             class="st6"
             cx="29"
             cy="17"
             r="2"
             id="circle4763" />
        </g>
        <g
           style="fill:#000000;fill-opacity:1"
           transform="matrix(3.8348214,0,0,3.8348214,-32.809657,781.61236)"
           id="g4765">
          <circle
             style="fill:#000000;fill-opacity:1"
             class="st7"
             cx="17"
             cy="17"
             r="2"
             id="circle4767" />
        </g>
        <g
           style="fill:#000000;fill-opacity:1"
           transform="matrix(3.8348214,0,0,3.8348214,-32.809657,781.61236)"
           id="g4769">
          <rect
             style="fill:#000000;fill-opacity:1"
             x="16"
             y="28"
             class="st8"
             width="12"
             height="18"
             id="rect4771" />
        </g>
        <g
           style="fill:#000000;fill-opacity:1"
           transform="matrix(3.8348214,0,0,3.8348214,-32.809657,781.61236)"
           id="g4773">
          <rect
             style="fill:#000000;fill-opacity:1"
             x="32"
             y="28"
             class="st4"
             width="16"
             height="2"
             id="rect4775" />
        </g>
        <g
           style="fill:#000000;fill-opacity:1"
           transform="matrix(3.8348214,0,0,3.8348214,-32.809657,781.61236)"
           id="g4777">
          <rect
             style="fill:#000000;fill-opacity:1"
             x="32"
             y="32"
             class="st4"
             width="16"
             height="2"
             id="rect4779" />
        </g>
        <g
           style="fill:#000000;fill-opacity:1"
           transform="matrix(3.8348214,0,0,3.8348214,-32.809657,781.61236)"
           id="g4781">
          <rect
             style="fill:#000000;fill-opacity:1"
             x="32"
             y="36"
             class="st4"
             width="16"
             height="2"
             id="rect4783" />
        </g>
        <g
           style="fill:#000000;fill-opacity:1"
           transform="matrix(3.8348214,0,0,3.8348214,-32.809657,781.61236)"
           id="g4785">
          <rect
             style="fill:#000000;fill-opacity:1"
             x="32"
             y="40"
             class="st4"
             width="16"
             height="2"
             id="rect4787" />
        </g>
        <g
           style="fill:#000000;fill-opacity:1"
           transform="matrix(3.8348214,0,0,3.8348214,-32.809657,781.61236)"
           id="g4789">
          <rect
             style="fill:#000000;fill-opacity:1"
             x="32"
             y="44"
             class="st4"
             width="16"
             height="2"
             id="rect4791" />
        </g>
      </g>
      <g
         transform="matrix(0.45734528,0,0,0.45734528,71.22508,269.00918)"
         id="g4415">
        <g
           id="g4265"
           class="st1"
           style="opacity:0.2"
           transform="matrix(3.8348214,0,0,3.8348214,-32.809657,781.61236)">
          <path
             id="path4267"
             d="m 52,48 c 0,2.2 -1.8,4 -4,4 l -32,0 c -2.2,0 -4,-1.8 -4,-4 l 0,-30 c 0,-2.2 1.8,-4 4,-4 l 32,0 c 2.2,0 4,1.8 4,4 l 0,30 z"
             class="st2"
             inkscape:connector-curvature="0"
             style="fill:#231f20" />
        </g>
        <g
           id="g4269"
           transform="matrix(3.8348214,0,0,3.8348214,-32.809657,781.61236)">
          <path
             id="path4271"
             d="M 12,21.5 12,46 c 0,2.2 1.8,4 4,4 l 32,0 c 2.2,0 4,-1.8 4,-4 l 0,-24.5 -40,0 z"
             class="st3"
             inkscape:connector-curvature="0"
             style="fill:#ffffff" />
        </g>
        <g
           id="g4273"
           class="st1"
           style="opacity:0.2"
           transform="matrix(3.8348214,0,0,3.8348214,-32.809657,781.61236)">
          <path
             id="path4275"
             d="m 52,18 c 0,-2.2 -1.8,-4 -4,-4 l -32,0 c -2.2,0 -4,1.8 -4,4 l 0,6 40,0 0,-6 z"
             class="st2"
             inkscape:connector-curvature="0"
             style="fill:#231f20" />
        </g>
        <g
           id="g4277"
           transform="matrix(3.8348214,0,0,3.8348214,-32.809657,781.61236)">
          <path
             id="path4279"
             d="m 52,16 c 0,-2.2 -1.8,-4 -4,-4 l -32,0 c -2.2,0 -4,1.8 -4,4 l 0,6 40,0 0,-6 z"
             class="st4"
             inkscape:connector-curvature="0"
             style="fill:#e0e0d1" />
        </g>
        <g
           id="g4281"
           transform="matrix(3.8348214,0,0,3.8348214,-32.809657,781.61236)">
          <circle
             id="circle4283"
             r="2"
             cy="17"
             cx="23"
             class="st5"
             style="fill:#e0995e" />
        </g>
        <g
           id="g4285"
           transform="matrix(3.8348214,0,0,3.8348214,-32.809657,781.61236)">
          <circle
             id="circle4287"
             r="2"
             cy="17"
             cx="29"
             class="st6"
             style="fill:#76c2af" />
        </g>
        <g
           id="g4289"
           transform="matrix(3.8348214,0,0,3.8348214,-32.809657,781.61236)">
          <circle
             id="circle4291"
             r="2"
             cy="17"
             cx="17"
             class="st7"
             style="fill:#c75c5c" />
        </g>
        <g
           id="g4293"
           transform="matrix(3.8348214,0,0,3.8348214,-32.809657,781.61236)">
          <rect
             id="rect4295"
             height="18"
             width="12"
             class="st8"
             y="28"
             x="16"
             style="fill:#4f5d73" />
        </g>
        <g
           id="g4297"
           transform="matrix(3.8348214,0,0,3.8348214,-32.809657,781.61236)">
          <rect
             id="rect4299"
             height="2"
             width="16"
             class="st4"
             y="28"
             x="32"
             style="fill:#e0e0d1" />
        </g>
        <g
           id="g4301"
           transform="matrix(3.8348214,0,0,3.8348214,-32.809657,781.61236)">
          <rect
             id="rect4303"
             height="2"
             width="16"
             class="st4"
             y="32"
             x="32"
             style="fill:#e0e0d1" />
        </g>
        <g
           id="g4305"
           transform="matrix(3.8348214,0,0,3.8348214,-32.809657,781.61236)">
          <rect
             id="rect4307"
             height="2"
             width="16"
             class="st4"
             y="36"
             x="32"
             style="fill:#e0e0d1" />
        </g>
        <g
           id="g4309"
           transform="matrix(3.8348214,0,0,3.8348214,-32.809657,781.61236)">
          <rect
             id="rect4311"
             height="2"
             width="16"
             class="st4"
             y="40"
             x="32"
             style="fill:#e0e0d1" />
        </g>
        <g
           id="g4313"
           transform="matrix(3.8348214,0,0,3.8348214,-32.809657,781.61236)">
          <rect
             id="rect4315"
             height="2"
             width="16"
             class="st4"
             y="44"
             x="32"
             style="fill:#e0e0d1" />
        </g>
      </g>
      <g
         id="flowRoot4451"
         style="font-style:normal;font-weight:normal;font-size:40px;line-height:125%;font-family:sans-serif;letter-spacing:0px;word-spacing:0px;fill:#000000;fill-opacity:1;stroke:none;stroke-width:1px;stroke-linecap:butt;stroke-linejoin:miter;stroke-opacity:1"
         transform="matrix(0.45734528,0,0,0.45734528,111.0768,246.00096)">
        <path
           id="path4487"
           style="font-style:normal;font-variant:normal;font-weight:bold;font-stretch:normal;font-family:Sawasdee;-inkscape-font-specification:'Sawasdee Bold'"
           d="m -68.853516,1103.2638 7.65625,0 q 2.871094,0 4.824219,-1.7383 1.953125,-1.7383 1.953125,-4.1015 0,-2.3633 -1.953125,-4.0821 -1.953125,-1.7187 -4.824219,-1.7187 l -7.65625,0 0,11.6406 z m 12.246094,-18.8086 0,-0.039 q 0,-1.6992 -1.445312,-2.9882 -1.425782,-1.3086 -3.515625,-1.3086 l -7.285157,0 0,8.5351 7.285157,0 q 2.128906,0 3.535156,-1.25 1.425781,-1.2695 1.425781,-2.9492 z m -4.84375,-7.3437 q 3.28125,0 5.625,2.1679 2.363281,2.1485 2.363281,5.1758 0,1.6016 -0.722656,3.0274 -0.722656,1.4062 -1.992187,2.4023 2.226562,1.1328 3.535156,3.1445 1.328125,1.9922 1.328125,4.3946 0,2.4414 -1.367188,4.4921 -1.347656,2.0508 -3.613281,3.2032 -2.265625,1.1523 -4.902344,1.1523 l -10.761718,0 0,-29.1601 10.507812,0 z" />
        <path
           id="path4489"
           style="font-style:normal;font-variant:normal;font-weight:bold;font-stretch:normal;font-family:Sawasdee;-inkscape-font-specification:'Sawasdee Bold'"
           d="m -43.677734,1089.3771 q 2.089843,-2.3438 4.785156,-3.3008 l 3.886719,2.7148 q -1.679688,0 -3.046875,0.3516 -1.367188,0.332 -2.246094,0.8594 -0.878906,0.5078 -1.542969,1.2305 -0.664062,0.7226 -0.996094,1.3867 -0.332031,0.664 -0.546875,1.4258 -0.195312,0.7421 -0.253906,1.1914 -0.03906,0.4492 -0.03906,0.8593 l 0,10.1758 -3.046875,0 0,-13.9844 q 0,-1.4648 -0.273438,-3.3203 -0.253906,-1.8554 -0.605469,-2.539 l 3.417969,0 q 0.507813,1.3867 0.507813,2.9492 z" />
        <path
           id="path4491"
           style="font-style:normal;font-variant:normal;font-weight:bold;font-stretch:normal;font-family:Sawasdee;-inkscape-font-specification:'Sawasdee Bold'"
           d="m -13.404297,1091.2326 q 1.425781,2.3437 1.425781,5.1171 0,2.7735 -1.425781,5.1172 -1.425781,2.3438 -3.867187,3.711 -2.441407,1.3476 -5.3125,1.3476 -2.890625,0 -5.351563,-1.3476 -2.441406,-1.3672 -3.867187,-3.711 -1.425782,-2.3437 -1.425782,-5.1172 0,-2.7734 1.425782,-5.1171 1.425781,-2.3633 3.867187,-3.711 2.460938,-1.3672 5.351563,-1.3672 2.871093,0 5.3125,1.3672 2.441406,1.3477 3.867187,3.711 z m -16.699219,5.1171 q 0,3.0274 2.207032,5.1368 2.207031,2.1093 5.351562,2.1093 3.144531,0 5.371094,-2.1093 2.226562,-2.1289 2.226562,-5.1368 0,-2.9882 -2.226562,-5.0976 -2.226563,-2.1289 -5.371094,-2.1289 -3.144531,0 -5.351562,2.1289 -2.207032,2.1094 -2.207032,5.0976 z" />
        <path
           id="path4493"
           style="font-style:normal;font-variant:normal;font-weight:bold;font-stretch:normal;font-family:Sawasdee;-inkscape-font-specification:'Sawasdee Bold'"
           d="m -9.5761719,1086.4279 3.359375,0 5.85937502,12.3242 6.52343748,-12.5977 6.5039064,12.5977 5.761719,-12.3242 3.339843,0 -9.101562,20.1367 -6.5625001,-13.1445 -6.50390628,13.1445 -9.17968752,-20.1367 z" />
        <path
           id="path4495"
           style="font-style:normal;font-variant:normal;font-weight:bold;font-stretch:normal;font-family:Sawasdee;-inkscape-font-specification:'Sawasdee Bold'"
           d="m 36.947266,1090.7443 -2.890625,1.0156 -0.214844,-0.6641 q -0.371094,-1.0156 -1.152344,-1.5234 -0.761719,-0.5273 -1.640625,-0.5273 -1.035156,0 -1.699219,0.6054 -0.664062,0.6055 -0.664062,1.5625 0,0.625 0.507812,1.1524 0.507813,0.5078 1.328125,0.8984 0.820313,0.3711 1.796875,0.7617 0.996094,0.3906 1.972657,0.918 0.996093,0.5273 1.816406,1.1914 0.820312,0.6641 1.328125,1.7187 0.507812,1.0547 0.507812,2.3829 0,2.7734 -2.070312,4.5703 -2.070313,1.7968 -4.902344,1.7968 -1.621094,0 -3.027344,-0.625 -1.40625,-0.6445 -2.460937,-2.0703 -1.054688,-1.4453 -1.347656,-3.4765 l -0.09766,-0.6641 3.066407,-0.3711 0.09766,0.625 q 0.253906,1.836 1.308594,2.7344 1.054687,0.8984 2.5,0.8984 1.542968,0 2.714843,-0.9375 1.171875,-0.957 1.171875,-2.4804 0,-0.8594 -0.527343,-1.5039 -0.507813,-0.6641 -1.328125,-1.0938 -0.820313,-0.4492 -1.816407,-0.8398 -0.976562,-0.4102 -1.972656,-0.8789 -0.996094,-0.4688 -1.816406,-1.0352 -0.820313,-0.5859 -1.347656,-1.5234 -0.507813,-0.9375 -0.507813,-2.1485 0,-2.3242 1.601563,-3.7109 1.621093,-1.3867 3.867187,-1.3867 1.035156,0 2.050781,0.332 1.015625,0.332 2.050782,1.2891 1.054687,0.957 1.582031,2.4023 l 0.214844,0.6055 z" />
        <path
           id="path4498"
           style="font-style:normal;font-variant:normal;font-weight:bold;font-stretch:normal;font-family:Sawasdee;-inkscape-font-specification:'Sawasdee Bold'"
           d="m 45.189453,1094.1232 12.402344,0 q -0.625,-2.2266 -2.363281,-3.6133 -1.71875,-1.3867 -3.828125,-1.3867 -2.070313,0 -3.808594,1.3867 -1.71875,1.3867 -2.402344,3.6133 z m -0.351562,2.8906 q 0.234375,2.8125 2.128906,4.6875 1.894531,1.8555 4.355469,1.8555 1.933593,0 3.59375,-0.9766 1.660156,-0.9961 2.792968,-2.9101 l 2.65625,1.4257 q -0.761718,1.3477 -1.777343,2.3828 -1.015625,1.0157 -1.972657,1.5821 -0.957031,0.5664 -2.011718,0.9179 -1.054688,0.3516 -1.816407,0.4493 -0.742187,0.098 -1.464843,0.098 -2.65625,0 -4.863282,-1.3867 -2.207031,-1.3867 -3.457031,-3.7109 -1.230469,-2.3438 -1.230469,-5.0782 0,-2.7148 1.269532,-5.039 1.269531,-2.3438 3.496093,-3.75 2.226563,-1.4063 4.863282,-1.4063 2.519531,0 4.648437,1.2696 2.128906,1.2695 3.417969,3.4179 1.289062,2.1289 1.503906,4.668 l 0.07813,1.5039 -16.210937,0 z" />
        <path
           id="path4500"
           style="font-style:normal;font-variant:normal;font-weight:bold;font-stretch:normal;font-family:Sawasdee;-inkscape-font-specification:'Sawasdee Bold'"
           d="m 68.822266,1089.3771 q 2.089843,-2.3438 4.785156,-3.3008 l 3.886719,2.7148 q -1.679688,0 -3.046875,0.3516 -1.367188,0.332 -2.246094,0.8594 -0.878906,0.5078 -1.542969,1.2305 -0.664062,0.7226 -0.996094,1.3867 -0.332031,0.664 -0.546875,1.4258 -0.195312,0.7421 -0.253906,1.1914 -0.03906,0.4492 -0.03906,0.8593 l 0,10.1758 -3.046875,0 0,-13.9844 q 0,-1.4648 -0.273438,-3.3203 -0.253906,-1.8554 -0.605469,-2.539 l 3.417969,0 q 0.507813,1.3867 0.507813,2.9492 z" />
      </g>
    </g>
    <g
       id="g4562">
      <rect
         style="opacity:1;fill:#77b3d4;fill-opacity:1;stroke:none;stroke-width:1;stroke-linecap:round;stroke-linejoin:round;stroke-miterlimit:4;stroke-dasharray:none;stroke-dashoffset:0;stroke-opacity:1"
         id="rect5245"
         width="106.6539"
         height="102.48667"
         x="293.11768"
         y="626.73859"
         ry="15.675912" />
      <g
         transform="translate(-21.714905,-0.2268443)"
         id="g5189">
        <g
           id="g4493"
           transform="translate(18.289376,102.56854)"
           style="fill:#000000;fill-opacity:1;filter:url(#filter4735)">
          <g
             transform="matrix(0.04687602,0,0,-0.04687602,305.24715,609.43566)"
             id="g4495"
             style="fill:#000000;fill-opacity:1">
            <path
               d="m 1024,640 q 0,106 -75,181 -75,75 -181,75 -106,0 -181,-75 -75,-75 -75,-181 0,-106 75,-181 75,-75 181,-75 106,0 181,75 75,75 75,181 z m 512,109 0,-222 q 0,-12 -8,-23 -8,-11 -20,-13 l -185,-28 q -19,-54 -39,-91 35,-50 107,-138 10,-12 10,-25 0,-13 -9,-23 -27,-37 -99,-108 -72,-71 -94,-71 -12,0 -26,9 l -138,108 q -44,-23 -91,-38 -16,-136 -29,-186 -7,-28 -36,-28 l -222,0 q -14,0 -24.5,8.5 Q 622,-111 621,-98 L 593,86 q -49,16 -90,37 L 362,16 Q 352,7 337,7 323,7 312,18 186,132 147,186 q -7,10 -7,23 0,12 8,23 15,21 51,66.5 36,45.5 54,70.5 -27,50 -41,99 L 29,495 Q 16,497 8,507.5 0,518 0,531 l 0,222 q 0,12 8,23 8,11 19,13 l 186,28 q 14,46 39,92 -40,57 -107,138 -10,12 -10,24 0,10 9,23 26,36 98.5,107.5 72.5,71.5 94.5,71.5 13,0 26,-10 l 138,-107 q 44,23 91,38 16,136 29,186 7,28 36,28 l 222,0 q 14,0 24.5,-8.5 Q 914,1391 915,1378 l 28,-184 q 49,-16 90,-37 l 142,107 q 9,9 24,9 13,0 25,-10 129,-119 165,-170 7,-8 7,-22 0,-12 -8,-23 -15,-21 -51,-66.5 -36,-45.5 -54,-70.5 26,-50 41,-98 l 183,-28 q 13,-2 21,-12.5 8,-10.5 8,-23.5 z"
               id="path4497"
               inkscape:connector-curvature="0"
               style="fill:#000000;fill-opacity:1" />
          </g>
          <g
             id="g4499"
             transform="matrix(0.02011557,-5.8377607e-4,-5.8377607e-4,-0.02011557,367.22654,567.04004)"
             style="fill:#000000;fill-opacity:1">
            <path
               style="fill:#000000;fill-opacity:1"
               inkscape:connector-curvature="0"
               id="path4501"
               d="m 1024,640 q 0,106 -75,181 -75,75 -181,75 -106,0 -181,-75 -75,-75 -75,-181 0,-106 75,-181 75,-75 181,-75 106,0 181,75 75,75 75,181 z m 512,109 0,-222 q 0,-12 -8,-23 -8,-11 -20,-13 l -185,-28 q -19,-54 -39,-91 35,-50 107,-138 10,-12 10,-25 0,-13 -9,-23 -27,-37 -99,-108 -72,-71 -94,-71 -12,0 -26,9 l -138,108 q -44,-23 -91,-38 -16,-136 -29,-186 -7,-28 -36,-28 l -222,0 q -14,0 -24.5,8.5 Q 622,-111 621,-98 L 593,86 q -49,16 -90,37 L 362,16 Q 352,7 337,7 323,7 312,18 186,132 147,186 q -7,10 -7,23 0,12 8,23 15,21 51,66.5 36,45.5 54,70.5 -27,50 -41,99 L 29,495 Q 16,497 8,507.5 0,518 0,531 l 0,222 q 0,12 8,23 8,11 19,13 l 186,28 q 14,46 39,92 -40,57 -107,138 -10,12 -10,24 0,10 9,23 26,36 98.5,107.5 72.5,71.5 94.5,71.5 13,0 26,-10 l 138,-107 q 44,23 91,38 16,136 29,186 7,28 36,28 l 222,0 q 14,0 24.5,-8.5 Q 914,1391 915,1378 l 28,-184 q 49,-16 90,-37 l 142,107 q 9,9 24,9 13,0 25,-10 129,-119 165,-170 7,-8 7,-22 0,-12 -8,-23 -15,-21 -51,-66.5 -36,-45.5 -54,-70.5 26,-50 41,-98 l 183,-28 q 13,-2 21,-12.5 8,-10.5 8,-23.5 z" />
          </g>
        </g>
        <g
           id="g4487"
           transform="translate(14.142136,103.03556)">
          <g
             style="fill:#e0e0d1;fill-opacity:1"
             id="g4165"
             transform="matrix(0.04687602,0,0,-0.04687602,305.24715,609.43566)">
            <path
               style="fill:#e0e0d1;fill-opacity:1"
               inkscape:connector-curvature="0"
               id="path4167"
               d="m 1024,640 q 0,106 -75,181 -75,75 -181,75 -106,0 -181,-75 -75,-75 -75,-181 0,-106 75,-181 75,-75 181,-75 106,0 181,75 75,75 75,181 z m 512,109 0,-222 q 0,-12 -8,-23 -8,-11 -20,-13 l -185,-28 q -19,-54 -39,-91 35,-50 107,-138 10,-12 10,-25 0,-13 -9,-23 -27,-37 -99,-108 -72,-71 -94,-71 -12,0 -26,9 l -138,108 q -44,-23 -91,-38 -16,-136 -29,-186 -7,-28 -36,-28 l -222,0 q -14,0 -24.5,8.5 Q 622,-111 621,-98 L 593,86 q -49,16 -90,37 L 362,16 Q 352,7 337,7 323,7 312,18 186,132 147,186 q -7,10 -7,23 0,12 8,23 15,21 51,66.5 36,45.5 54,70.5 -27,50 -41,99 L 29,495 Q 16,497 8,507.5 0,518 0,531 l 0,222 q 0,12 8,23 8,11 19,13 l 186,28 q 14,46 39,92 -40,57 -107,138 -10,12 -10,24 0,10 9,23 26,36 98.5,107.5 72.5,71.5 94.5,71.5 13,0 26,-10 l 138,-107 q 44,23 91,38 16,136 29,186 7,28 36,28 l 222,0 q 14,0 24.5,-8.5 Q 914,1391 915,1378 l 28,-184 q 49,-16 90,-37 l 142,107 q 9,9 24,9 13,0 25,-10 129,-119 165,-170 7,-8 7,-22 0,-12 -8,-23 -15,-21 -51,-66.5 -36,-45.5 -54,-70.5 26,-50 41,-98 l 183,-28 q 13,-2 21,-12.5 8,-10.5 8,-23.5 z" />
          </g>
          <g
             style="fill:#e0e0d1;fill-opacity:1"
             transform="matrix(0.02011557,-5.8377607e-4,-5.8377607e-4,-0.02011557,367.22654,567.04004)"
             id="g4169">
            <path
               d="m 1024,640 q 0,106 -75,181 -75,75 -181,75 -106,0 -181,-75 -75,-75 -75,-181 0,-106 75,-181 75,-75 181,-75 106,0 181,75 75,75 75,181 z m 512,109 0,-222 q 0,-12 -8,-23 -8,-11 -20,-13 l -185,-28 q -19,-54 -39,-91 35,-50 107,-138 10,-12 10,-25 0,-13 -9,-23 -27,-37 -99,-108 -72,-71 -94,-71 -12,0 -26,9 l -138,108 q -44,-23 -91,-38 -16,-136 -29,-186 -7,-28 -36,-28 l -222,0 q -14,0 -24.5,8.5 Q 622,-111 621,-98 L 593,86 q -49,16 -90,37 L 362,16 Q 352,7 337,7 323,7 312,18 186,132 147,186 q -7,10 -7,23 0,12 8,23 15,21 51,66.5 36,45.5 54,70.5 -27,50 -41,99 L 29,495 Q 16,497 8,507.5 0,518 0,531 l 0,222 q 0,12 8,23 8,11 19,13 l 186,28 q 14,46 39,92 -40,57 -107,138 -10,12 -10,24 0,10 9,23 26,36 98.5,107.5 72.5,71.5 94.5,71.5 13,0 26,-10 l 138,-107 q 44,23 91,38 16,136 29,186 7,28 36,28 l 222,0 q 14,0 24.5,-8.5 Q 914,1391 915,1378 l 28,-184 q 49,-16 90,-37 l 142,107 q 9,9 24,9 13,0 25,-10 129,-119 165,-170 7,-8 7,-22 0,-12 -8,-23 -15,-21 -51,-66.5 -36,-45.5 -54,-70.5 26,-50 41,-98 l 183,-28 q 13,-2 21,-12.5 8,-10.5 8,-23.5 z"
               id="path4171"
               inkscape:connector-curvature="0"
               style="fill:#e0e0d1;fill-opacity:1" />
          </g>
        </g>
      </g>
      <g
         id="flowRoot4459"
         style="font-style:normal;font-weight:normal;font-size:19.34154129px;line-height:125%;font-family:sans-serif;letter-spacing:0px;word-spacing:0px;fill:#000000;fill-opacity:1;stroke:none;stroke-width:1px;stroke-linecap:butt;stroke-linejoin:miter;stroke-opacity:1">
        <path
           id="path4503"
           style="font-style:normal;font-variant:normal;font-weight:bold;font-stretch:normal;font-family:Sawasdee;-inkscape-font-specification:'Sawasdee Bold'"
           d="m 306.25266,743.64469 1.20885,0.78386 q -2.40825,3.19211 -6.09145,3.19211 -1.49217,0 -2.86157,-0.56664 -1.35995,-0.56665 -2.35158,-1.52051 -0.98219,-0.95385 -1.56773,-2.27603 -0.58553,-1.33162 -0.58553,-2.79545 0,-1.46384 0.58553,-2.79546 0.58554,-1.33162 1.56773,-2.29492 0.99163,-0.9633 2.35158,-1.52995 1.3694,-0.56664 2.86157,-0.56664 0.75552,0 1.46383,0.14166 0.70831,0.14166 1.24663,0.35887 0.53831,0.20778 1.04829,0.51943 0.50998,0.31166 0.84997,0.59498 0.33999,0.27388 0.67053,0.62331 0.33055,0.33999 0.4911,0.53832 0.16055,0.18888 0.3211,0.41554 l -1.18996,0.85941 q -0.25499,-0.3211 -0.41554,-0.50998 -0.16055,-0.18888 -0.66109,-0.63276 -0.49109,-0.44387 -0.97274,-0.70831 -0.48165,-0.27387 -1.25607,-0.50053 -0.76497,-0.22666 -1.59605,-0.22666 -1.19941,0 -2.28548,0.45332 -1.08607,0.45331 -1.86993,1.21829 -0.78387,0.76497 -1.24663,1.83215 -0.45331,1.05774 -0.45331,2.22881 0,1.16163 0.45331,2.21937 0.46276,1.05774 1.23718,1.83216 0.78386,0.76497 1.86994,1.21829 1.09551,0.45332 2.29492,0.45332 0.82163,0 1.57716,-0.21722 0.76498,-0.21721 1.26551,-0.50054 0.50054,-0.28332 0.9633,-0.68942 0.47221,-0.40609 0.67053,-0.6422 0.20777,-0.2361 0.4061,-0.50998 z" />
        <path
           id="path4505"
           style="font-style:normal;font-variant:normal;font-weight:bold;font-stretch:normal;font-family:Sawasdee;-inkscape-font-specification:'Sawasdee Bold'"
           d="m 318.85111,740.22592 q 0.68942,1.1333 0.68942,2.47436 0,1.34106 -0.68942,2.47436 -0.68942,1.13329 -1.86994,1.79438 -1.18051,0.65164 -2.5688,0.65164 -1.39772,0 -2.58768,-0.65164 -1.18052,-0.66109 -1.86994,-1.79438 -0.68942,-1.1333 -0.68942,-2.47436 0,-1.34106 0.68942,-2.47436 0.68942,-1.14273 1.86994,-1.79438 1.18996,-0.66109 2.58768,-0.66109 1.38829,0 2.5688,0.66109 1.18052,0.65165 1.86994,1.79438 z m -8.07472,2.47436 q 0,1.46384 1.06719,2.4838 1.06718,1.01997 2.58768,1.01997 1.5205,0 2.59713,-1.01997 1.07663,-1.02941 1.07663,-2.4838 0,-1.44495 -1.07663,-2.46491 -1.07663,-1.02941 -2.59713,-1.02941 -1.5205,0 -2.58768,1.02941 -1.06719,1.01996 -1.06719,2.46491 z" />
        <path
           id="path4507"
           style="font-style:normal;font-variant:normal;font-weight:bold;font-stretch:normal;font-family:Sawasdee;-inkscape-font-specification:'Sawasdee Bold'"
           d="m 323.31817,739.77261 q 0.43443,-0.83109 1.16163,-1.39773 0.73664,-0.57609 1.45439,-0.57609 1.01052,0 1.67161,0.53831 0.66109,0.52887 0.97274,1.43551 0.52887,-0.85942 1.23718,-1.41662 0.71775,-0.5572 1.42606,-0.5572 0.60442,0 1.10496,0.22665 0.50054,0.21722 0.83108,0.58554 0.33055,0.36832 0.55721,0.8783 0.22666,0.50054 0.3211,1.05774 0.10388,0.54776 0.10388,1.14274 l 0,5.80813 -1.47328,0 0,-5.80813 q 0,-0.43443 -0.0756,-0.83108 -0.0661,-0.39665 -0.21722,-0.77442 -0.1511,-0.38721 -0.45331,-0.61387 -0.30222,-0.2361 -0.71776,-0.2361 -0.50998,0 -1.1144,0.61387 -0.59498,0.60442 -0.99163,1.4355 -0.38721,0.82164 -0.38721,1.43551 l 0,4.77872 -1.48273,0 0,-5.85535 q 0,-0.43443 -0.0661,-0.83108 -0.0661,-0.39665 -0.22666,-0.77442 -0.1511,-0.38721 -0.46276,-0.61387 -0.30221,-0.2361 -0.71775,-0.2361 -0.47221,0 -1.05774,0.59498 -0.58554,0.58553 -0.99163,1.42606 -0.4061,0.84053 -0.4061,1.49217 l 0,4.79761 -1.50161,0 0,-6.76198 q 0,-0.7272 -0.12278,-1.6055 -0.11333,-0.88775 -0.30221,-1.22774 l 1.67161,0 q 0.16999,0.5572 0.20777,0.86886 0.0472,0.30221 0.0472,1.00108 z" />
        <path
           id="path4509"
           style="font-style:normal;font-variant:normal;font-weight:bold;font-stretch:normal;font-family:Sawasdee;-inkscape-font-specification:'Sawasdee Bold'"
           d="m 336.4266,737.90267 1.67161,0 q 0.25499,0.80275 0.25499,1.48273 0.61386,-0.70831 1.46383,-1.16163 0.85942,-0.45332 1.6905,-0.45332 1.2844,0 2.34214,0.67998 1.06719,0.67998 1.66216,1.81327 0.60443,1.12385 0.60443,2.43658 0,1.31273 -0.60443,2.44603 -0.59497,1.12384 -1.66216,1.80382 -1.05774,0.67053 -2.34214,0.67053 -0.84053,0 -1.69994,-0.42498 -0.85941,-0.43443 -1.45439,-1.1333 l 0,5.88369 -1.50162,0 0,-11.22905 q 0,-0.71776 -0.12277,-1.6055 -0.11333,-0.88775 -0.30221,-1.20885 z m 1.9266,4.79761 q 0,1.47328 0.93496,2.49325 0.94442,1.01052 2.21937,1.01052 1.25607,0 2.20048,-1.01997 0.94441,-1.01996 0.94441,-2.4838 0,-1.46384 -0.94441,-2.4838 -0.94441,-1.02941 -2.20048,-1.02941 -1.27495,0 -2.21937,1.02941 -0.93496,1.01996 -0.93496,2.4838 z" />
        <path
           id="path4511"
           style="font-style:normal;font-variant:normal;font-weight:bold;font-stretch:normal;font-family:Sawasdee;-inkscape-font-specification:'Sawasdee Bold'"
           d="m 357.53419,740.22592 q 0.68942,1.1333 0.68942,2.47436 0,1.34106 -0.68942,2.47436 -0.68942,1.13329 -1.86994,1.79438 -1.18051,0.65164 -2.56879,0.65164 -1.39773,0 -2.58769,-0.65164 -1.18051,-0.66109 -1.86993,-1.79438 -0.68943,-1.1333 -0.68943,-2.47436 0,-1.34106 0.68943,-2.47436 0.68942,-1.14273 1.86993,-1.79438 1.18996,-0.66109 2.58769,-0.66109 1.38828,0 2.56879,0.66109 1.18052,0.65165 1.86994,1.79438 z m -8.07472,2.47436 q 0,1.46384 1.06719,2.4838 1.06718,1.01997 2.58768,1.01997 1.52051,0 2.59713,-1.01997 1.07663,-1.02941 1.07663,-2.4838 0,-1.44495 -1.07663,-2.46491 -1.07662,-1.02941 -2.59713,-1.02941 -1.5205,0 -2.58768,1.02941 -1.06719,1.01996 -1.06719,2.46491 z" />
        <path
           id="path4513"
           style="font-style:normal;font-variant:normal;font-weight:bold;font-stretch:normal;font-family:Sawasdee;-inkscape-font-specification:'Sawasdee Bold'"
           d="m 359.75355,737.90267 1.71883,0 2.37048,3.296 2.37047,-3.296 1.77549,0 -3.25822,4.55206 3.63599,5.04316 -1.7755,0 -2.7199,-3.80598 -2.72935,3.80598 -1.75661,0 3.6171,-5.04316 -3.24878,-4.55206 z" />
        <path
           id="path4515"
           style="font-style:normal;font-variant:normal;font-weight:bold;font-stretch:normal;font-family:Sawasdee;-inkscape-font-specification:'Sawasdee Bold'"
           d="m 369.90597,737.92156 1.50162,0 0,5.83646 q 0,1.0483 0.6422,1.74716 0.6422,0.69887 1.54883,0.69887 0.92552,0 1.59606,-0.69887 0.67997,-0.70831 0.67997,-1.74716 l 0,-5.83646 1.49217,0 0,5.83646 q 0,1.59606 -1.08607,2.73879 -1.07663,1.14274 -2.64435,1.14274 -1.56772,0 -2.6538,-1.14274 -1.07663,-1.14273 -1.07663,-2.73879 l 0,-5.83646 z" />
        <path
           id="path4517"
           style="font-style:normal;font-variant:normal;font-weight:bold;font-stretch:normal;font-family:Sawasdee;-inkscape-font-specification:'Sawasdee Bold'"
           d="m 381.50335,739.32873 q 1.01052,-1.13329 2.3138,-1.59605 l 1.87938,1.31273 q -0.81219,0 -1.47328,0.16999 -0.66109,0.16055 -1.08607,0.41554 -0.42499,0.24555 -0.74609,0.59498 -0.3211,0.34944 -0.48165,0.67054 -0.16055,0.32109 -0.26443,0.68942 -0.0944,0.35887 -0.12277,0.57609 -0.0189,0.21721 -0.0189,0.41554 l 0,4.92038 -1.47328,0 0,-6.76198 q 0,-0.70831 -0.13222,-1.6055 -0.12278,-0.89719 -0.29277,-1.22774 l 1.65272,0 q 0.24555,0.67053 0.24555,1.42606 z" />
        <path
           id="path4519"
           style="font-style:normal;font-variant:normal;font-weight:bold;font-stretch:normal;font-family:Sawasdee;-inkscape-font-specification:'Sawasdee Bold'"
           d="m 388.20867,741.62365 5.99701,0 q -0.30221,-1.07663 -1.14274,-1.74716 -0.83108,-0.67053 -1.85105,-0.67053 -1.00107,0 -1.8416,0.67053 -0.83108,0.67053 -1.16162,1.74716 z m -0.17,1.39773 q 0.11333,1.35995 1.02941,2.26659 0.91608,0.89719 2.10604,0.89719 0.93497,0 1.73771,-0.47221 0.80275,-0.48165 1.35051,-1.40717 l 1.2844,0.68942 q -0.36832,0.65164 -0.85941,1.15218 -0.4911,0.4911 -0.95386,0.76497 -0.46276,0.27388 -0.97274,0.44388 -0.50998,0.16999 -0.8783,0.21721 -0.35888,0.0472 -0.70831,0.0472 -1.2844,0 -2.35159,-0.67053 -1.06718,-0.67053 -1.6716,-1.79438 -0.59498,-1.13329 -0.59498,-2.45547 0,-1.31273 0.61386,-2.43658 0.61387,-1.13329 1.6905,-1.81327 1.07663,-0.67998 2.35158,-0.67998 1.2183,0 2.2477,0.61387 1.02941,0.61387 1.65272,1.65272 0.62331,1.02941 0.7272,2.25714 l 0.0378,0.7272 -7.83862,0 z" />
      </g>
    </g>
    <g
       id="g4538">
      <g
         id="flowRoot4477"
         style="font-style:normal;font-weight:normal;font-size:19.34154129px;line-height:125%;font-family:sans-serif;text-align:center;letter-spacing:0px;word-spacing:0px;text-anchor:middle;fill:#000000;fill-opacity:1;stroke:none;stroke-width:1px;stroke-linecap:butt;stroke-linejoin:miter;stroke-opacity:1"
         transform="translate(-56.857148,1)">
        <path
           id="path4522"
           style="font-style:normal;font-variant:normal;font-weight:bold;font-stretch:normal;font-family:Sawasdee;-inkscape-font-specification:'Sawasdee Bold';text-align:center;text-anchor:middle"
           d="m 602.35615,736.81218 1.47328,0 0,5.74202 q 0,1.06719 0.6422,1.78494 0.6422,0.71775 1.53939,0.71775 0.91608,0 1.57716,-0.71775 0.66109,-0.71775 0.66109,-1.78494 l 0,-5.74202 1.49217,0 0,5.74202 q 0,1.62439 -1.06718,2.79546 -1.06719,1.16163 -2.62547,1.16163 -1.23718,0 -2.21936,-0.77442 l 0,3.126 q 0,0.65165 0.3211,1.33162 l 0.1511,0.27388 -1.2844,0.67998 -0.1511,-0.28333 q -0.50998,-0.8783 -0.50998,-1.97382 l 0,-12.07902 z" />
        <path
           id="path4524"
           style="font-style:normal;font-variant:normal;font-weight:bold;font-stretch:normal;font-family:Sawasdee;-inkscape-font-specification:'Sawasdee Bold';text-align:center;text-anchor:middle"
           d="m 620.57384,735.1878 -1.40717,0.48165 -0.10389,-0.31166 q -0.30221,-0.84997 -0.9633,-1.29384 -0.66109,-0.44388 -1.44495,-0.44388 -0.91608,0 -1.49217,0.58554 -0.57609,0.57609 -0.57609,1.40717 0,0.44388 0.22666,0.80275 0.2361,0.35888 0.62331,0.61387 0.38721,0.25499 0.89719,0.49109 0.50998,0.22666 1.06719,0.46276 0.5572,0.22666 1.1144,0.48165 0.5572,0.24555 1.06719,0.59498 0.50998,0.33999 0.89719,0.76498 0.38721,0.41554 0.61386,1.0294 0.23611,0.60443 0.23611,1.34107 0,1.25607 -0.67054,2.27603 -0.67053,1.01052 -1.73771,1.54883 -1.06719,0.52887 -2.28548,0.52887 -0.80275,0 -1.53939,-0.25499 -0.73664,-0.25499 -1.37884,-0.75553 -0.63275,-0.50053 -1.08607,-1.33162 -0.45332,-0.84052 -0.60442,-1.91715 l -0.0472,-0.3211 1.48272,-0.17944 0.0472,0.30221 q 0.11333,0.76498 0.41554,1.35996 0.30221,0.58553 0.7272,0.93496 0.42498,0.33999 0.92552,0.51943 0.50054,0.16999 1.05774,0.16999 1.29385,0 2.2477,-0.81219 0.9633,-0.81219 0.9633,-2.10604 0,-0.69886 -0.37776,-1.22773 -0.36832,-0.52887 -0.9633,-0.85942 -0.58554,-0.33998 -1.30329,-0.63275 -0.71775,-0.30221 -1.44495,-0.62331 -0.71775,-0.3211 -1.31273,-0.71776 -0.58554,-0.39665 -0.9633,-1.0294 -0.36832,-0.6422 -0.36832,-1.48273 0,-1.42606 0.99163,-2.42714 0.99163,-1.01052 2.54991,-1.01052 1.23718,0 2.29492,0.71776 1.05774,0.71775 1.51106,2.02104 l 0.11333,0.30221 z" />
        <path
           id="path4526"
           style="font-style:normal;font-variant:normal;font-weight:bold;font-stretch:normal;font-family:Sawasdee;-inkscape-font-specification:'Sawasdee Bold';text-align:center;text-anchor:middle"
           d="m 624.81424,740.51428 5.99702,0 q -0.30222,-1.07663 -1.14274,-1.74716 -0.83108,-0.67054 -1.85105,-0.67054 -1.00107,0 -1.8416,0.67054 -0.83108,0.67053 -1.16163,1.74716 z m -0.16999,1.39773 q 0.11333,1.35995 1.02941,2.26658 0.91608,0.89719 2.10604,0.89719 0.93496,0 1.73771,-0.4722 0.80275,-0.48165 1.35051,-1.40718 l 1.2844,0.68942 q -0.36832,0.65165 -0.85942,1.15219 -0.49109,0.49109 -0.95385,0.76497 -0.46276,0.27388 -0.97274,0.44387 -0.50999,0.17 -0.87831,0.21722 -0.35887,0.0472 -0.7083,0.0472 -1.2844,0 -2.35159,-0.67053 -1.06718,-0.67054 -1.67161,-1.79439 -0.59498,-1.13329 -0.59498,-2.45546 0,-1.31274 0.61387,-2.43659 0.61387,-1.13329 1.6905,-1.81326 1.07663,-0.67998 2.35158,-0.67998 1.21829,0 2.2477,0.61387 1.02941,0.61386 1.65272,1.65272 0.62331,1.0294 0.7272,2.25714 l 0.0378,0.7272 -7.83861,0 z" />
        <path
           id="path4528"
           style="font-style:normal;font-variant:normal;font-weight:bold;font-stretch:normal;font-family:Sawasdee;-inkscape-font-specification:'Sawasdee Bold';text-align:center;text-anchor:middle"
           d="m 636.24162,738.21936 q 1.01052,-1.1333 2.31381,-1.59606 l 1.87938,1.31273 q -0.8122,0 -1.47329,0.17 -0.66108,0.16055 -1.08607,0.41554 -0.42498,0.24555 -0.74608,0.59498 -0.3211,0.34943 -0.48165,0.67053 -0.16055,0.3211 -0.26444,0.68942 -0.0944,0.35888 -0.12277,0.57609 -0.0189,0.21722 -0.0189,0.41554 l 0,4.92038 -1.47328,0 0,-6.76198 q 0,-0.70831 -0.13222,-1.6055 -0.12277,-0.89719 -0.29277,-1.22773 l 1.65272,0 q 0.24555,0.67053 0.24555,1.42606 z" />
        <path
           id="path4530"
           style="font-style:normal;font-variant:normal;font-weight:bold;font-stretch:normal;font-family:Sawasdee;-inkscape-font-specification:'Sawasdee Bold';text-align:center;text-anchor:middle"
           d="m 640.6048,736.7933 1.6055,0 2.93712,6.06312 2.94656,-6.06312 1.61494,0 -4.52373,9.73688 -4.58039,-9.73688 z" />
        <path
           id="path4532"
           style="font-style:normal;font-variant:normal;font-weight:bold;font-stretch:normal;font-family:Sawasdee;-inkscape-font-specification:'Sawasdee Bold';text-align:center;text-anchor:middle"
           d="m 651.98496,733.68618 q 0.44387,0 0.75552,0.30222 0.3211,0.30221 0.3211,0.73664 0,0.42498 -0.3211,0.71775 -0.31165,0.29277 -0.75552,0.29277 -0.46277,0 -0.77442,-0.29277 -0.31166,-0.29277 -0.31166,-0.71775 0,-0.43443 0.31166,-0.73664 0.3211,-0.30222 0.77442,-0.30222 z m 0.72719,12.70233 -1.49217,0 0,-9.57633 1.49217,0 0,9.57633 z" />
        <path
           id="path4534"
           style="font-style:normal;font-variant:normal;font-weight:bold;font-stretch:normal;font-family:Sawasdee;-inkscape-font-specification:'Sawasdee Bold';text-align:center;text-anchor:middle"
           d="m 662.35459,743.1964 1.29384,0.68942 q -1.5205,2.62547 -4.09874,2.62547 -1.2844,0 -2.35159,-0.67053 -1.06718,-0.67054 -1.67161,-1.79439 -0.59497,-1.13329 -0.59497,-2.45546 0,-1.31274 0.59497,-2.43659 0.60443,-1.13329 1.67161,-1.81326 1.06719,-0.67998 2.35159,-0.67998 0.52887,0 1.0294,0.13222 0.50054,0.12277 0.84997,0.29276 0.35888,0.16055 0.71776,0.45332 0.36832,0.29277 0.56664,0.48165 0.19833,0.18888 0.43443,0.51943 0.24555,0.33054 0.30221,0.42498 0.0567,0.0944 0.19833,0.3211 l -1.29384,0.7272 q -0.14166,-0.25499 -0.26444,-0.42499 -0.11333,-0.17943 -0.38721,-0.48165 -0.26443,-0.30221 -0.54775,-0.49109 -0.27388,-0.19833 -0.69887,-0.33999 -0.42498,-0.1511 -0.90663,-0.1511 -1.2844,0 -2.22881,0.99163 -0.93497,0.99163 -0.93497,2.45547 0,1.46383 0.94441,2.4838 0.95386,1.01996 2.21937,1.01996 0.50053,0 0.95385,-0.16999 0.45332,-0.17 0.7272,-0.35888 0.27388,-0.18888 0.54776,-0.51942 0.28332,-0.33999 0.35887,-0.46277 0.0756,-0.12277 0.21722,-0.36832 z" />
        <path
           id="path4536"
           style="font-style:normal;font-variant:normal;font-weight:bold;font-stretch:normal;font-family:Sawasdee;-inkscape-font-specification:'Sawasdee Bold';text-align:center;text-anchor:middle"
           d="m 667.08609,740.51428 5.99701,0 q -0.30221,-1.07663 -1.14274,-1.74716 -0.83108,-0.67054 -1.85104,-0.67054 -1.00108,0 -1.84161,0.67054 -0.83108,0.67053 -1.16162,1.74716 z m -0.17,1.39773 q 0.11333,1.35995 1.02941,2.26658 0.91608,0.89719 2.10604,0.89719 0.93497,0 1.73772,-0.4722 0.80275,-0.48165 1.3505,-1.40718 l 1.2844,0.68942 q -0.36832,0.65165 -0.85941,1.15219 -0.49109,0.49109 -0.95386,0.76497 -0.46276,0.27388 -0.97274,0.44387 -0.50998,0.17 -0.8783,0.21722 -0.35888,0.0472 -0.70831,0.0472 -1.2844,0 -2.35158,-0.67053 -1.06719,-0.67054 -1.67161,-1.79439 -0.59498,-1.13329 -0.59498,-2.45546 0,-1.31274 0.61387,-2.43659 0.61386,-1.13329 1.69049,-1.81326 1.07663,-0.67998 2.35159,-0.67998 1.21829,0 2.2477,0.61387 1.0294,0.61386 1.65271,1.65272 0.62332,1.0294 0.7272,2.25714 l 0.0378,0.7272 -7.83862,0 z" />
      </g>
      <g
         transform="translate(2.28571,1)"
         id="g5343">
        <rect
           style="opacity:1;fill:#e0e0d1;fill-opacity:1;stroke:none;stroke-width:1;stroke-linecap:round;stroke-linejoin:round;stroke-miterlimit:4;stroke-dasharray:none;stroke-dashoffset:0;stroke-opacity:1"
           id="rect4449"
           width="106.65392"
           height="102.48667"
           x="527.6897"
           y="625.5368"
           ry="15.675912" />
        <g
           id="g5233"
           transform="translate(91.428571,136.42857)">
          <g
             id="g5203"
             transform="translate(139.00367,-38.86003)"
             style="fill:#000000;fill-opacity:1;filter:url(#filter4735)">
            <g
               transform="matrix(0.04687602,0,0,-0.04687602,305.24715,609.43566)"
               id="g5205"
               style="fill:#000000;fill-opacity:1">
              <path
                 d="m 1024,640 q 0,106 -75,181 -75,75 -181,75 -106,0 -181,-75 -75,-75 -75,-181 0,-106 75,-181 75,-75 181,-75 106,0 181,75 75,75 75,181 z m 512,109 0,-222 q 0,-12 -8,-23 -8,-11 -20,-13 l -185,-28 q -19,-54 -39,-91 35,-50 107,-138 10,-12 10,-25 0,-13 -9,-23 -27,-37 -99,-108 -72,-71 -94,-71 -12,0 -26,9 l -138,108 q -44,-23 -91,-38 -16,-136 -29,-186 -7,-28 -36,-28 l -222,0 q -14,0 -24.5,8.5 Q 622,-111 621,-98 L 593,86 q -49,16 -90,37 L 362,16 Q 352,7 337,7 323,7 312,18 186,132 147,186 q -7,10 -7,23 0,12 8,23 15,21 51,66.5 36,45.5 54,70.5 -27,50 -41,99 L 29,495 Q 16,497 8,507.5 0,518 0,531 l 0,222 q 0,12 8,23 8,11 19,13 l 186,28 q 14,46 39,92 -40,57 -107,138 -10,12 -10,24 0,10 9,23 26,36 98.5,107.5 72.5,71.5 94.5,71.5 13,0 26,-10 l 138,-107 q 44,23 91,38 16,136 29,186 7,28 36,28 l 222,0 q 14,0 24.5,-8.5 Q 914,1391 915,1378 l 28,-184 q 49,-16 90,-37 l 142,107 q 9,9 24,9 13,0 25,-10 129,-119 165,-170 7,-8 7,-22 0,-12 -8,-23 -15,-21 -51,-66.5 -36,-45.5 -54,-70.5 26,-50 41,-98 l 183,-28 q 13,-2 21,-12.5 8,-10.5 8,-23.5 z"
                 id="path5207"
                 inkscape:connector-curvature="0"
                 style="fill:#000000;fill-opacity:1" />
            </g>
            <g
               id="g5209"
               transform="matrix(0.02011557,-5.8377607e-4,-5.8377607e-4,-0.02011557,367.22654,567.04004)"
               style="fill:#000000;fill-opacity:1">
              <path
                 style="fill:#000000;fill-opacity:1"
                 inkscape:connector-curvature="0"
                 id="path5211"
                 d="m 1024,640 q 0,106 -75,181 -75,75 -181,75 -106,0 -181,-75 -75,-75 -75,-181 0,-106 75,-181 75,-75 181,-75 106,0 181,75 75,75 75,181 z m 512,109 0,-222 q 0,-12 -8,-23 -8,-11 -20,-13 l -185,-28 q -19,-54 -39,-91 35,-50 107,-138 10,-12 10,-25 0,-13 -9,-23 -27,-37 -99,-108 -72,-71 -94,-71 -12,0 -26,9 l -138,108 q -44,-23 -91,-38 -16,-136 -29,-186 -7,-28 -36,-28 l -222,0 q -14,0 -24.5,8.5 Q 622,-111 621,-98 L 593,86 q -49,16 -90,37 L 362,16 Q 352,7 337,7 323,7 312,18 186,132 147,186 q -7,10 -7,23 0,12 8,23 15,21 51,66.5 36,45.5 54,70.5 -27,50 -41,99 L 29,495 Q 16,497 8,507.5 0,518 0,531 l 0,222 q 0,12 8,23 8,11 19,13 l 186,28 q 14,46 39,92 -40,57 -107,138 -10,12 -10,24 0,10 9,23 26,36 98.5,107.5 72.5,71.5 94.5,71.5 13,0 26,-10 l 138,-107 q 44,23 91,38 16,136 29,186 7,28 36,28 l 222,0 q 14,0 24.5,-8.5 Q 914,1391 915,1378 l 28,-184 q 49,-16 90,-37 l 142,107 q 9,9 24,9 13,0 25,-10 129,-119 165,-170 7,-8 7,-22 0,-12 -8,-23 -15,-21 -51,-66.5 -36,-45.5 -54,-70.5 26,-50 41,-98 l 183,-28 q 13,-2 21,-12.5 8,-10.5 8,-23.5 z" />
            </g>
          </g>
          <g
             style="fill:#77b3d4;fill-opacity:1"
             id="g5213"
             transform="translate(134.85643,-38.39301)">
            <g
               style="fill:#77b3d4;fill-opacity:1"
               id="g5215"
               transform="matrix(0.04687602,0,0,-0.04687602,305.24715,609.43566)">
              <path
                 style="fill:#77b3d4;fill-opacity:1"
                 inkscape:connector-curvature="0"
                 id="path5217"
                 d="m 1024,640 q 0,106 -75,181 -75,75 -181,75 -106,0 -181,-75 -75,-75 -75,-181 0,-106 75,-181 75,-75 181,-75 106,0 181,75 75,75 75,181 z m 512,109 0,-222 q 0,-12 -8,-23 -8,-11 -20,-13 l -185,-28 q -19,-54 -39,-91 35,-50 107,-138 10,-12 10,-25 0,-13 -9,-23 -27,-37 -99,-108 -72,-71 -94,-71 -12,0 -26,9 l -138,108 q -44,-23 -91,-38 -16,-136 -29,-186 -7,-28 -36,-28 l -222,0 q -14,0 -24.5,8.5 Q 622,-111 621,-98 L 593,86 q -49,16 -90,37 L 362,16 Q 352,7 337,7 323,7 312,18 186,132 147,186 q -7,10 -7,23 0,12 8,23 15,21 51,66.5 36,45.5 54,70.5 -27,50 -41,99 L 29,495 Q 16,497 8,507.5 0,518 0,531 l 0,222 q 0,12 8,23 8,11 19,13 l 186,28 q 14,46 39,92 -40,57 -107,138 -10,12 -10,24 0,10 9,23 26,36 98.5,107.5 72.5,71.5 94.5,71.5 13,0 26,-10 l 138,-107 q 44,23 91,38 16,136 29,186 7,28 36,28 l 222,0 q 14,0 24.5,-8.5 Q 914,1391 915,1378 l 28,-184 q 49,-16 90,-37 l 142,107 q 9,9 24,9 13,0 25,-10 129,-119 165,-170 7,-8 7,-22 0,-12 -8,-23 -15,-21 -51,-66.5 -36,-45.5 -54,-70.5 26,-50 41,-98 l 183,-28 q 13,-2 21,-12.5 8,-10.5 8,-23.5 z" />
            </g>
            <g
               style="fill:#77b3d4;fill-opacity:1"
               transform="matrix(0.02011557,-5.8377607e-4,-5.8377607e-4,-0.02011557,367.22654,567.04004)"
               id="g5219">
              <path
                 d="m 1024,640 q 0,106 -75,181 -75,75 -181,75 -106,0 -181,-75 -75,-75 -75,-181 0,-106 75,-181 75,-75 181,-75 106,0 181,75 75,75 75,181 z m 512,109 0,-222 q 0,-12 -8,-23 -8,-11 -20,-13 l -185,-28 q -19,-54 -39,-91 35,-50 107,-138 10,-12 10,-25 0,-13 -9,-23 -27,-37 -99,-108 -72,-71 -94,-71 -12,0 -26,9 l -138,108 q -44,-23 -91,-38 -16,-136 -29,-186 -7,-28 -36,-28 l -222,0 q -14,0 -24.5,8.5 Q 622,-111 621,-98 L 593,86 q -49,16 -90,37 L 362,16 Q 352,7 337,7 323,7 312,18 186,132 147,186 q -7,10 -7,23 0,12 8,23 15,21 51,66.5 36,45.5 54,70.5 -27,50 -41,99 L 29,495 Q 16,497 8,507.5 0,518 0,531 l 0,222 q 0,12 8,23 8,11 19,13 l 186,28 q 14,46 39,92 -40,57 -107,138 -10,12 -10,24 0,10 9,23 26,36 98.5,107.5 72.5,71.5 94.5,71.5 13,0 26,-10 l 138,-107 q 44,23 91,38 16,136 29,186 7,28 36,28 l 222,0 q 14,0 24.5,-8.5 Q 914,1391 915,1378 l 28,-184 q 49,-16 90,-37 l 142,107 q 9,9 24,9 13,0 25,-10 129,-119 165,-170 7,-8 7,-22 0,-12 -8,-23 -15,-21 -51,-66.5 -36,-45.5 -54,-70.5 26,-50 41,-98 l 183,-28 q 13,-2 21,-12.5 8,-10.5 8,-23.5 z"
                 id="path5221"
                 inkscape:connector-curvature="0"
                 style="fill:#77b3d4;fill-opacity:1" />
            </g>
          </g>
        </g>
      </g>
    </g>
    <g
       id="g5426"
       transform="matrix(0.38753617,0,0,0.38753617,102.8179,297.58017)">
      <g
         transform="translate(-51.428571,-127.85714)"
         id="g5428">
        <rect
           ry="15.675912"
           y="625.5368"
           x="527.6897"
           height="102.48667"
           width="106.65392"
           id="rect5430"
           style="opacity:1;fill:#e0e0d1;fill-opacity:1;stroke:none;stroke-width:1;stroke-linecap:round;stroke-linejoin:round;stroke-miterlimit:4;stroke-dasharray:none;stroke-dashoffset:0;stroke-opacity:1" />
        <g
           transform="translate(91.428571,136.42857)"
           id="g5432">
          <g
             style="fill:#000000;fill-opacity:1;filter:url(#filter4735)"
             transform="translate(139.00367,-38.86003)"
             id="g5434">
            <g
               style="fill:#000000;fill-opacity:1"
               id="g5436"
               transform="matrix(0.04687602,0,0,-0.04687602,305.24715,609.43566)">
              <path
                 style="fill:#000000;fill-opacity:1"
                 inkscape:connector-curvature="0"
                 id="path5438"
                 d="m 1024,640 q 0,106 -75,181 -75,75 -181,75 -106,0 -181,-75 -75,-75 -75,-181 0,-106 75,-181 75,-75 181,-75 106,0 181,75 75,75 75,181 z m 512,109 0,-222 q 0,-12 -8,-23 -8,-11 -20,-13 l -185,-28 q -19,-54 -39,-91 35,-50 107,-138 10,-12 10,-25 0,-13 -9,-23 -27,-37 -99,-108 -72,-71 -94,-71 -12,0 -26,9 l -138,108 q -44,-23 -91,-38 -16,-136 -29,-186 -7,-28 -36,-28 l -222,0 q -14,0 -24.5,8.5 Q 622,-111 621,-98 L 593,86 q -49,16 -90,37 L 362,16 Q 352,7 337,7 323,7 312,18 186,132 147,186 q -7,10 -7,23 0,12 8,23 15,21 51,66.5 36,45.5 54,70.5 -27,50 -41,99 L 29,495 Q 16,497 8,507.5 0,518 0,531 l 0,222 q 0,12 8,23 8,11 19,13 l 186,28 q 14,46 39,92 -40,57 -107,138 -10,12 -10,24 0,10 9,23 26,36 98.5,107.5 72.5,71.5 94.5,71.5 13,0 26,-10 l 138,-107 q 44,23 91,38 16,136 29,186 7,28 36,28 l 222,0 q 14,0 24.5,-8.5 Q 914,1391 915,1378 l 28,-184 q 49,-16 90,-37 l 142,107 q 9,9 24,9 13,0 25,-10 129,-119 165,-170 7,-8 7,-22 0,-12 -8,-23 -15,-21 -51,-66.5 -36,-45.5 -54,-70.5 26,-50 41,-98 l 183,-28 q 13,-2 21,-12.5 8,-10.5 8,-23.5 z" />
            </g>
            <g
               style="fill:#000000;fill-opacity:1"
               transform="matrix(0.02011557,-5.8377607e-4,-5.8377607e-4,-0.02011557,367.22654,567.04004)"
               id="g5440">
              <path
                 d="m 1024,640 q 0,106 -75,181 -75,75 -181,75 -106,0 -181,-75 -75,-75 -75,-181 0,-106 75,-181 75,-75 181,-75 106,0 181,75 75,75 75,181 z m 512,109 0,-222 q 0,-12 -8,-23 -8,-11 -20,-13 l -185,-28 q -19,-54 -39,-91 35,-50 107,-138 10,-12 10,-25 0,-13 -9,-23 -27,-37 -99,-108 -72,-71 -94,-71 -12,0 -26,9 l -138,108 q -44,-23 -91,-38 -16,-136 -29,-186 -7,-28 -36,-28 l -222,0 q -14,0 -24.5,8.5 Q 622,-111 621,-98 L 593,86 q -49,16 -90,37 L 362,16 Q 352,7 337,7 323,7 312,18 186,132 147,186 q -7,10 -7,23 0,12 8,23 15,21 51,66.5 36,45.5 54,70.5 -27,50 -41,99 L 29,495 Q 16,497 8,507.5 0,518 0,531 l 0,222 q 0,12 8,23 8,11 19,13 l 186,28 q 14,46 39,92 -40,57 -107,138 -10,12 -10,24 0,10 9,23 26,36 98.5,107.5 72.5,71.5 94.5,71.5 13,0 26,-10 l 138,-107 q 44,23 91,38 16,136 29,186 7,28 36,28 l 222,0 q 14,0 24.5,-8.5 Q 914,1391 915,1378 l 28,-184 q 49,-16 90,-37 l 142,107 q 9,9 24,9 13,0 25,-10 129,-119 165,-170 7,-8 7,-22 0,-12 -8,-23 -15,-21 -51,-66.5 -36,-45.5 -54,-70.5 26,-50 41,-98 l 183,-28 q 13,-2 21,-12.5 8,-10.5 8,-23.5 z"
                 id="path5442"
                 inkscape:connector-curvature="0"
                 style="fill:#000000;fill-opacity:1" />
            </g>
          </g>
          <g
             transform="translate(134.85643,-38.39301)"
             id="g5444"
             style="fill:#77b3d4;fill-opacity:1">
            <g
               transform="matrix(0.04687602,0,0,-0.04687602,305.24715,609.43566)"
               id="g5446"
               style="fill:#77b3d4;fill-opacity:1">
              <path
                 d="m 1024,640 q 0,106 -75,181 -75,75 -181,75 -106,0 -181,-75 -75,-75 -75,-181 0,-106 75,-181 75,-75 181,-75 106,0 181,75 75,75 75,181 z m 512,109 0,-222 q 0,-12 -8,-23 -8,-11 -20,-13 l -185,-28 q -19,-54 -39,-91 35,-50 107,-138 10,-12 10,-25 0,-13 -9,-23 -27,-37 -99,-108 -72,-71 -94,-71 -12,0 -26,9 l -138,108 q -44,-23 -91,-38 -16,-136 -29,-186 -7,-28 -36,-28 l -222,0 q -14,0 -24.5,8.5 Q 622,-111 621,-98 L 593,86 q -49,16 -90,37 L 362,16 Q 352,7 337,7 323,7 312,18 186,132 147,186 q -7,10 -7,23 0,12 8,23 15,21 51,66.5 36,45.5 54,70.5 -27,50 -41,99 L 29,495 Q 16,497 8,507.5 0,518 0,531 l 0,222 q 0,12 8,23 8,11 19,13 l 186,28 q 14,46 39,92 -40,57 -107,138 -10,12 -10,24 0,10 9,23 26,36 98.5,107.5 72.5,71.5 94.5,71.5 13,0 26,-10 l 138,-107 q 44,23 91,38 16,136 29,186 7,28 36,28 l 222,0 q 14,0 24.5,-8.5 Q 914,1391 915,1378 l 28,-184 q 49,-16 90,-37 l 142,107 q 9,9 24,9 13,0 25,-10 129,-119 165,-170 7,-8 7,-22 0,-12 -8,-23 -15,-21 -51,-66.5 -36,-45.5 -54,-70.5 26,-50 41,-98 l 183,-28 q 13,-2 21,-12.5 8,-10.5 8,-23.5 z"
                 id="path5448"
                 inkscape:connector-curvature="0"
                 style="fill:#77b3d4;fill-opacity:1" />
            </g>
            <g
               id="g5450"
               transform="matrix(0.02011557,-5.8377607e-4,-5.8377607e-4,-0.02011557,367.22654,567.04004)"
               style="fill:#77b3d4;fill-opacity:1">
              <path
                 style="fill:#77b3d4;fill-opacity:1"
                 inkscape:connector-curvature="0"
                 id="path5452"
                 d="m 1024,640 q 0,106 -75,181 -75,75 -181,75 -106,0 -181,-75 -75,-75 -75,-181 0,-106 75,-181 75,-75 181,-75 106,0 181,75 75,75 75,181 z m 512,109 0,-222 q 0,-12 -8,-23 -8,-11 -20,-13 l -185,-28 q -19,-54 -39,-91 35,-50 107,-138 10,-12 10,-25 0,-13 -9,-23 -27,-37 -99,-108 -72,-71 -94,-71 -12,0 -26,9 l -138,108 q -44,-23 -91,-38 -16,-136 -29,-186 -7,-28 -36,-28 l -222,0 q -14,0 -24.5,8.5 Q 622,-111 621,-98 L 593,86 q -49,16 -90,37 L 362,16 Q 352,7 337,7 323,7 312,18 186,132 147,186 q -7,10 -7,23 0,12 8,23 15,21 51,66.5 36,45.5 54,70.5 -27,50 -41,99 L 29,495 Q 16,497 8,507.5 0,518 0,531 l 0,222 q 0,12 8,23 8,11 19,13 l 186,28 q 14,46 39,92 -40,57 -107,138 -10,12 -10,24 0,10 9,23 26,36 98.5,107.5 72.5,71.5 94.5,71.5 13,0 26,-10 l 138,-107 q 44,23 91,38 16,136 29,186 7,28 36,28 l 222,0 q 14,0 24.5,-8.5 Q 914,1391 915,1378 l 28,-184 q 49,-16 90,-37 l 142,107 q 9,9 24,9 13,0 25,-10 129,-119 165,-170 7,-8 7,-22 0,-12 -8,-23 -15,-21 -51,-66.5 -36,-45.5 -54,-70.5 26,-50 41,-98 l 183,-28 q 13,-2 21,-12.5 8,-10.5 8,-23.5 z" />
            </g>
          </g>
        </g>
      </g>
    </g>
    <g
       transform="matrix(0.38753617,0,0,0.38753617,177.90573,299.00875)"
       id="g5454">
      <g
         id="g5456"
         transform="translate(-51.428571,-127.85714)">
        <rect
           style="opacity:1;fill:#e0e0d1;fill-opacity:1;stroke:none;stroke-width:1;stroke-linecap:round;stroke-linejoin:round;stroke-miterlimit:4;stroke-dasharray:none;stroke-dashoffset:0;stroke-opacity:1"
           id="rect5458"
           width="106.65392"
           height="102.48667"
           x="527.6897"
           y="625.5368"
           ry="15.675912" />
        <g
           id="g5460"
           transform="translate(91.428571,136.42857)">
          <g
             id="g5462"
             transform="translate(139.00367,-38.86003)"
             style="fill:#000000;fill-opacity:1;filter:url(#filter4735)">
            <g
               transform="matrix(0.04687602,0,0,-0.04687602,305.24715,609.43566)"
               id="g5464"
               style="fill:#000000;fill-opacity:1">
              <path
                 d="m 1024,640 q 0,106 -75,181 -75,75 -181,75 -106,0 -181,-75 -75,-75 -75,-181 0,-106 75,-181 75,-75 181,-75 106,0 181,75 75,75 75,181 z m 512,109 0,-222 q 0,-12 -8,-23 -8,-11 -20,-13 l -185,-28 q -19,-54 -39,-91 35,-50 107,-138 10,-12 10,-25 0,-13 -9,-23 -27,-37 -99,-108 -72,-71 -94,-71 -12,0 -26,9 l -138,108 q -44,-23 -91,-38 -16,-136 -29,-186 -7,-28 -36,-28 l -222,0 q -14,0 -24.5,8.5 Q 622,-111 621,-98 L 593,86 q -49,16 -90,37 L 362,16 Q 352,7 337,7 323,7 312,18 186,132 147,186 q -7,10 -7,23 0,12 8,23 15,21 51,66.5 36,45.5 54,70.5 -27,50 -41,99 L 29,495 Q 16,497 8,507.5 0,518 0,531 l 0,222 q 0,12 8,23 8,11 19,13 l 186,28 q 14,46 39,92 -40,57 -107,138 -10,12 -10,24 0,10 9,23 26,36 98.5,107.5 72.5,71.5 94.5,71.5 13,0 26,-10 l 138,-107 q 44,23 91,38 16,136 29,186 7,28 36,28 l 222,0 q 14,0 24.5,-8.5 Q 914,1391 915,1378 l 28,-184 q 49,-16 90,-37 l 142,107 q 9,9 24,9 13,0 25,-10 129,-119 165,-170 7,-8 7,-22 0,-12 -8,-23 -15,-21 -51,-66.5 -36,-45.5 -54,-70.5 26,-50 41,-98 l 183,-28 q 13,-2 21,-12.5 8,-10.5 8,-23.5 z"
                 id="path5466"
                 inkscape:connector-curvature="0"
                 style="fill:#000000;fill-opacity:1" />
            </g>
            <g
               id="g5468"
               transform="matrix(0.02011557,-5.8377607e-4,-5.8377607e-4,-0.02011557,367.22654,567.04004)"
               style="fill:#000000;fill-opacity:1">
              <path
                 style="fill:#000000;fill-opacity:1"
                 inkscape:connector-curvature="0"
                 id="path5470"
                 d="m 1024,640 q 0,106 -75,181 -75,75 -181,75 -106,0 -181,-75 -75,-75 -75,-181 0,-106 75,-181 75,-75 181,-75 106,0 181,75 75,75 75,181 z m 512,109 0,-222 q 0,-12 -8,-23 -8,-11 -20,-13 l -185,-28 q -19,-54 -39,-91 35,-50 107,-138 10,-12 10,-25 0,-13 -9,-23 -27,-37 -99,-108 -72,-71 -94,-71 -12,0 -26,9 l -138,108 q -44,-23 -91,-38 -16,-136 -29,-186 -7,-28 -36,-28 l -222,0 q -14,0 -24.5,8.5 Q 622,-111 621,-98 L 593,86 q -49,16 -90,37 L 362,16 Q 352,7 337,7 323,7 312,18 186,132 147,186 q -7,10 -7,23 0,12 8,23 15,21 51,66.5 36,45.5 54,70.5 -27,50 -41,99 L 29,495 Q 16,497 8,507.5 0,518 0,531 l 0,222 q 0,12 8,23 8,11 19,13 l 186,28 q 14,46 39,92 -40,57 -107,138 -10,12 -10,24 0,10 9,23 26,36 98.5,107.5 72.5,71.5 94.5,71.5 13,0 26,-10 l 138,-107 q 44,23 91,38 16,136 29,186 7,28 36,28 l 222,0 q 14,0 24.5,-8.5 Q 914,1391 915,1378 l 28,-184 q 49,-16 90,-37 l 142,107 q 9,9 24,9 13,0 25,-10 129,-119 165,-170 7,-8 7,-22 0,-12 -8,-23 -15,-21 -51,-66.5 -36,-45.5 -54,-70.5 26,-50 41,-98 l 183,-28 q 13,-2 21,-12.5 8,-10.5 8,-23.5 z" />
            </g>
          </g>
          <g
             style="fill:#77b3d4;fill-opacity:1"
             id="g5472"
             transform="translate(134.85643,-38.39301)">
            <g
               style="fill:#77b3d4;fill-opacity:1"
               id="g5474"
               transform="matrix(0.04687602,0,0,-0.04687602,305.24715,609.43566)">
              <path
                 style="fill:#77b3d4;fill-opacity:1"
                 inkscape:connector-curvature="0"
                 id="path5476"
                 d="m 1024,640 q 0,106 -75,181 -75,75 -181,75 -106,0 -181,-75 -75,-75 -75,-181 0,-106 75,-181 75,-75 181,-75 106,0 181,75 75,75 75,181 z m 512,109 0,-222 q 0,-12 -8,-23 -8,-11 -20,-13 l -185,-28 q -19,-54 -39,-91 35,-50 107,-138 10,-12 10,-25 0,-13 -9,-23 -27,-37 -99,-108 -72,-71 -94,-71 -12,0 -26,9 l -138,108 q -44,-23 -91,-38 -16,-136 -29,-186 -7,-28 -36,-28 l -222,0 q -14,0 -24.5,8.5 Q 622,-111 621,-98 L 593,86 q -49,16 -90,37 L 362,16 Q 352,7 337,7 323,7 312,18 186,132 147,186 q -7,10 -7,23 0,12 8,23 15,21 51,66.5 36,45.5 54,70.5 -27,50 -41,99 L 29,495 Q 16,497 8,507.5 0,518 0,531 l 0,222 q 0,12 8,23 8,11 19,13 l 186,28 q 14,46 39,92 -40,57 -107,138 -10,12 -10,24 0,10 9,23 26,36 98.5,107.5 72.5,71.5 94.5,71.5 13,0 26,-10 l 138,-107 q 44,23 91,38 16,136 29,186 7,28 36,28 l 222,0 q 14,0 24.5,-8.5 Q 914,1391 915,1378 l 28,-184 q 49,-16 90,-37 l 142,107 q 9,9 24,9 13,0 25,-10 129,-119 165,-170 7,-8 7,-22 0,-12 -8,-23 -15,-21 -51,-66.5 -36,-45.5 -54,-70.5 26,-50 41,-98 l 183,-28 q 13,-2 21,-12.5 8,-10.5 8,-23.5 z" />
            </g>
            <g
               style="fill:#77b3d4;fill-opacity:1"
               transform="matrix(0.02011557,-5.8377607e-4,-5.8377607e-4,-0.02011557,367.22654,567.04004)"
               id="g5478">
              <path
                 d="m 1024,640 q 0,106 -75,181 -75,75 -181,75 -106,0 -181,-75 -75,-75 -75,-181 0,-106 75,-181 75,-75 181,-75 106,0 181,75 75,75 75,181 z m 512,109 0,-222 q 0,-12 -8,-23 -8,-11 -20,-13 l -185,-28 q -19,-54 -39,-91 35,-50 107,-138 10,-12 10,-25 0,-13 -9,-23 -27,-37 -99,-108 -72,-71 -94,-71 -12,0 -26,9 l -138,108 q -44,-23 -91,-38 -16,-136 -29,-186 -7,-28 -36,-28 l -222,0 q -14,0 -24.5,8.5 Q 622,-111 621,-98 L 593,86 q -49,16 -90,37 L 362,16 Q 352,7 337,7 323,7 312,18 186,132 147,186 q -7,10 -7,23 0,12 8,23 15,21 51,66.5 36,45.5 54,70.5 -27,50 -41,99 L 29,495 Q 16,497 8,507.5 0,518 0,531 l 0,222 q 0,12 8,23 8,11 19,13 l 186,28 q 14,46 39,92 -40,57 -107,138 -10,12 -10,24 0,10 9,23 26,36 98.5,107.5 72.5,71.5 94.5,71.5 13,0 26,-10 l 138,-107 q 44,23 91,38 16,136 29,186 7,28 36,28 l 222,0 q 14,0 24.5,-8.5 Q 914,1391 915,1378 l 28,-184 q 49,-16 90,-37 l 142,107 q 9,9 24,9 13,0 25,-10 129,-119 165,-170 7,-8 7,-22 0,-12 -8,-23 -15,-21 -51,-66.5 -36,-45.5 -54,-70.5 26,-50 41,-98 l 183,-28 q 13,-2 21,-12.5 8,-10.5 8,-23.5 z"
                 id="path5480"
                 inkscape:connector-curvature="0"
                 style="fill:#77b3d4;fill-opacity:1" />
            </g>
          </g>
        </g>
      </g>
    </g>
    <path
       inkscape:connector-curvature="0"
       sodipodi:nodetypes="cccccccc"
       id="path5519"
       d="m 498.36465,712.52265 -25.65182,-19.62858 0,11.76298 -40.08368,0 0,15.73121 40.22542,0 0,11.62126 25.51008,-19.48687 z"
       style="fill:none;fill-opacity:1;stroke:#4e6070;stroke-width:2.26756263;stroke-linecap:round;stroke-linejoin:round;stroke-miterlimit:4;stroke-dasharray:none;stroke-opacity:1" />
    <g
       id="g5823"
       transform="translate(61.432176,-108.68016)">
      <g
         id="g5741"
         class="st1"
         style="opacity:0.2"
         transform="matrix(1.7538375,0,0,1.7538375,509.43305,470.15724)">
        <path
           id="path5743"
           d="m 52,48 c 0,2.2 -1.8,4 -4,4 l -32,0 c -2.2,0 -4,-1.8 -4,-4 l 0,-30 c 0,-2.2 1.8,-4 4,-4 l 32,0 c 2.2,0 4,1.8 4,4 l 0,30 z"
           class="st2"
           inkscape:connector-curvature="0"
           style="fill:#231f20" />
      </g>
      <g
         id="g5745"
         transform="matrix(1.7538375,0,0,1.7538375,509.43305,470.15724)">
        <path
           id="path5747"
           d="M 12,21.5 12,46 c 0,2.2 1.8,4 4,4 l 32,0 c 2.2,0 4,-1.8 4,-4 l 0,-24.5 -40,0 z"
           class="st3"
           inkscape:connector-curvature="0"
           style="fill:#ffffff" />
      </g>
      <g
         id="g5749"
         class="st1"
         style="opacity:0.2"
         transform="matrix(1.7538375,0,0,1.7538375,509.43305,470.15724)">
        <path
           id="path5751"
           d="m 52,18 c 0,-2.2 -1.8,-4 -4,-4 l -32,0 c -2.2,0 -4,1.8 -4,4 l 0,6 40,0 0,-6 z"
           class="st2"
           inkscape:connector-curvature="0"
           style="fill:#231f20" />
      </g>
      <g
         id="g5753"
         transform="matrix(1.7538375,0,0,1.7538375,509.43305,470.15724)">
        <path
           id="path5755"
           d="m 52,16 c 0,-2.2 -1.8,-4 -4,-4 l -32,0 c -2.2,0 -4,1.8 -4,4 l 0,6 40,0 0,-6 z"
           class="st4"
           inkscape:connector-curvature="0"
           style="fill:#e0e0d1" />
      </g>
      <g
         id="g5757"
         transform="matrix(1.7538375,0,0,1.7538375,509.43305,470.15724)">
        <circle
           id="circle5759"
           r="2"
           cy="17"
           cx="23"
           class="st5"
           style="fill:#e0995e" />
      </g>
      <g
         id="g5761"
         transform="matrix(1.7538375,0,0,1.7538375,509.43305,470.15724)">
        <circle
           id="circle5763"
           r="2"
           cy="17"
           cx="29"
           class="st6"
           style="fill:#76c2af" />
      </g>
      <g
         id="g5765"
         transform="matrix(1.7538375,0,0,1.7538375,509.43305,470.15724)">
        <circle
           id="circle5767"
           r="2"
           cy="17"
           cx="17"
           class="st7"
           style="fill:#c75c5c" />
      </g>
      <g
         id="g5769"
         transform="matrix(0.95026607,0,0,1.7538375,522.29019,470.15724)">
        <rect
           id="rect5771"
           height="18"
           width="12"
           class="st8"
           y="28"
           x="16"
           style="fill:#4f5d73" />
      </g>
      <g
         id="g5773"
         transform="matrix(1.4413375,0,0,1.7538375,508.82591,470.15724)">
        <rect
           id="rect5775"
           height="2"
           width="16"
           class="st4"
           y="28"
           x="32"
           style="fill:#e0e0d1" />
      </g>
      <g
         id="g5777"
         transform="matrix(1.4413375,0,0,1.7538375,508.82591,470.15724)">
        <rect
           id="rect5779"
           height="2"
           width="16"
           class="st4"
           y="32"
           x="32"
           style="fill:#e0e0d1" />
      </g>
      <g
         id="g5781"
         transform="matrix(1.4413375,0,0,1.7538375,508.82591,470.15724)">
        <rect
           id="rect5783"
           height="2"
           width="16"
           class="st4"
           y="36"
           x="32"
           style="fill:#e0e0d1" />
      </g>
      <g
         id="g5785"
         transform="matrix(1.4413375,0,0,1.7538375,508.82591,470.15724)">
        <rect
           id="rect5787"
           height="2"
           width="16"
           class="st4"
           y="40"
           x="32"
           style="fill:#e0e0d1" />
      </g>
      <g
         id="g5789"
         transform="matrix(1.4413375,0,0,1.7538375,508.82591,470.15724)">
        <rect
           id="rect5791"
           height="2"
           width="16"
           class="st4"
           y="44"
           x="32"
           style="fill:#e0e0d1" />
      </g>
      <g
         style="fill:#d3d2d2;fill-opacity:1"
         transform="matrix(0.95026607,0,0,1.7538375,568.29019,470.15724)"
         id="g5819">
        <rect
           style="fill:#d3d2d2;fill-opacity:1"
           x="16"
           y="28"
           class="st8"
           width="12"
           height="18"
           id="rect5821" />
      </g>
    </g>
    <g
       id="g5939"
       transform="translate(-35.976808,-21.782416)">
      <g
         transform="matrix(1.7538375,0,0,1.7538375,511.21876,371.22867)"
         style="opacity:0.2"
         class="st1"
         id="g5855">
        <path
           style="fill:#231f20"
           inkscape:connector-curvature="0"
           class="st2"
           d="m 52,48 c 0,2.2 -1.8,4 -4,4 l -32,0 c -2.2,0 -4,-1.8 -4,-4 l 0,-30 c 0,-2.2 1.8,-4 4,-4 l 32,0 c 2.2,0 4,1.8 4,4 l 0,30 z"
           id="path5857" />
      </g>
      <g
         transform="matrix(1.7538375,0,0,1.7538375,511.21876,371.22867)"
         id="g5859">
        <path
           style="fill:#ffffff"
           inkscape:connector-curvature="0"
           class="st3"
           d="M 12,21.5 12,46 c 0,2.2 1.8,4 4,4 l 32,0 c 2.2,0 4,-1.8 4,-4 l 0,-24.5 -40,0 z"
           id="path5861" />
      </g>
      <g
         transform="matrix(1.7538375,0,0,1.7538375,511.21876,371.22867)"
         style="opacity:0.2"
         class="st1"
         id="g5863">
        <path
           style="fill:#231f20"
           inkscape:connector-curvature="0"
           class="st2"
           d="m 52,18 c 0,-2.2 -1.8,-4 -4,-4 l -32,0 c -2.2,0 -4,1.8 -4,4 l 0,6 40,0 0,-6 z"
           id="path5865" />
      </g>
      <g
         transform="matrix(1.7538375,0,0,1.7538375,511.21876,371.22867)"
         id="g5867">
        <path
           style="fill:#e0e0d1"
           inkscape:connector-curvature="0"
           class="st4"
           d="m 52,16 c 0,-2.2 -1.8,-4 -4,-4 l -32,0 c -2.2,0 -4,1.8 -4,4 l 0,6 40,0 0,-6 z"
           id="path5869" />
      </g>
      <g
         transform="matrix(1.7538375,0,0,1.7538375,511.21876,371.22867)"
         id="g5871">
        <circle
           style="fill:#e0995e"
           class="st5"
           cx="23"
           cy="17"
           r="2"
           id="circle5873" />
      </g>
      <g
         transform="matrix(1.7538375,0,0,1.7538375,511.21876,371.22867)"
         id="g5875">
        <circle
           style="fill:#76c2af"
           class="st6"
           cx="29"
           cy="17"
           r="2"
           id="circle5877" />
      </g>
      <g
         transform="matrix(1.7538375,0,0,1.7538375,511.21876,371.22867)"
         id="g5879">
        <circle
           style="fill:#c75c5c"
           class="st7"
           cx="17"
           cy="17"
           r="2"
           id="circle5881" />
      </g>
    </g>
    <g
       id="g6084"
       transform="translate(-59.714288,262.42857)">
      <rect
         transform="matrix(0.66275427,0.74883695,-0.70385218,0.71034647,0,0)"
         y="6.3359556"
         x="481.82611"
         height="11.393481"
         width="11.748999"
         id="rect6048"
         style="opacity:1;fill:#ffffff;fill-opacity:1;stroke:#4e6070;stroke-width:1.23833919;stroke-linecap:round;stroke-linejoin:round;stroke-miterlimit:4;stroke-dasharray:none;stroke-dashoffset:0;stroke-opacity:1" />
      <path
         id="rect6041"
         d="m 254.24386,365.16853 0,52.02344 68.68945,0 0,-43.04492 -8.29101,0 0,-8.97852 -60.39844,0 z"
         style="opacity:1;fill:#ffffff;fill-opacity:1;stroke:#4e6070;stroke-width:1;stroke-linecap:round;stroke-linejoin:round;stroke-miterlimit:4;stroke-dasharray:none;stroke-dashoffset:0;stroke-opacity:1"
         inkscape:connector-curvature="0" />
      <g
         transform="matrix(0.95026607,0,0,1.7538375,245.44553,325.92139)"
         id="g5985">
        <rect
           style="fill:#4f5d73"
           x="16"
           y="28"
           class="st8"
           width="12"
           height="18"
           id="rect5987" />
      </g>
      <g
         transform="matrix(1.4413375,0,0,1.7538375,231.98125,325.92139)"
         id="g5989">
        <rect
           style="fill:#e0e0d1"
           x="32"
           y="28"
           class="st4"
           width="16"
           height="2"
           id="rect5991" />
      </g>
      <g
         transform="matrix(1.4413375,0,0,1.7538375,231.98125,325.92139)"
         id="g5993">
        <rect
           style="fill:#e0e0d1"
           x="32"
           y="32"
           class="st4"
           width="16"
           height="2"
           id="rect5995" />
      </g>
      <g
         transform="matrix(1.4413375,0,0,1.7538375,231.98125,325.92139)"
         id="g5997">
        <rect
           style="fill:#e0e0d1"
           x="32"
           y="36"
           class="st4"
           width="16"
           height="2"
           id="rect5999" />
      </g>
      <g
         transform="matrix(1.4413375,0,0,1.7538375,231.98125,325.92139)"
         id="g6001">
        <rect
           style="fill:#e0e0d1"
           x="32"
           y="40"
           class="st4"
           width="16"
           height="2"
           id="rect6003" />
      </g>
      <g
         transform="matrix(1.4413375,0,0,1.7538375,231.98125,325.92139)"
         id="g6005">
        <rect
           style="fill:#e0e0d1"
           x="32"
           y="44"
           class="st4"
           width="16"
           height="2"
           id="rect6007" />
      </g>
      <g
         id="g6009"
         transform="matrix(0.95026607,0,0,1.7538375,291.44553,325.92139)"
         style="fill:#d3d2d2;fill-opacity:1">
        <rect
           id="rect6011"
           height="18"
           width="12"
           class="st8"
           y="28"
           x="16"
           style="fill:#d3d2d2;fill-opacity:1" />
      </g>
    </g>
    <g
       id="g6156"
       transform="translate(179.14286,195.28572)">
      <rect
         style="opacity:1;fill:#ffffff;fill-opacity:1;stroke:#4e6070;stroke-width:1.23833919;stroke-linecap:round;stroke-linejoin:round;stroke-miterlimit:4;stroke-dasharray:none;stroke-dashoffset:0;stroke-opacity:1"
         id="rect6104"
         width="11.748999"
         height="11.393481"
         x="526.69879"
         y="52.176483"
         transform="matrix(0.66275427,0.74883695,-0.70385218,0.71034647,0,0)" />
      <path
         inkscape:connector-curvature="0"
         style="opacity:1;fill:#ffffff;fill-opacity:1;stroke:#4e6070;stroke-width:1;stroke-linecap:round;stroke-linejoin:round;stroke-miterlimit:4;stroke-dasharray:none;stroke-dashoffset:0;stroke-opacity:1"
         d="m 251.71848,431.33352 0,52.02344 68.68945,0 0,-43.04492 -8.29101,0 0,-8.97852 -60.39844,0 z"
         id="path6106" />
      <g
         id="g6112"
         transform="matrix(1.4413375,0,0,1.7538375,229.45587,392.08638)">
        <rect
           id="rect6114"
           height="2"
           width="16"
           class="st4"
           y="28"
           x="32"
           style="fill:#e0e0d1" />
      </g>
      <g
         id="g6116"
         transform="matrix(1.4413375,0,0,1.7538375,229.45587,392.08638)">
        <rect
           id="rect6118"
           height="2"
           width="16"
           class="st4"
           y="32"
           x="32"
           style="fill:#e0e0d1" />
      </g>
      <g
         id="g6120"
         transform="matrix(1.4413375,0,0,1.7538375,229.45587,392.08638)">
        <rect
           id="rect6122"
           height="2"
           width="16"
           class="st4"
           y="36"
           x="32"
           style="fill:#e0e0d1" />
      </g>
      <g
         id="g6124"
         transform="matrix(1.4413375,0,0,1.7538375,229.45587,392.08638)">
        <rect
           id="rect6126"
           height="2"
           width="16"
           class="st4"
           y="40"
           x="32"
           style="fill:#e0e0d1" />
      </g>
      <g
         id="g6128"
         transform="matrix(1.4413375,0,0,1.7538375,229.45587,392.08638)">
        <rect
           id="rect6130"
           height="2"
           width="16"
           class="st4"
           y="44"
           x="32"
           style="fill:#e0e0d1" />
      </g>
      <g
         style="fill:none;fill-opacity:1;stroke:#ff0010;stroke-width:0.6901769;stroke-miterlimit:4;stroke-dasharray:1.38035379, 0.6901769;stroke-dashoffset:0;stroke-opacity:1"
         transform="matrix(0.95026607,0,0,1.7538375,288.92015,392.08638)"
         id="g6132">
        <rect
           style="fill:none;fill-opacity:1;stroke:#ff0010;stroke-width:0.6901769;stroke-miterlimit:4;stroke-dasharray:1.38035379, 0.6901769;stroke-dashoffset:0;stroke-opacity:1"
           x="16"
           y="28"
           class="st8"
           width="12"
           height="18"
           id="rect6134" />
      </g>
      <g
         id="g6152"
         transform="matrix(0.95026607,0,0,1.7538375,242.92015,392.08638)"
         style="fill:none;fill-opacity:1;stroke:#ff0010;stroke-width:0.6901769;stroke-miterlimit:4;stroke-dasharray:1.38035379, 0.6901769;stroke-dashoffset:0;stroke-opacity:1">
        <rect
           id="rect6154"
           height="18"
           width="12"
           class="st8"
           y="28"
           x="16"
           style="fill:none;fill-opacity:1;stroke:#ff0010;stroke-width:0.6901769;stroke-miterlimit:4;stroke-dasharray:1.38035379, 0.6901769;stroke-dashoffset:0;stroke-opacity:1" />
      </g>
    </g>
    <path
       inkscape:connector-curvature="0"
       sodipodi:nodetypes="cccccccc"
       id="path6286"
       d="m 174.53826,656.00062 6.95047,11.58664 0,-6.94362 10.86086,0 0,-9.28603 -10.89925,0 0,-6.85996 -6.91208,11.50297 z"
       style="fill:none;fill-opacity:1;stroke:#4e6070;stroke-width:0.90686291;stroke-linecap:round;stroke-linejoin:round;stroke-miterlimit:4;stroke-dasharray:none;stroke-opacity:1" />
    <path
       style="fill:none;fill-opacity:1;stroke:#4e6070;stroke-width:0.90686291;stroke-linecap:round;stroke-linejoin:round;stroke-miterlimit:4;stroke-dasharray:none;stroke-opacity:1"
       d="m 267.3954,655.28633 6.95047,11.58664 0,-6.94362 10.86086,0 0,-9.28603 -10.89925,0 0,-6.85996 -6.91208,11.50297 z"
       id="path6290"
       sodipodi:nodetypes="cccccccc"
       inkscape:connector-curvature="0" />
    <path
       style="fill:none;fill-opacity:1;stroke:#4e6070;stroke-width:0.90686291;stroke-linecap:round;stroke-linejoin:round;stroke-miterlimit:4;stroke-dasharray:none;stroke-opacity:1"
       d="m 409.96684,652.42919 6.95047,11.58664 0,-6.94362 10.86086,0 0,-9.28603 -10.89925,0 0,-6.85996 -6.91208,11.50297 z"
       id="path6354"
       sodipodi:nodetypes="cccccccc"
       inkscape:connector-curvature="0" />
    <path
       inkscape:connector-curvature="0"
       sodipodi:nodetypes="cccccccc"
       id="path6356"
       d="m 502.82398,651.7149 6.95047,11.58664 0,-6.94362 10.86086,0 0,-9.28603 -10.89925,0 0,-6.85996 -6.91208,11.50297 z"
       style="fill:none;fill-opacity:1;stroke:#4e6070;stroke-width:0.90686291;stroke-linecap:round;stroke-linejoin:round;stroke-miterlimit:4;stroke-dasharray:none;stroke-opacity:1" />
    <g
       id="g6385">
      <g
         transform="translate(-16.2161,190)"
         id="g6258">
        <rect
           transform="matrix(0.66275427,0.74883695,-0.70385218,0.71034647,0,0)"
           y="-76.893936"
           x="558.87024"
           height="11.393481"
           width="11.748999"
           id="rect6176"
           style="opacity:1;fill:#ffffff;fill-opacity:1;stroke:#4e6070;stroke-width:1.23833919;stroke-linecap:round;stroke-linejoin:round;stroke-miterlimit:4;stroke-dasharray:none;stroke-dashoffset:0;stroke-opacity:1" />
        <path
           id="path6178"
           d="m 363.88672,363.73996 0,52.02344 68.68945,0 0,-43.04492 -8.29101,0 0,-8.97852 -60.39844,0 z"
           style="opacity:1;fill:#ffffff;fill-opacity:1;stroke:#4e6070;stroke-width:1;stroke-linecap:round;stroke-linejoin:round;stroke-miterlimit:4;stroke-dasharray:none;stroke-dashoffset:0;stroke-opacity:1"
           inkscape:connector-curvature="0" />
        <g
           id="g6204"
           transform="matrix(0.95026607,0,0,1.7538375,401.08839,324.49282)"
           style="fill:#d3d2d2;fill-opacity:1">
          <rect
             id="rect6206"
             height="18"
             width="12"
             class="st8"
             y="28"
             x="16"
             style="fill:#d3d2d2;fill-opacity:1" />
        </g>
      </g>
      <path
         style="fill:none;fill-opacity:1;stroke:#4e6070;stroke-width:0.90686291;stroke-linecap:round;stroke-linejoin:round;stroke-miterlimit:4;stroke-dasharray:none;stroke-opacity:1"
         d="m 381.97351,625.37669 11.58664,-6.95047 -6.94362,0 0,-10.86086 -9.28603,0 0,10.89925 -6.85996,0 11.50297,6.91208 z"
         id="path6358"
         sodipodi:nodetypes="cccccccc"
         inkscape:connector-curvature="0" />
      <path
         inkscape:connector-curvature="0"
         sodipodi:nodetypes="cccccccc"
         id="path6360"
         d="m 381.97351,552.51954 11.58664,-6.95047 -6.94362,0 0,-10.86086 -9.28603,0 0,10.89925 -6.85996,0 11.50297,6.91208 z"
         style="fill:none;fill-opacity:1;stroke:#4e6070;stroke-width:0.90686291;stroke-linecap:round;stroke-linejoin:round;stroke-miterlimit:4;stroke-dasharray:none;stroke-opacity:1" />
    </g>
    <g
       id="g6394"
       transform="translate(0,1.42857)">
      <g
         transform="translate(-88.930381,123.14788)"
         id="g6280">
        <rect
           style="opacity:1;fill:#ffffff;fill-opacity:1;stroke:#4e6070;stroke-width:1.23833919;stroke-linecap:round;stroke-linejoin:round;stroke-miterlimit:4;stroke-dasharray:none;stroke-dashoffset:0;stroke-opacity:1"
           id="rect6210"
           width="11.748999"
           height="11.393481"
           x="604.71429"
           y="-32.711884"
           transform="matrix(0.66275427,0.74883695,-0.70385218,0.71034647,0,0)" />
        <path
           inkscape:connector-curvature="0"
           style="opacity:1;fill:#ffffff;fill-opacity:1;stroke:#4e6070;stroke-width:1;stroke-linecap:round;stroke-linejoin:round;stroke-miterlimit:4;stroke-dasharray:none;stroke-dashoffset:0;stroke-opacity:1"
           d="m 363.17243,429.45424 0,52.02344 68.68945,0 0,-43.04492 -8.29101,0 0,-8.97852 -60.39844,0 z"
           id="path6212" />
        <g
           id="g6214"
           transform="matrix(0.95026607,0,0,1.7538375,354.3741,390.2071)">
          <rect
             id="rect6216"
             height="18"
             width="12"
             class="st8"
             y="28"
             x="16"
             style="fill:#4f5d73" />
        </g>
      </g>
      <path
         inkscape:connector-curvature="0"
         sodipodi:nodetypes="cccccccc"
         id="path6362"
         d="m 308.54494,623.94812 11.58664,-6.95047 -6.94362,0 0,-10.86086 -9.28603,0 0,10.89925 -6.85996,0 11.50297,6.91208 z"
         style="fill:none;fill-opacity:1;stroke:#4e6070;stroke-width:0.90686291;stroke-linecap:round;stroke-linejoin:round;stroke-miterlimit:4;stroke-dasharray:none;stroke-opacity:1" />
      <path
         style="fill:none;fill-opacity:1;stroke:#4e6070;stroke-width:0.90686291;stroke-linecap:round;stroke-linejoin:round;stroke-miterlimit:4;stroke-dasharray:none;stroke-opacity:1"
         d="m 308.54494,551.09097 11.58664,-6.95047 -6.94362,0 0,-10.86086 -9.28603,0 0,10.89925 -6.85996,0 11.50297,6.91208 z"
         id="path6364"
         sodipodi:nodetypes="cccccccc"
         inkscape:connector-curvature="0" />
    </g>
    <path
       style="fill:none;fill-opacity:1;stroke:#4e6070;stroke-width:2.26756263;stroke-linecap:round;stroke-linejoin:round;stroke-miterlimit:4;stroke-dasharray:none;stroke-opacity:1"
       d="m 421.9963,372.15543 -19.62858,25.65182 11.76298,0 0,40.08368 15.73121,0 0,-40.22542 11.62126,0 -19.48687,-25.51008 z"
       id="path6422"
       sodipodi:nodetypes="cccccccc"
       inkscape:connector-curvature="0"
       inkscape:transform-center-x="5.0000002"
       inkscape:transform-center-y="-100.00003" />
  </g>
  <style
     id="style4258"
     type="text/css">
	.st0{fill:#77B3D4;}
	.st1{opacity:0.2;}
	.st2{fill:#231F20;}
	.st3{fill:#FFFFFF;}
	.st4{fill:#E0E0D1;}
	.st5{fill:#E0995E;}
	.st6{fill:#76C2AF;}
	.st7{fill:#C75C5C;}
	.st8{fill:#4F5D73;}
</style>
</svg>
