<?xml version="1.0" encoding="UTF-8" standalone="no"?>
<!-- Created with Inkscape (http://www.inkscape.org/) -->

<svg
   xmlns:dc="http://purl.org/dc/elements/1.1/"
   xmlns:cc="http://creativecommons.org/ns#"
   xmlns:rdf="http://www.w3.org/1999/02/22-rdf-syntax-ns#"
   xmlns:svg="http://www.w3.org/2000/svg"
   xmlns="http://www.w3.org/2000/svg"
   xmlns:xlink="http://www.w3.org/1999/xlink"
   xmlns:sodipodi="http://sodipodi.sourceforge.net/DTD/sodipodi-0.dtd"
   xmlns:inkscape="http://www.inkscape.org/namespaces/inkscape"
   width="97.830666mm"
   height="72.43058mm"
   viewBox="0 0 346.64409 256.64379"
   id="svg2"
   version="1.1"
   inkscape:version="0.91 r13725"
   sodipodi:docname="cxredis-1-cache.svg">
  <defs
     id="defs4">
    <inkscape:perspective
       id="perspective14"
       inkscape:persp3d-origin="24.999999 : 6.6666663 : 1"
       inkscape:vp_z="49.999997 : 9.9999993 : 1"
       inkscape:vp_y="0 : 999.99993 : 0"
       inkscape:vp_x="0 : 9.9999993 : 1"
       sodipodi:type="inkscape:persp3d" />
    <linearGradient
       inkscape:collect="always"
       xlink:href="#linearGradient3189"
       id="linearGradient3187"
       gradientUnits="userSpaceOnUse"
       gradientTransform="matrix(0.2664003,0,0,0.2664003,22.291563,7.1254585)"
       x1="21.909702"
       y1="14.877447"
       x2="37.283634"
       y2="-0.49648574" />
    <linearGradient
       inkscape:collect="always"
       xlink:href="#linearGradient3183"
       id="linearGradient3297"
       gradientUnits="userSpaceOnUse"
       gradientTransform="matrix(0.8235066,0,0,0.8235066,17.023824,1.1141097)"
       x1="21.909702"
       y1="14.877447"
       x2="37.283634"
       y2="-0.49648574" />
    <linearGradient
       inkscape:collect="always"
       xlink:href="#linearGradient3171"
       id="linearGradient3294"
       gradientUnits="userSpaceOnUse"
       gradientTransform="matrix(0.8235066,0,0,0.8235066,3.2633246,1.1215684)"
       x1="21.909702"
       y1="14.877447"
       x2="37.283634"
       y2="-0.49648574" />
    <linearGradient
       inkscape:collect="always"
       xlink:href="#linearGradient3171"
       id="linearGradient3291"
       gradientUnits="userSpaceOnUse"
       gradientTransform="matrix(0.948408,0,0,0.948408,-0.03348006,-22.23239)"
       x1="21.909702"
       y1="14.877447"
       x2="37.283634"
       y2="-0.49648574" />
    <linearGradient
       inkscape:collect="always"
       xlink:href="#linearGradient3183"
       id="linearGradient3289"
       gradientUnits="userSpaceOnUse"
       gradientTransform="matrix(0.948408,0,0,0.948408,15.814076,-22.24098)"
       x1="21.909702"
       y1="14.877447"
       x2="37.283634"
       y2="-0.49648574" />
    <linearGradient
       inkscape:collect="always"
       xlink:href="#linearGradient3183"
       id="linearGradient3274"
       gradientUnits="userSpaceOnUse"
       gradientTransform="matrix(0.948408,0,0,0.948408,-35.372652,3.1257621)"
       x1="21.909702"
       y1="14.877447"
       x2="37.283634"
       y2="-0.49648574" />
    <linearGradient
       inkscape:collect="always"
       xlink:href="#linearGradient3183"
       id="linearGradient2496"
       gradientUnits="userSpaceOnUse"
       gradientTransform="matrix(-0.948408,0,0,0.948408,6.0609237,3.1257621)"
       x1="21.909702"
       y1="14.877447"
       x2="37.283634"
       y2="-0.49648574" />
    <linearGradient
       inkscape:collect="always"
       xlink:href="#linearGradient3171"
       id="linearGradient2493"
       gradientUnits="userSpaceOnUse"
       x1="21.909702"
       y1="14.877447"
       x2="37.283634"
       y2="-0.49648574"
       gradientTransform="matrix(0.948408,0,0,0.948408,-0.03348006,-0.2250238)" />
    <linearGradient
       id="linearGradient3183">
      <stop
         style="stop-color:#1c88ed;stop-opacity:1;"
         offset="0"
         id="stop3185" />
      <stop
         style="stop-color:#ffffff;stop-opacity:1;"
         offset="1"
         id="stop3187" />
    </linearGradient>
    <linearGradient
       id="linearGradient3171">
      <stop
         id="stop3173"
         offset="0"
         style="stop-color:#ed1c24;stop-opacity:1;" />
      <stop
         id="stop3175"
         offset="1"
         style="stop-color:#ffffff;stop-opacity:1;" />
    </linearGradient>
    <inkscape:perspective
       id="perspective2497"
       inkscape:persp3d-origin="17.999999 : 13.333332 : 1"
       inkscape:vp_z="35.999998 : 19.999999 : 1"
       inkscape:vp_y="0 : 999.99993 : 0"
       inkscape:vp_x="0 : 19.999999 : 1"
       sodipodi:type="inkscape:persp3d" />
    <linearGradient
       gradientUnits="userSpaceOnUse"
       y2="-0.49648574"
       x2="37.283634"
       y1="14.877447"
       x1="21.909702"
       id="linearGradient3177"
       xlink:href="#linearGradient3171"
       inkscape:collect="always" />
    <linearGradient
       gradientTransform="matrix(-1,0,0,1,36.046875,18.40625)"
       y2="-0.49648574"
       x2="37.283634"
       y1="14.877447"
       x1="21.909702"
       gradientUnits="userSpaceOnUse"
       id="linearGradient3181"
       xlink:href="#linearGradient3183"
       inkscape:collect="always" />
    <inkscape:perspective
       sodipodi:type="inkscape:persp3d"
       inkscape:vp_x="0 : 9.9999993 : 1"
       inkscape:vp_y="0 : 999.99993 : 0"
       inkscape:vp_z="49.999997 : 9.9999993 : 1"
       inkscape:persp3d-origin="24.999999 : 6.6666663 : 1"
       id="perspective13" />
    <linearGradient
       id="linearGradient3189">
      <stop
         id="stop3191"
         offset="0"
         style="stop-color:#a61ced;stop-opacity:1;" />
      <stop
         id="stop3193"
         offset="1"
         style="stop-color:#ffffff;stop-opacity:1;" />
    </linearGradient>
    <inkscape:perspective
       sodipodi:type="inkscape:persp3d"
       inkscape:vp_x="0 : 19.999999 : 1"
       inkscape:vp_y="0 : 999.99993 : 0"
       inkscape:vp_z="35.999998 : 19.999999 : 1"
       inkscape:persp3d-origin="17.999999 : 13.333332 : 1"
       id="perspective2625" />
    <linearGradient
       gradientTransform="matrix(0.948408,0,0,0.948408,53.929067,-11.431696)"
       y2="-0.49648574"
       x2="37.283634"
       y1="14.877447"
       x1="21.909702"
       gradientUnits="userSpaceOnUse"
       id="linearGradient2638"
       xlink:href="#linearGradient3171"
       inkscape:collect="always" />
    <linearGradient
       y2="-0.49648574"
       x2="37.283634"
       y1="14.877447"
       x1="21.909702"
       gradientTransform="matrix(-0.8272523,0,0,0.8249111,49.918574,1.1064261)"
       gradientUnits="userSpaceOnUse"
       id="linearGradient2641"
       xlink:href="#linearGradient3183"
       inkscape:collect="always" />
    <linearGradient
       y2="-3.4240246"
       x2="37.478802"
       y1="13.511262"
       x1="17.420809"
       gradientTransform="matrix(0.2664003,0,0,0.2664003,34.091034,14.040547)"
       gradientUnits="userSpaceOnUse"
       id="linearGradient2644"
       xlink:href="#linearGradient3189"
       inkscape:collect="always" />
    <linearGradient
       y2="-0.49648574"
       x2="37.283634"
       y1="14.877447"
       x1="21.909702"
       gradientTransform="matrix(0.8235066,0,0,0.8235066,9.3955434,1.1735615)"
       gradientUnits="userSpaceOnUse"
       id="linearGradient2648"
       xlink:href="#linearGradient3171"
       inkscape:collect="always" />
    <linearGradient
       y2="2.9760098"
       x2="11.20835"
       y1="14.877447"
       x1="21.909702"
       gradientTransform="matrix(0.8235066,0,0,0.8235066,21.492261,2.2059658)"
       gradientUnits="userSpaceOnUse"
       id="linearGradient2651"
       xlink:href="#linearGradient3183"
       inkscape:collect="always" />
    <linearGradient
       y2="-0.49648574"
       x2="37.283634"
       y1="14.877447"
       x1="21.909702"
       gradientTransform="matrix(0.8235066,0,0,0.8235066,13.797276,1.1141097)"
       gradientUnits="userSpaceOnUse"
       id="linearGradient2654"
       xlink:href="#linearGradient3183"
       inkscape:collect="always" />
    <filter
       inkscape:collect="always"
       style="color-interpolation-filters:sRGB"
       id="filter4735"
       x="-0.096851736"
       width="1.1937035"
       y="-0.11608559"
       height="1.2321712">
      <feGaussianBlur
         inkscape:collect="always"
         stdDeviation="3.7356343"
         id="feGaussianBlur4737" />
    </filter>
  </defs>
  <sodipodi:namedview
     id="base"
     pagecolor="#ffffff"
     bordercolor="#666666"
     borderopacity="1.0"
     inkscape:pageopacity="0.0"
     inkscape:pageshadow="2"
     inkscape:zoom="1.979899"
     inkscape:cx="-17.323398"
     inkscape:cy="188.0845"
     inkscape:document-units="px"
     inkscape:current-layer="layer1"
     showgrid="false"
     inkscape:window-width="1920"
     inkscape:window-height="1007"
     inkscape:window-x="0"
     inkscape:window-y="27"
     inkscape:window-maximized="1"
     fit-margin-top="0"
     fit-margin-left="0"
     fit-margin-right="0"
     fit-margin-bottom="0" />
  <metadata
     id="metadata7">
    <rdf:RDF>
      <cc:Work
         rdf:about="">
        <dc:format>image/svg+xml</dc:format>
        <dc:type
           rdf:resource="http://purl.org/dc/dcmitype/StillImage" />
        <dc:title />
      </cc:Work>
    </rdf:RDF>
  </metadata>
  <g
     inkscape:label="Layer 1"
     inkscape:groupmode="layer"
     id="layer1"
     transform="translate(-292.8561,-495.50455)">
    <g
       id="Layer_2"
       transform="matrix(3.8348214,0,0,3.8348214,-2.0000046,884.64792)" />
    <g
       id="g4562">
      <rect
         style="opacity:1;fill:#77b3d4;fill-opacity:1;stroke:none;stroke-width:1;stroke-linecap:round;stroke-linejoin:round;stroke-miterlimit:4;stroke-dasharray:none;stroke-dashoffset:0;stroke-opacity:1"
         id="rect5245"
         width="106.6539"
         height="102.48667"
         x="293.11768"
         y="626.73859"
         ry="15.675912" />
      <g
         transform="translate(-21.714905,-0.2268443)"
         id="g5189">
        <g
           id="g4493"
           transform="translate(18.289376,102.56854)"
           style="fill:#000000;fill-opacity:1;filter:url(#filter4735)">
          <g
             transform="matrix(0.04687602,0,0,-0.04687602,305.24715,609.43566)"
             id="g4495"
             style="fill:#000000;fill-opacity:1">
            <path
               d="m 1024,640 q 0,106 -75,181 -75,75 -181,75 -106,0 -181,-75 -75,-75 -75,-181 0,-106 75,-181 75,-75 181,-75 106,0 181,75 75,75 75,181 z m 512,109 0,-222 q 0,-12 -8,-23 -8,-11 -20,-13 l -185,-28 q -19,-54 -39,-91 35,-50 107,-138 10,-12 10,-25 0,-13 -9,-23 -27,-37 -99,-108 -72,-71 -94,-71 -12,0 -26,9 l -138,108 q -44,-23 -91,-38 -16,-136 -29,-186 -7,-28 -36,-28 l -222,0 q -14,0 -24.5,8.5 Q 622,-111 621,-98 L 593,86 q -49,16 -90,37 L 362,16 Q 352,7 337,7 323,7 312,18 186,132 147,186 q -7,10 -7,23 0,12 8,23 15,21 51,66.5 36,45.5 54,70.5 -27,50 -41,99 L 29,495 Q 16,497 8,507.5 0,518 0,531 l 0,222 q 0,12 8,23 8,11 19,13 l 186,28 q 14,46 39,92 -40,57 -107,138 -10,12 -10,24 0,10 9,23 26,36 98.5,107.5 72.5,71.5 94.5,71.5 13,0 26,-10 l 138,-107 q 44,23 91,38 16,136 29,186 7,28 36,28 l 222,0 q 14,0 24.5,-8.5 Q 914,1391 915,1378 l 28,-184 q 49,-16 90,-37 l 142,107 q 9,9 24,9 13,0 25,-10 129,-119 165,-170 7,-8 7,-22 0,-12 -8,-23 -15,-21 -51,-66.5 -36,-45.5 -54,-70.5 26,-50 41,-98 l 183,-28 q 13,-2 21,-12.5 8,-10.5 8,-23.5 z"
               id="path4497"
               inkscape:connector-curvature="0"
               style="fill:#000000;fill-opacity:1" />
          </g>
          <g
             id="g4499"
             transform="matrix(0.02011557,-5.8377607e-4,-5.8377607e-4,-0.02011557,367.22654,567.04004)"
             style="fill:#000000;fill-opacity:1">
            <path
               style="fill:#000000;fill-opacity:1"
               inkscape:connector-curvature="0"
               id="path4501"
               d="m 1024,640 q 0,106 -75,181 -75,75 -181,75 -106,0 -181,-75 -75,-75 -75,-181 0,-106 75,-181 75,-75 181,-75 106,0 181,75 75,75 75,181 z m 512,109 0,-222 q 0,-12 -8,-23 -8,-11 -20,-13 l -185,-28 q -19,-54 -39,-91 35,-50 107,-138 10,-12 10,-25 0,-13 -9,-23 -27,-37 -99,-108 -72,-71 -94,-71 -12,0 -26,9 l -138,108 q -44,-23 -91,-38 -16,-136 -29,-186 -7,-28 -36,-28 l -222,0 q -14,0 -24.5,8.5 Q 622,-111 621,-98 L 593,86 q -49,16 -90,37 L 362,16 Q 352,7 337,7 323,7 312,18 186,132 147,186 q -7,10 -7,23 0,12 8,23 15,21 51,66.5 36,45.5 54,70.5 -27,50 -41,99 L 29,495 Q 16,497 8,507.5 0,518 0,531 l 0,222 q 0,12 8,23 8,11 19,13 l 186,28 q 14,46 39,92 -40,57 -107,138 -10,12 -10,24 0,10 9,23 26,36 98.5,107.5 72.5,71.5 94.5,71.5 13,0 26,-10 l 138,-107 q 44,23 91,38 16,136 29,186 7,28 36,28 l 222,0 q 14,0 24.5,-8.5 Q 914,1391 915,1378 l 28,-184 q 49,-16 90,-37 l 142,107 q 9,9 24,9 13,0 25,-10 129,-119 165,-170 7,-8 7,-22 0,-12 -8,-23 -15,-21 -51,-66.5 -36,-45.5 -54,-70.5 26,-50 41,-98 l 183,-28 q 13,-2 21,-12.5 8,-10.5 8,-23.5 z" />
          </g>
        </g>
        <g
           id="g4487"
           transform="translate(14.142136,103.03556)">
          <g
             style="fill:#e0e0d1;fill-opacity:1"
             id="g4165"
             transform="matrix(0.04687602,0,0,-0.04687602,305.24715,609.43566)">
            <path
               style="fill:#e0e0d1;fill-opacity:1"
               inkscape:connector-curvature="0"
               id="path4167"
               d="m 1024,640 q 0,106 -75,181 -75,75 -181,75 -106,0 -181,-75 -75,-75 -75,-181 0,-106 75,-181 75,-75 181,-75 106,0 181,75 75,75 75,181 z m 512,109 0,-222 q 0,-12 -8,-23 -8,-11 -20,-13 l -185,-28 q -19,-54 -39,-91 35,-50 107,-138 10,-12 10,-25 0,-13 -9,-23 -27,-37 -99,-108 -72,-71 -94,-71 -12,0 -26,9 l -138,108 q -44,-23 -91,-38 -16,-136 -29,-186 -7,-28 -36,-28 l -222,0 q -14,0 -24.5,8.5 Q 622,-111 621,-98 L 593,86 q -49,16 -90,37 L 362,16 Q 352,7 337,7 323,7 312,18 186,132 147,186 q -7,10 -7,23 0,12 8,23 15,21 51,66.5 36,45.5 54,70.5 -27,50 -41,99 L 29,495 Q 16,497 8,507.5 0,518 0,531 l 0,222 q 0,12 8,23 8,11 19,13 l 186,28 q 14,46 39,92 -40,57 -107,138 -10,12 -10,24 0,10 9,23 26,36 98.5,107.5 72.5,71.5 94.5,71.5 13,0 26,-10 l 138,-107 q 44,23 91,38 16,136 29,186 7,28 36,28 l 222,0 q 14,0 24.5,-8.5 Q 914,1391 915,1378 l 28,-184 q 49,-16 90,-37 l 142,107 q 9,9 24,9 13,0 25,-10 129,-119 165,-170 7,-8 7,-22 0,-12 -8,-23 -15,-21 -51,-66.5 -36,-45.5 -54,-70.5 26,-50 41,-98 l 183,-28 q 13,-2 21,-12.5 8,-10.5 8,-23.5 z" />
          </g>
          <g
             style="fill:#e0e0d1;fill-opacity:1"
             transform="matrix(0.02011557,-5.8377607e-4,-5.8377607e-4,-0.02011557,367.22654,567.04004)"
             id="g4169">
            <path
               d="m 1024,640 q 0,106 -75,181 -75,75 -181,75 -106,0 -181,-75 -75,-75 -75,-181 0,-106 75,-181 75,-75 181,-75 106,0 181,75 75,75 75,181 z m 512,109 0,-222 q 0,-12 -8,-23 -8,-11 -20,-13 l -185,-28 q -19,-54 -39,-91 35,-50 107,-138 10,-12 10,-25 0,-13 -9,-23 -27,-37 -99,-108 -72,-71 -94,-71 -12,0 -26,9 l -138,108 q -44,-23 -91,-38 -16,-136 -29,-186 -7,-28 -36,-28 l -222,0 q -14,0 -24.5,8.5 Q 622,-111 621,-98 L 593,86 q -49,16 -90,37 L 362,16 Q 352,7 337,7 323,7 312,18 186,132 147,186 q -7,10 -7,23 0,12 8,23 15,21 51,66.5 36,45.5 54,70.5 -27,50 -41,99 L 29,495 Q 16,497 8,507.5 0,518 0,531 l 0,222 q 0,12 8,23 8,11 19,13 l 186,28 q 14,46 39,92 -40,57 -107,138 -10,12 -10,24 0,10 9,23 26,36 98.5,107.5 72.5,71.5 94.5,71.5 13,0 26,-10 l 138,-107 q 44,23 91,38 16,136 29,186 7,28 36,28 l 222,0 q 14,0 24.5,-8.5 Q 914,1391 915,1378 l 28,-184 q 49,-16 90,-37 l 142,107 q 9,9 24,9 13,0 25,-10 129,-119 165,-170 7,-8 7,-22 0,-12 -8,-23 -15,-21 -51,-66.5 -36,-45.5 -54,-70.5 26,-50 41,-98 l 183,-28 q 13,-2 21,-12.5 8,-10.5 8,-23.5 z"
               id="path4171"
               inkscape:connector-curvature="0"
               style="fill:#e0e0d1;fill-opacity:1" />
          </g>
        </g>
      </g>
      <g
         id="flowRoot4459"
         style="font-style:normal;font-weight:normal;font-size:19.34154129px;line-height:125%;font-family:sans-serif;letter-spacing:0px;word-spacing:0px;fill:#000000;fill-opacity:1;stroke:none;stroke-width:1px;stroke-linecap:butt;stroke-linejoin:miter;stroke-opacity:1">
        <path
           id="path4503"
           style="font-style:normal;font-variant:normal;font-weight:bold;font-stretch:normal;font-family:Sawasdee;-inkscape-font-specification:'Sawasdee Bold'"
           d="m 306.25266,743.64469 1.20885,0.78386 q -2.40825,3.19211 -6.09145,3.19211 -1.49217,0 -2.86157,-0.56664 -1.35995,-0.56665 -2.35158,-1.52051 -0.98219,-0.95385 -1.56773,-2.27603 -0.58553,-1.33162 -0.58553,-2.79545 0,-1.46384 0.58553,-2.79546 0.58554,-1.33162 1.56773,-2.29492 0.99163,-0.9633 2.35158,-1.52995 1.3694,-0.56664 2.86157,-0.56664 0.75552,0 1.46383,0.14166 0.70831,0.14166 1.24663,0.35887 0.53831,0.20778 1.04829,0.51943 0.50998,0.31166 0.84997,0.59498 0.33999,0.27388 0.67053,0.62331 0.33055,0.33999 0.4911,0.53832 0.16055,0.18888 0.3211,0.41554 l -1.18996,0.85941 q -0.25499,-0.3211 -0.41554,-0.50998 -0.16055,-0.18888 -0.66109,-0.63276 -0.49109,-0.44387 -0.97274,-0.70831 -0.48165,-0.27387 -1.25607,-0.50053 -0.76497,-0.22666 -1.59605,-0.22666 -1.19941,0 -2.28548,0.45332 -1.08607,0.45331 -1.86993,1.21829 -0.78387,0.76497 -1.24663,1.83215 -0.45331,1.05774 -0.45331,2.22881 0,1.16163 0.45331,2.21937 0.46276,1.05774 1.23718,1.83216 0.78386,0.76497 1.86994,1.21829 1.09551,0.45332 2.29492,0.45332 0.82163,0 1.57716,-0.21722 0.76498,-0.21721 1.26551,-0.50054 0.50054,-0.28332 0.9633,-0.68942 0.47221,-0.40609 0.67053,-0.6422 0.20777,-0.2361 0.4061,-0.50998 z"
           inkscape:connector-curvature="0" />
        <path
           id="path4505"
           style="font-style:normal;font-variant:normal;font-weight:bold;font-stretch:normal;font-family:Sawasdee;-inkscape-font-specification:'Sawasdee Bold'"
           d="m 318.85111,740.22592 q 0.68942,1.1333 0.68942,2.47436 0,1.34106 -0.68942,2.47436 -0.68942,1.13329 -1.86994,1.79438 -1.18051,0.65164 -2.5688,0.65164 -1.39772,0 -2.58768,-0.65164 -1.18052,-0.66109 -1.86994,-1.79438 -0.68942,-1.1333 -0.68942,-2.47436 0,-1.34106 0.68942,-2.47436 0.68942,-1.14273 1.86994,-1.79438 1.18996,-0.66109 2.58768,-0.66109 1.38829,0 2.5688,0.66109 1.18052,0.65165 1.86994,1.79438 z m -8.07472,2.47436 q 0,1.46384 1.06719,2.4838 1.06718,1.01997 2.58768,1.01997 1.5205,0 2.59713,-1.01997 1.07663,-1.02941 1.07663,-2.4838 0,-1.44495 -1.07663,-2.46491 -1.07663,-1.02941 -2.59713,-1.02941 -1.5205,0 -2.58768,1.02941 -1.06719,1.01996 -1.06719,2.46491 z"
           inkscape:connector-curvature="0" />
        <path
           id="path4507"
           style="font-style:normal;font-variant:normal;font-weight:bold;font-stretch:normal;font-family:Sawasdee;-inkscape-font-specification:'Sawasdee Bold'"
           d="m 323.31817,739.77261 q 0.43443,-0.83109 1.16163,-1.39773 0.73664,-0.57609 1.45439,-0.57609 1.01052,0 1.67161,0.53831 0.66109,0.52887 0.97274,1.43551 0.52887,-0.85942 1.23718,-1.41662 0.71775,-0.5572 1.42606,-0.5572 0.60442,0 1.10496,0.22665 0.50054,0.21722 0.83108,0.58554 0.33055,0.36832 0.55721,0.8783 0.22666,0.50054 0.3211,1.05774 0.10388,0.54776 0.10388,1.14274 l 0,5.80813 -1.47328,0 0,-5.80813 q 0,-0.43443 -0.0756,-0.83108 -0.0661,-0.39665 -0.21722,-0.77442 -0.1511,-0.38721 -0.45331,-0.61387 -0.30222,-0.2361 -0.71776,-0.2361 -0.50998,0 -1.1144,0.61387 -0.59498,0.60442 -0.99163,1.4355 -0.38721,0.82164 -0.38721,1.43551 l 0,4.77872 -1.48273,0 0,-5.85535 q 0,-0.43443 -0.0661,-0.83108 -0.0661,-0.39665 -0.22666,-0.77442 -0.1511,-0.38721 -0.46276,-0.61387 -0.30221,-0.2361 -0.71775,-0.2361 -0.47221,0 -1.05774,0.59498 -0.58554,0.58553 -0.99163,1.42606 -0.4061,0.84053 -0.4061,1.49217 l 0,4.79761 -1.50161,0 0,-6.76198 q 0,-0.7272 -0.12278,-1.6055 -0.11333,-0.88775 -0.30221,-1.22774 l 1.67161,0 q 0.16999,0.5572 0.20777,0.86886 0.0472,0.30221 0.0472,1.00108 z"
           inkscape:connector-curvature="0" />
        <path
           id="path4509"
           style="font-style:normal;font-variant:normal;font-weight:bold;font-stretch:normal;font-family:Sawasdee;-inkscape-font-specification:'Sawasdee Bold'"
           d="m 336.4266,737.90267 1.67161,0 q 0.25499,0.80275 0.25499,1.48273 0.61386,-0.70831 1.46383,-1.16163 0.85942,-0.45332 1.6905,-0.45332 1.2844,0 2.34214,0.67998 1.06719,0.67998 1.66216,1.81327 0.60443,1.12385 0.60443,2.43658 0,1.31273 -0.60443,2.44603 -0.59497,1.12384 -1.66216,1.80382 -1.05774,0.67053 -2.34214,0.67053 -0.84053,0 -1.69994,-0.42498 -0.85941,-0.43443 -1.45439,-1.1333 l 0,5.88369 -1.50162,0 0,-11.22905 q 0,-0.71776 -0.12277,-1.6055 -0.11333,-0.88775 -0.30221,-1.20885 z m 1.9266,4.79761 q 0,1.47328 0.93496,2.49325 0.94442,1.01052 2.21937,1.01052 1.25607,0 2.20048,-1.01997 0.94441,-1.01996 0.94441,-2.4838 0,-1.46384 -0.94441,-2.4838 -0.94441,-1.02941 -2.20048,-1.02941 -1.27495,0 -2.21937,1.02941 -0.93496,1.01996 -0.93496,2.4838 z"
           inkscape:connector-curvature="0" />
        <path
           id="path4511"
           style="font-style:normal;font-variant:normal;font-weight:bold;font-stretch:normal;font-family:Sawasdee;-inkscape-font-specification:'Sawasdee Bold'"
           d="m 357.53419,740.22592 q 0.68942,1.1333 0.68942,2.47436 0,1.34106 -0.68942,2.47436 -0.68942,1.13329 -1.86994,1.79438 -1.18051,0.65164 -2.56879,0.65164 -1.39773,0 -2.58769,-0.65164 -1.18051,-0.66109 -1.86993,-1.79438 -0.68943,-1.1333 -0.68943,-2.47436 0,-1.34106 0.68943,-2.47436 0.68942,-1.14273 1.86993,-1.79438 1.18996,-0.66109 2.58769,-0.66109 1.38828,0 2.56879,0.66109 1.18052,0.65165 1.86994,1.79438 z m -8.07472,2.47436 q 0,1.46384 1.06719,2.4838 1.06718,1.01997 2.58768,1.01997 1.52051,0 2.59713,-1.01997 1.07663,-1.02941 1.07663,-2.4838 0,-1.44495 -1.07663,-2.46491 -1.07662,-1.02941 -2.59713,-1.02941 -1.5205,0 -2.58768,1.02941 -1.06719,1.01996 -1.06719,2.46491 z"
           inkscape:connector-curvature="0" />
        <path
           id="path4513"
           style="font-style:normal;font-variant:normal;font-weight:bold;font-stretch:normal;font-family:Sawasdee;-inkscape-font-specification:'Sawasdee Bold'"
           d="m 359.75355,737.90267 1.71883,0 2.37048,3.296 2.37047,-3.296 1.77549,0 -3.25822,4.55206 3.63599,5.04316 -1.7755,0 -2.7199,-3.80598 -2.72935,3.80598 -1.75661,0 3.6171,-5.04316 -3.24878,-4.55206 z"
           inkscape:connector-curvature="0" />
        <path
           id="path4515"
           style="font-style:normal;font-variant:normal;font-weight:bold;font-stretch:normal;font-family:Sawasdee;-inkscape-font-specification:'Sawasdee Bold'"
           d="m 369.90597,737.92156 1.50162,0 0,5.83646 q 0,1.0483 0.6422,1.74716 0.6422,0.69887 1.54883,0.69887 0.92552,0 1.59606,-0.69887 0.67997,-0.70831 0.67997,-1.74716 l 0,-5.83646 1.49217,0 0,5.83646 q 0,1.59606 -1.08607,2.73879 -1.07663,1.14274 -2.64435,1.14274 -1.56772,0 -2.6538,-1.14274 -1.07663,-1.14273 -1.07663,-2.73879 l 0,-5.83646 z"
           inkscape:connector-curvature="0" />
        <path
           id="path4517"
           style="font-style:normal;font-variant:normal;font-weight:bold;font-stretch:normal;font-family:Sawasdee;-inkscape-font-specification:'Sawasdee Bold'"
           d="m 381.50335,739.32873 q 1.01052,-1.13329 2.3138,-1.59605 l 1.87938,1.31273 q -0.81219,0 -1.47328,0.16999 -0.66109,0.16055 -1.08607,0.41554 -0.42499,0.24555 -0.74609,0.59498 -0.3211,0.34944 -0.48165,0.67054 -0.16055,0.32109 -0.26443,0.68942 -0.0944,0.35887 -0.12277,0.57609 -0.0189,0.21721 -0.0189,0.41554 l 0,4.92038 -1.47328,0 0,-6.76198 q 0,-0.70831 -0.13222,-1.6055 -0.12278,-0.89719 -0.29277,-1.22774 l 1.65272,0 q 0.24555,0.67053 0.24555,1.42606 z"
           inkscape:connector-curvature="0" />
        <path
           id="path4519"
           style="font-style:normal;font-variant:normal;font-weight:bold;font-stretch:normal;font-family:Sawasdee;-inkscape-font-specification:'Sawasdee Bold'"
           d="m 388.20867,741.62365 5.99701,0 q -0.30221,-1.07663 -1.14274,-1.74716 -0.83108,-0.67053 -1.85105,-0.67053 -1.00107,0 -1.8416,0.67053 -0.83108,0.67053 -1.16162,1.74716 z m -0.17,1.39773 q 0.11333,1.35995 1.02941,2.26659 0.91608,0.89719 2.10604,0.89719 0.93497,0 1.73771,-0.47221 0.80275,-0.48165 1.35051,-1.40717 l 1.2844,0.68942 q -0.36832,0.65164 -0.85941,1.15218 -0.4911,0.4911 -0.95386,0.76497 -0.46276,0.27388 -0.97274,0.44388 -0.50998,0.16999 -0.8783,0.21721 -0.35888,0.0472 -0.70831,0.0472 -1.2844,0 -2.35159,-0.67053 -1.06718,-0.67053 -1.6716,-1.79438 -0.59498,-1.13329 -0.59498,-2.45547 0,-1.31273 0.61386,-2.43658 0.61387,-1.13329 1.6905,-1.81327 1.07663,-0.67998 2.35158,-0.67998 1.2183,0 2.2477,0.61387 1.02941,0.61387 1.65272,1.65272 0.62331,1.02941 0.7272,2.25714 l 0.0378,0.7272 -7.83862,0 z"
           inkscape:connector-curvature="0" />
      </g>
    </g>
    <g
       id="g4538">
      <g
         id="flowRoot4477"
         style="font-style:normal;font-weight:normal;font-size:19.34154129px;line-height:125%;font-family:sans-serif;text-align:center;letter-spacing:0px;word-spacing:0px;text-anchor:middle;fill:#000000;fill-opacity:1;stroke:none;stroke-width:1px;stroke-linecap:butt;stroke-linejoin:miter;stroke-opacity:1"
         transform="translate(-56.857148,1)">
        <path
           id="path4522"
           style="font-style:normal;font-variant:normal;font-weight:bold;font-stretch:normal;font-family:Sawasdee;-inkscape-font-specification:'Sawasdee Bold';text-align:center;text-anchor:middle"
           d="m 602.35615,736.81218 1.47328,0 0,5.74202 q 0,1.06719 0.6422,1.78494 0.6422,0.71775 1.53939,0.71775 0.91608,0 1.57716,-0.71775 0.66109,-0.71775 0.66109,-1.78494 l 0,-5.74202 1.49217,0 0,5.74202 q 0,1.62439 -1.06718,2.79546 -1.06719,1.16163 -2.62547,1.16163 -1.23718,0 -2.21936,-0.77442 l 0,3.126 q 0,0.65165 0.3211,1.33162 l 0.1511,0.27388 -1.2844,0.67998 -0.1511,-0.28333 q -0.50998,-0.8783 -0.50998,-1.97382 l 0,-12.07902 z"
           inkscape:connector-curvature="0" />
        <path
           id="path4524"
           style="font-style:normal;font-variant:normal;font-weight:bold;font-stretch:normal;font-family:Sawasdee;-inkscape-font-specification:'Sawasdee Bold';text-align:center;text-anchor:middle"
           d="m 620.57384,735.1878 -1.40717,0.48165 -0.10389,-0.31166 q -0.30221,-0.84997 -0.9633,-1.29384 -0.66109,-0.44388 -1.44495,-0.44388 -0.91608,0 -1.49217,0.58554 -0.57609,0.57609 -0.57609,1.40717 0,0.44388 0.22666,0.80275 0.2361,0.35888 0.62331,0.61387 0.38721,0.25499 0.89719,0.49109 0.50998,0.22666 1.06719,0.46276 0.5572,0.22666 1.1144,0.48165 0.5572,0.24555 1.06719,0.59498 0.50998,0.33999 0.89719,0.76498 0.38721,0.41554 0.61386,1.0294 0.23611,0.60443 0.23611,1.34107 0,1.25607 -0.67054,2.27603 -0.67053,1.01052 -1.73771,1.54883 -1.06719,0.52887 -2.28548,0.52887 -0.80275,0 -1.53939,-0.25499 -0.73664,-0.25499 -1.37884,-0.75553 -0.63275,-0.50053 -1.08607,-1.33162 -0.45332,-0.84052 -0.60442,-1.91715 l -0.0472,-0.3211 1.48272,-0.17944 0.0472,0.30221 q 0.11333,0.76498 0.41554,1.35996 0.30221,0.58553 0.7272,0.93496 0.42498,0.33999 0.92552,0.51943 0.50054,0.16999 1.05774,0.16999 1.29385,0 2.2477,-0.81219 0.9633,-0.81219 0.9633,-2.10604 0,-0.69886 -0.37776,-1.22773 -0.36832,-0.52887 -0.9633,-0.85942 -0.58554,-0.33998 -1.30329,-0.63275 -0.71775,-0.30221 -1.44495,-0.62331 -0.71775,-0.3211 -1.31273,-0.71776 -0.58554,-0.39665 -0.9633,-1.0294 -0.36832,-0.6422 -0.36832,-1.48273 0,-1.42606 0.99163,-2.42714 0.99163,-1.01052 2.54991,-1.01052 1.23718,0 2.29492,0.71776 1.05774,0.71775 1.51106,2.02104 l 0.11333,0.30221 z"
           inkscape:connector-curvature="0" />
        <path
           id="path4526"
           style="font-style:normal;font-variant:normal;font-weight:bold;font-stretch:normal;font-family:Sawasdee;-inkscape-font-specification:'Sawasdee Bold';text-align:center;text-anchor:middle"
           d="m 624.81424,740.51428 5.99702,0 q -0.30222,-1.07663 -1.14274,-1.74716 -0.83108,-0.67054 -1.85105,-0.67054 -1.00107,0 -1.8416,0.67054 -0.83108,0.67053 -1.16163,1.74716 z m -0.16999,1.39773 q 0.11333,1.35995 1.02941,2.26658 0.91608,0.89719 2.10604,0.89719 0.93496,0 1.73771,-0.4722 0.80275,-0.48165 1.35051,-1.40718 l 1.2844,0.68942 q -0.36832,0.65165 -0.85942,1.15219 -0.49109,0.49109 -0.95385,0.76497 -0.46276,0.27388 -0.97274,0.44387 -0.50999,0.17 -0.87831,0.21722 -0.35887,0.0472 -0.7083,0.0472 -1.2844,0 -2.35159,-0.67053 -1.06718,-0.67054 -1.67161,-1.79439 -0.59498,-1.13329 -0.59498,-2.45546 0,-1.31274 0.61387,-2.43659 0.61387,-1.13329 1.6905,-1.81326 1.07663,-0.67998 2.35158,-0.67998 1.21829,0 2.2477,0.61387 1.02941,0.61386 1.65272,1.65272 0.62331,1.0294 0.7272,2.25714 l 0.0378,0.7272 -7.83861,0 z"
           inkscape:connector-curvature="0" />
        <path
           id="path4528"
           style="font-style:normal;font-variant:normal;font-weight:bold;font-stretch:normal;font-family:Sawasdee;-inkscape-font-specification:'Sawasdee Bold';text-align:center;text-anchor:middle"
           d="m 636.24162,738.21936 q 1.01052,-1.1333 2.31381,-1.59606 l 1.87938,1.31273 q -0.8122,0 -1.47329,0.17 -0.66108,0.16055 -1.08607,0.41554 -0.42498,0.24555 -0.74608,0.59498 -0.3211,0.34943 -0.48165,0.67053 -0.16055,0.3211 -0.26444,0.68942 -0.0944,0.35888 -0.12277,0.57609 -0.0189,0.21722 -0.0189,0.41554 l 0,4.92038 -1.47328,0 0,-6.76198 q 0,-0.70831 -0.13222,-1.6055 -0.12277,-0.89719 -0.29277,-1.22773 l 1.65272,0 q 0.24555,0.67053 0.24555,1.42606 z"
           inkscape:connector-curvature="0" />
        <path
           id="path4530"
           style="font-style:normal;font-variant:normal;font-weight:bold;font-stretch:normal;font-family:Sawasdee;-inkscape-font-specification:'Sawasdee Bold';text-align:center;text-anchor:middle"
           d="m 640.6048,736.7933 1.6055,0 2.93712,6.06312 2.94656,-6.06312 1.61494,0 -4.52373,9.73688 -4.58039,-9.73688 z"
           inkscape:connector-curvature="0" />
        <path
           id="path4532"
           style="font-style:normal;font-variant:normal;font-weight:bold;font-stretch:normal;font-family:Sawasdee;-inkscape-font-specification:'Sawasdee Bold';text-align:center;text-anchor:middle"
           d="m 651.98496,733.68618 q 0.44387,0 0.75552,0.30222 0.3211,0.30221 0.3211,0.73664 0,0.42498 -0.3211,0.71775 -0.31165,0.29277 -0.75552,0.29277 -0.46277,0 -0.77442,-0.29277 -0.31166,-0.29277 -0.31166,-0.71775 0,-0.43443 0.31166,-0.73664 0.3211,-0.30222 0.77442,-0.30222 z m 0.72719,12.70233 -1.49217,0 0,-9.57633 1.49217,0 0,9.57633 z"
           inkscape:connector-curvature="0" />
        <path
           id="path4534"
           style="font-style:normal;font-variant:normal;font-weight:bold;font-stretch:normal;font-family:Sawasdee;-inkscape-font-specification:'Sawasdee Bold';text-align:center;text-anchor:middle"
           d="m 662.35459,743.1964 1.29384,0.68942 q -1.5205,2.62547 -4.09874,2.62547 -1.2844,0 -2.35159,-0.67053 -1.06718,-0.67054 -1.67161,-1.79439 -0.59497,-1.13329 -0.59497,-2.45546 0,-1.31274 0.59497,-2.43659 0.60443,-1.13329 1.67161,-1.81326 1.06719,-0.67998 2.35159,-0.67998 0.52887,0 1.0294,0.13222 0.50054,0.12277 0.84997,0.29276 0.35888,0.16055 0.71776,0.45332 0.36832,0.29277 0.56664,0.48165 0.19833,0.18888 0.43443,0.51943 0.24555,0.33054 0.30221,0.42498 0.0567,0.0944 0.19833,0.3211 l -1.29384,0.7272 q -0.14166,-0.25499 -0.26444,-0.42499 -0.11333,-0.17943 -0.38721,-0.48165 -0.26443,-0.30221 -0.54775,-0.49109 -0.27388,-0.19833 -0.69887,-0.33999 -0.42498,-0.1511 -0.90663,-0.1511 -1.2844,0 -2.22881,0.99163 -0.93497,0.99163 -0.93497,2.45547 0,1.46383 0.94441,2.4838 0.95386,1.01996 2.21937,1.01996 0.50053,0 0.95385,-0.16999 0.45332,-0.17 0.7272,-0.35888 0.27388,-0.18888 0.54776,-0.51942 0.28332,-0.33999 0.35887,-0.46277 0.0756,-0.12277 0.21722,-0.36832 z"
           inkscape:connector-curvature="0" />
        <path
           id="path4536"
           style="font-style:normal;font-variant:normal;font-weight:bold;font-stretch:normal;font-family:Sawasdee;-inkscape-font-specification:'Sawasdee Bold';text-align:center;text-anchor:middle"
           d="m 667.08609,740.51428 5.99701,0 q -0.30221,-1.07663 -1.14274,-1.74716 -0.83108,-0.67054 -1.85104,-0.67054 -1.00108,0 -1.84161,0.67054 -0.83108,0.67053 -1.16162,1.74716 z m -0.17,1.39773 q 0.11333,1.35995 1.02941,2.26658 0.91608,0.89719 2.10604,0.89719 0.93497,0 1.73772,-0.4722 0.80275,-0.48165 1.3505,-1.40718 l 1.2844,0.68942 q -0.36832,0.65165 -0.85941,1.15219 -0.49109,0.49109 -0.95386,0.76497 -0.46276,0.27388 -0.97274,0.44387 -0.50998,0.17 -0.8783,0.21722 -0.35888,0.0472 -0.70831,0.0472 -1.2844,0 -2.35158,-0.67053 -1.06719,-0.67054 -1.67161,-1.79439 -0.59498,-1.13329 -0.59498,-2.45546 0,-1.31274 0.61387,-2.43659 0.61386,-1.13329 1.69049,-1.81326 1.07663,-0.67998 2.35159,-0.67998 1.21829,0 2.2477,0.61387 1.0294,0.61386 1.65271,1.65272 0.62332,1.0294 0.7272,2.25714 l 0.0378,0.7272 -7.83862,0 z"
           inkscape:connector-curvature="0" />
      </g>
      <g
         transform="translate(2.28571,1)"
         id="g5343">
        <rect
           style="opacity:1;fill:#e0e0d1;fill-opacity:1;stroke:none;stroke-width:1;stroke-linecap:round;stroke-linejoin:round;stroke-miterlimit:4;stroke-dasharray:none;stroke-dashoffset:0;stroke-opacity:1"
           id="rect4449"
           width="106.65392"
           height="102.48667"
           x="527.6897"
           y="625.5368"
           ry="15.675912" />
        <g
           id="g5233"
           transform="translate(91.428571,136.42857)">
          <g
             id="g5203"
             transform="translate(139.00367,-38.86003)"
             style="fill:#000000;fill-opacity:1;filter:url(#filter4735)">
            <g
               transform="matrix(0.04687602,0,0,-0.04687602,305.24715,609.43566)"
               id="g5205"
               style="fill:#000000;fill-opacity:1">
              <path
                 d="m 1024,640 q 0,106 -75,181 -75,75 -181,75 -106,0 -181,-75 -75,-75 -75,-181 0,-106 75,-181 75,-75 181,-75 106,0 181,75 75,75 75,181 z m 512,109 0,-222 q 0,-12 -8,-23 -8,-11 -20,-13 l -185,-28 q -19,-54 -39,-91 35,-50 107,-138 10,-12 10,-25 0,-13 -9,-23 -27,-37 -99,-108 -72,-71 -94,-71 -12,0 -26,9 l -138,108 q -44,-23 -91,-38 -16,-136 -29,-186 -7,-28 -36,-28 l -222,0 q -14,0 -24.5,8.5 Q 622,-111 621,-98 L 593,86 q -49,16 -90,37 L 362,16 Q 352,7 337,7 323,7 312,18 186,132 147,186 q -7,10 -7,23 0,12 8,23 15,21 51,66.5 36,45.5 54,70.5 -27,50 -41,99 L 29,495 Q 16,497 8,507.5 0,518 0,531 l 0,222 q 0,12 8,23 8,11 19,13 l 186,28 q 14,46 39,92 -40,57 -107,138 -10,12 -10,24 0,10 9,23 26,36 98.5,107.5 72.5,71.5 94.5,71.5 13,0 26,-10 l 138,-107 q 44,23 91,38 16,136 29,186 7,28 36,28 l 222,0 q 14,0 24.5,-8.5 Q 914,1391 915,1378 l 28,-184 q 49,-16 90,-37 l 142,107 q 9,9 24,9 13,0 25,-10 129,-119 165,-170 7,-8 7,-22 0,-12 -8,-23 -15,-21 -51,-66.5 -36,-45.5 -54,-70.5 26,-50 41,-98 l 183,-28 q 13,-2 21,-12.5 8,-10.5 8,-23.5 z"
                 id="path5207"
                 inkscape:connector-curvature="0"
                 style="fill:#000000;fill-opacity:1" />
            </g>
            <g
               id="g5209"
               transform="matrix(0.02011557,-5.8377607e-4,-5.8377607e-4,-0.02011557,367.22654,567.04004)"
               style="fill:#000000;fill-opacity:1">
              <path
                 style="fill:#000000;fill-opacity:1"
                 inkscape:connector-curvature="0"
                 id="path5211"
                 d="m 1024,640 q 0,106 -75,181 -75,75 -181,75 -106,0 -181,-75 -75,-75 -75,-181 0,-106 75,-181 75,-75 181,-75 106,0 181,75 75,75 75,181 z m 512,109 0,-222 q 0,-12 -8,-23 -8,-11 -20,-13 l -185,-28 q -19,-54 -39,-91 35,-50 107,-138 10,-12 10,-25 0,-13 -9,-23 -27,-37 -99,-108 -72,-71 -94,-71 -12,0 -26,9 l -138,108 q -44,-23 -91,-38 -16,-136 -29,-186 -7,-28 -36,-28 l -222,0 q -14,0 -24.5,8.5 Q 622,-111 621,-98 L 593,86 q -49,16 -90,37 L 362,16 Q 352,7 337,7 323,7 312,18 186,132 147,186 q -7,10 -7,23 0,12 8,23 15,21 51,66.5 36,45.5 54,70.5 -27,50 -41,99 L 29,495 Q 16,497 8,507.5 0,518 0,531 l 0,222 q 0,12 8,23 8,11 19,13 l 186,28 q 14,46 39,92 -40,57 -107,138 -10,12 -10,24 0,10 9,23 26,36 98.5,107.5 72.5,71.5 94.5,71.5 13,0 26,-10 l 138,-107 q 44,23 91,38 16,136 29,186 7,28 36,28 l 222,0 q 14,0 24.5,-8.5 Q 914,1391 915,1378 l 28,-184 q 49,-16 90,-37 l 142,107 q 9,9 24,9 13,0 25,-10 129,-119 165,-170 7,-8 7,-22 0,-12 -8,-23 -15,-21 -51,-66.5 -36,-45.5 -54,-70.5 26,-50 41,-98 l 183,-28 q 13,-2 21,-12.5 8,-10.5 8,-23.5 z" />
            </g>
          </g>
          <g
             style="fill:#77b3d4;fill-opacity:1"
             id="g5213"
             transform="translate(134.85643,-38.39301)">
            <g
               style="fill:#77b3d4;fill-opacity:1"
               id="g5215"
               transform="matrix(0.04687602,0,0,-0.04687602,305.24715,609.43566)">
              <path
                 style="fill:#77b3d4;fill-opacity:1"
                 inkscape:connector-curvature="0"
                 id="path5217"
                 d="m 1024,640 q 0,106 -75,181 -75,75 -181,75 -106,0 -181,-75 -75,-75 -75,-181 0,-106 75,-181 75,-75 181,-75 106,0 181,75 75,75 75,181 z m 512,109 0,-222 q 0,-12 -8,-23 -8,-11 -20,-13 l -185,-28 q -19,-54 -39,-91 35,-50 107,-138 10,-12 10,-25 0,-13 -9,-23 -27,-37 -99,-108 -72,-71 -94,-71 -12,0 -26,9 l -138,108 q -44,-23 -91,-38 -16,-136 -29,-186 -7,-28 -36,-28 l -222,0 q -14,0 -24.5,8.5 Q 622,-111 621,-98 L 593,86 q -49,16 -90,37 L 362,16 Q 352,7 337,7 323,7 312,18 186,132 147,186 q -7,10 -7,23 0,12 8,23 15,21 51,66.5 36,45.5 54,70.5 -27,50 -41,99 L 29,495 Q 16,497 8,507.5 0,518 0,531 l 0,222 q 0,12 8,23 8,11 19,13 l 186,28 q 14,46 39,92 -40,57 -107,138 -10,12 -10,24 0,10 9,23 26,36 98.5,107.5 72.5,71.5 94.5,71.5 13,0 26,-10 l 138,-107 q 44,23 91,38 16,136 29,186 7,28 36,28 l 222,0 q 14,0 24.5,-8.5 Q 914,1391 915,1378 l 28,-184 q 49,-16 90,-37 l 142,107 q 9,9 24,9 13,0 25,-10 129,-119 165,-170 7,-8 7,-22 0,-12 -8,-23 -15,-21 -51,-66.5 -36,-45.5 -54,-70.5 26,-50 41,-98 l 183,-28 q 13,-2 21,-12.5 8,-10.5 8,-23.5 z" />
            </g>
            <g
               style="fill:#77b3d4;fill-opacity:1"
               transform="matrix(0.02011557,-5.8377607e-4,-5.8377607e-4,-0.02011557,367.22654,567.04004)"
               id="g5219">
              <path
                 d="m 1024,640 q 0,106 -75,181 -75,75 -181,75 -106,0 -181,-75 -75,-75 -75,-181 0,-106 75,-181 75,-75 181,-75 106,0 181,75 75,75 75,181 z m 512,109 0,-222 q 0,-12 -8,-23 -8,-11 -20,-13 l -185,-28 q -19,-54 -39,-91 35,-50 107,-138 10,-12 10,-25 0,-13 -9,-23 -27,-37 -99,-108 -72,-71 -94,-71 -12,0 -26,9 l -138,108 q -44,-23 -91,-38 -16,-136 -29,-186 -7,-28 -36,-28 l -222,0 q -14,0 -24.5,8.5 Q 622,-111 621,-98 L 593,86 q -49,16 -90,37 L 362,16 Q 352,7 337,7 323,7 312,18 186,132 147,186 q -7,10 -7,23 0,12 8,23 15,21 51,66.5 36,45.5 54,70.5 -27,50 -41,99 L 29,495 Q 16,497 8,507.5 0,518 0,531 l 0,222 q 0,12 8,23 8,11 19,13 l 186,28 q 14,46 39,92 -40,57 -107,138 -10,12 -10,24 0,10 9,23 26,36 98.5,107.5 72.5,71.5 94.5,71.5 13,0 26,-10 l 138,-107 q 44,23 91,38 16,136 29,186 7,28 36,28 l 222,0 q 14,0 24.5,-8.5 Q 914,1391 915,1378 l 28,-184 q 49,-16 90,-37 l 142,107 q 9,9 24,9 13,0 25,-10 129,-119 165,-170 7,-8 7,-22 0,-12 -8,-23 -15,-21 -51,-66.5 -36,-45.5 -54,-70.5 26,-50 41,-98 l 183,-28 q 13,-2 21,-12.5 8,-10.5 8,-23.5 z"
                 id="path5221"
                 inkscape:connector-curvature="0"
                 style="fill:#77b3d4;fill-opacity:1" />
            </g>
          </g>
        </g>
      </g>
    </g>
    <path
       inkscape:connector-curvature="0"
       sodipodi:nodetypes="cccccccc"
       id="path5519"
       d="m 498.36465,712.52265 -25.65182,-19.62858 0,11.76298 -40.08368,0 0,15.73121 40.22542,0 0,11.62126 25.51008,-19.48687 z"
       style="fill:none;fill-opacity:1;stroke:#4e6070;stroke-width:2.26756263;stroke-linecap:round;stroke-linejoin:round;stroke-miterlimit:4;stroke-dasharray:none;stroke-opacity:1" />
    <g
       id="g6156"
       transform="translate(179.14286,195.28572)">
      <rect
         style="opacity:1;fill:#ffffff;fill-opacity:1;stroke:#4e6070;stroke-width:1.23833919;stroke-linecap:round;stroke-linejoin:round;stroke-miterlimit:4;stroke-dasharray:none;stroke-dashoffset:0;stroke-opacity:1"
         id="rect6104"
         width="11.748999"
         height="11.393481"
         x="526.69879"
         y="52.176483"
         transform="matrix(0.66275427,0.74883695,-0.70385218,0.71034647,0,0)" />
      <path
         inkscape:connector-curvature="0"
         style="opacity:1;fill:#ffffff;fill-opacity:1;stroke:#4e6070;stroke-width:1;stroke-linecap:round;stroke-linejoin:round;stroke-miterlimit:4;stroke-dasharray:none;stroke-dashoffset:0;stroke-opacity:1"
         d="m 251.71848,431.33352 0,52.02344 68.68945,0 0,-43.04492 -8.29101,0 0,-8.97852 -60.39844,0 z"
         id="path6106" />
      <g
         id="g6112"
         transform="matrix(1.4413375,0,0,1.7538375,229.45587,392.08638)">
        <rect
           id="rect6114"
           height="2"
           width="16"
           class="st4"
           y="28"
           x="32"
           style="fill:#e0e0d1" />
      </g>
      <g
         id="g6116"
         transform="matrix(1.4413375,0,0,1.7538375,229.45587,392.08638)">
        <rect
           id="rect6118"
           height="2"
           width="16"
           class="st4"
           y="32"
           x="32"
           style="fill:#e0e0d1" />
      </g>
      <g
         id="g6120"
         transform="matrix(1.4413375,0,0,1.7538375,229.45587,392.08638)">
        <rect
           id="rect6122"
           height="2"
           width="16"
           class="st4"
           y="36"
           x="32"
           style="fill:#e0e0d1" />
      </g>
      <g
         id="g6124"
         transform="matrix(1.4413375,0,0,1.7538375,229.45587,392.08638)">
        <rect
           id="rect6126"
           height="2"
           width="16"
           class="st4"
           y="40"
           x="32"
           style="fill:#e0e0d1" />
      </g>
      <g
         id="g6128"
         transform="matrix(1.4413375,0,0,1.7538375,229.45587,392.08638)">
        <rect
           id="rect6130"
           height="2"
           width="16"
           class="st4"
           y="44"
           x="32"
           style="fill:#e0e0d1" />
      </g>
      <g
         style="fill:none;fill-opacity:1;stroke:#ff0010;stroke-width:0.6901769;stroke-miterlimit:4;stroke-dasharray:1.38035379, 0.6901769;stroke-dashoffset:0;stroke-opacity:1"
         transform="matrix(0.95026607,0,0,1.7538375,288.92015,392.08638)"
         id="g6132">
        <rect
           style="fill:none;fill-opacity:1;stroke:#ff0010;stroke-width:0.6901769;stroke-miterlimit:4;stroke-dasharray:1.38035379, 0.6901769;stroke-dashoffset:0;stroke-opacity:1"
           x="16"
           y="28"
           class="st8"
           width="12"
           height="18"
           id="rect6134" />
      </g>
      <g
         id="g6152"
         transform="matrix(0.95026607,0,0,1.7538375,242.92015,392.08638)"
         style="fill:none;fill-opacity:1;stroke:#ff0010;stroke-width:0.6901769;stroke-miterlimit:4;stroke-dasharray:1.38035379, 0.6901769;stroke-dashoffset:0;stroke-opacity:1">
        <rect
           id="rect6154"
           height="18"
           width="12"
           class="st8"
           y="28"
           x="16"
           style="fill:none;fill-opacity:1;stroke:#ff0010;stroke-width:0.6901769;stroke-miterlimit:4;stroke-dasharray:1.38035379, 0.6901769;stroke-dashoffset:0;stroke-opacity:1" />
      </g>
    </g>
    <path
       style="fill:none;fill-opacity:1;stroke:#4e6070;stroke-width:0.90686291;stroke-linecap:round;stroke-linejoin:round;stroke-miterlimit:4;stroke-dasharray:none;stroke-opacity:1"
       d="m 409.96684,652.42919 6.95047,11.58664 0,-6.94362 10.86086,0 0,-9.28603 -10.89925,0 0,-6.85996 -6.91208,11.50297 z"
       id="path6354"
       sodipodi:nodetypes="cccccccc"
       inkscape:connector-curvature="0" />
    <path
       inkscape:connector-curvature="0"
       sodipodi:nodetypes="cccccccc"
       id="path6356"
       d="m 502.82398,651.7149 6.95047,11.58664 0,-6.94362 10.86086,0 0,-9.28603 -10.89925,0 0,-6.85996 -6.91208,11.50297 z"
       style="fill:none;fill-opacity:1;stroke:#4e6070;stroke-width:0.90686291;stroke-linecap:round;stroke-linejoin:round;stroke-miterlimit:4;stroke-dasharray:none;stroke-opacity:1" />
    <g
       id="g4467"
       transform="matrix(0.38753617,0,0,0.38753617,144.92709,309.37641)">
      <g
         transform="translate(-51.428571,-127.85714)"
         id="g4469">
        <rect
           ry="15.675912"
           y="625.5368"
           x="527.6897"
           height="102.48667"
           width="106.65392"
           id="rect4471"
           style="opacity:1;fill:#e0e0d1;fill-opacity:1;stroke:none;stroke-width:1;stroke-linecap:round;stroke-linejoin:round;stroke-miterlimit:4;stroke-dasharray:none;stroke-dashoffset:0;stroke-opacity:1" />
        <g
           transform="translate(91.428571,136.42857)"
           id="g4473">
          <g
             style="fill:#000000;fill-opacity:1;filter:url(#filter4735)"
             transform="translate(139.00367,-38.86003)"
             id="g4475">
            <g
               style="fill:#000000;fill-opacity:1"
               id="g4477"
               transform="matrix(0.04687602,0,0,-0.04687602,305.24715,609.43566)">
              <path
                 style="fill:#000000;fill-opacity:1"
                 inkscape:connector-curvature="0"
                 id="path4479"
                 d="m 1024,640 q 0,106 -75,181 -75,75 -181,75 -106,0 -181,-75 -75,-75 -75,-181 0,-106 75,-181 75,-75 181,-75 106,0 181,75 75,75 75,181 z m 512,109 0,-222 q 0,-12 -8,-23 -8,-11 -20,-13 l -185,-28 q -19,-54 -39,-91 35,-50 107,-138 10,-12 10,-25 0,-13 -9,-23 -27,-37 -99,-108 -72,-71 -94,-71 -12,0 -26,9 l -138,108 q -44,-23 -91,-38 -16,-136 -29,-186 -7,-28 -36,-28 l -222,0 q -14,0 -24.5,8.5 Q 622,-111 621,-98 L 593,86 q -49,16 -90,37 L 362,16 Q 352,7 337,7 323,7 312,18 186,132 147,186 q -7,10 -7,23 0,12 8,23 15,21 51,66.5 36,45.5 54,70.5 -27,50 -41,99 L 29,495 Q 16,497 8,507.5 0,518 0,531 l 0,222 q 0,12 8,23 8,11 19,13 l 186,28 q 14,46 39,92 -40,57 -107,138 -10,12 -10,24 0,10 9,23 26,36 98.5,107.5 72.5,71.5 94.5,71.5 13,0 26,-10 l 138,-107 q 44,23 91,38 16,136 29,186 7,28 36,28 l 222,0 q 14,0 24.5,-8.5 Q 914,1391 915,1378 l 28,-184 q 49,-16 90,-37 l 142,107 q 9,9 24,9 13,0 25,-10 129,-119 165,-170 7,-8 7,-22 0,-12 -8,-23 -15,-21 -51,-66.5 -36,-45.5 -54,-70.5 26,-50 41,-98 l 183,-28 q 13,-2 21,-12.5 8,-10.5 8,-23.5 z" />
            </g>
            <g
               style="fill:#000000;fill-opacity:1"
               transform="matrix(0.02011557,-5.8377607e-4,-5.8377607e-4,-0.02011557,367.22654,567.04004)"
               id="g4481">
              <path
                 d="m 1024,640 q 0,106 -75,181 -75,75 -181,75 -106,0 -181,-75 -75,-75 -75,-181 0,-106 75,-181 75,-75 181,-75 106,0 181,75 75,75 75,181 z m 512,109 0,-222 q 0,-12 -8,-23 -8,-11 -20,-13 l -185,-28 q -19,-54 -39,-91 35,-50 107,-138 10,-12 10,-25 0,-13 -9,-23 -27,-37 -99,-108 -72,-71 -94,-71 -12,0 -26,9 l -138,108 q -44,-23 -91,-38 -16,-136 -29,-186 -7,-28 -36,-28 l -222,0 q -14,0 -24.5,8.5 Q 622,-111 621,-98 L 593,86 q -49,16 -90,37 L 362,16 Q 352,7 337,7 323,7 312,18 186,132 147,186 q -7,10 -7,23 0,12 8,23 15,21 51,66.5 36,45.5 54,70.5 -27,50 -41,99 L 29,495 Q 16,497 8,507.5 0,518 0,531 l 0,222 q 0,12 8,23 8,11 19,13 l 186,28 q 14,46 39,92 -40,57 -107,138 -10,12 -10,24 0,10 9,23 26,36 98.5,107.5 72.5,71.5 94.5,71.5 13,0 26,-10 l 138,-107 q 44,23 91,38 16,136 29,186 7,28 36,28 l 222,0 q 14,0 24.5,-8.5 Q 914,1391 915,1378 l 28,-184 q 49,-16 90,-37 l 142,107 q 9,9 24,9 13,0 25,-10 129,-119 165,-170 7,-8 7,-22 0,-12 -8,-23 -15,-21 -51,-66.5 -36,-45.5 -54,-70.5 26,-50 41,-98 l 183,-28 q 13,-2 21,-12.5 8,-10.5 8,-23.5 z"
                 id="path4483"
                 inkscape:connector-curvature="0"
                 style="fill:#000000;fill-opacity:1" />
            </g>
          </g>
          <g
             transform="translate(134.85643,-38.39301)"
             id="g4485"
             style="fill:#77b3d4;fill-opacity:1">
            <g
               transform="matrix(0.04687602,0,0,-0.04687602,305.24715,609.43566)"
               id="g4488"
               style="fill:#77b3d4;fill-opacity:1">
              <path
                 d="m 1024,640 q 0,106 -75,181 -75,75 -181,75 -106,0 -181,-75 -75,-75 -75,-181 0,-106 75,-181 75,-75 181,-75 106,0 181,75 75,75 75,181 z m 512,109 0,-222 q 0,-12 -8,-23 -8,-11 -20,-13 l -185,-28 q -19,-54 -39,-91 35,-50 107,-138 10,-12 10,-25 0,-13 -9,-23 -27,-37 -99,-108 -72,-71 -94,-71 -12,0 -26,9 l -138,108 q -44,-23 -91,-38 -16,-136 -29,-186 -7,-28 -36,-28 l -222,0 q -14,0 -24.5,8.5 Q 622,-111 621,-98 L 593,86 q -49,16 -90,37 L 362,16 Q 352,7 337,7 323,7 312,18 186,132 147,186 q -7,10 -7,23 0,12 8,23 15,21 51,66.5 36,45.5 54,70.5 -27,50 -41,99 L 29,495 Q 16,497 8,507.5 0,518 0,531 l 0,222 q 0,12 8,23 8,11 19,13 l 186,28 q 14,46 39,92 -40,57 -107,138 -10,12 -10,24 0,10 9,23 26,36 98.5,107.5 72.5,71.5 94.5,71.5 13,0 26,-10 l 138,-107 q 44,23 91,38 16,136 29,186 7,28 36,28 l 222,0 q 14,0 24.5,-8.5 Q 914,1391 915,1378 l 28,-184 q 49,-16 90,-37 l 142,107 q 9,9 24,9 13,0 25,-10 129,-119 165,-170 7,-8 7,-22 0,-12 -8,-23 -15,-21 -51,-66.5 -36,-45.5 -54,-70.5 26,-50 41,-98 l 183,-28 q 13,-2 21,-12.5 8,-10.5 8,-23.5 z"
                 id="path4490"
                 inkscape:connector-curvature="0"
                 style="fill:#77b3d4;fill-opacity:1" />
            </g>
            <g
               id="g4492"
               transform="matrix(0.02011557,-5.8377607e-4,-5.8377607e-4,-0.02011557,367.22654,567.04004)"
               style="fill:#77b3d4;fill-opacity:1">
              <path
                 style="fill:#77b3d4;fill-opacity:1"
                 inkscape:connector-curvature="0"
                 id="path4494"
                 d="m 1024,640 q 0,106 -75,181 -75,75 -181,75 -106,0 -181,-75 -75,-75 -75,-181 0,-106 75,-181 75,-75 181,-75 106,0 181,75 75,75 75,181 z m 512,109 0,-222 q 0,-12 -8,-23 -8,-11 -20,-13 l -185,-28 q -19,-54 -39,-91 35,-50 107,-138 10,-12 10,-25 0,-13 -9,-23 -27,-37 -99,-108 -72,-71 -94,-71 -12,0 -26,9 l -138,108 q -44,-23 -91,-38 -16,-136 -29,-186 -7,-28 -36,-28 l -222,0 q -14,0 -24.5,8.5 Q 622,-111 621,-98 L 593,86 q -49,16 -90,37 L 362,16 Q 352,7 337,7 323,7 312,18 186,132 147,186 q -7,10 -7,23 0,12 8,23 15,21 51,66.5 36,45.5 54,70.5 -27,50 -41,99 L 29,495 Q 16,497 8,507.5 0,518 0,531 l 0,222 q 0,12 8,23 8,11 19,13 l 186,28 q 14,46 39,92 -40,57 -107,138 -10,12 -10,24 0,10 9,23 26,36 98.5,107.5 72.5,71.5 94.5,71.5 13,0 26,-10 l 138,-107 q 44,23 91,38 16,136 29,186 7,28 36,28 l 222,0 q 14,0 24.5,-8.5 Q 914,1391 915,1378 l 28,-184 q 49,-16 90,-37 l 142,107 q 9,9 24,9 13,0 25,-10 129,-119 165,-170 7,-8 7,-22 0,-12 -8,-23 -15,-21 -51,-66.5 -36,-45.5 -54,-70.5 26,-50 41,-98 l 183,-28 q 13,-2 21,-12.5 8,-10.5 8,-23.5 z" />
            </g>
          </g>
        </g>
      </g>
    </g>
    <rect
       style="opacity:1;fill:#ffffff;fill-opacity:0.71895429;stroke:#000000;stroke-width:0.67535084;stroke-linecap:round;stroke-linejoin:round;stroke-miterlimit:4;stroke-dasharray:none;stroke-dashoffset:0;stroke-opacity:1"
       id="rect4496"
       width="57.392506"
       height="19.207932"
       x="344.28717"
       y="495.84222"
       ry="3.7600951" />
    <g
       id="g4412"
       transform="matrix(0.11409951,0,0,0.11409951,327.39907,471.20753)">
      <path
         id="path4414"
         d="m 421.64,272.27 c 0,3.619 -2.973,6.849 -6.85,6.849 -2.973,0 -5.557,0.776 -7.754,2.456 -2.455,1.552 -4.394,3.748 -5.944,6.203 -3.102,4.136 -4.651,9.046 -5.298,10.854 l 0,24.554 c 0,3.748 -3.23,6.85 -7.107,6.85 -3.748,0 -6.849,-3.102 -6.849,-6.85 l 0,-50.916 c 0,-3.748 3.101,-6.72 6.849,-6.72 3.877,0 7.107,2.973 7.107,6.72 l 0,0.905 c 0.775,-0.905 1.809,-1.938 2.714,-2.585 4.265,-2.842 9.821,-5.169 16.282,-5.04 3.877,0 6.85,2.973 6.85,6.72 z"
         inkscape:connector-curvature="0"
         style="fill:#636466" />
      <path
         id="path4416"
         d="m 417.85,297.73 c 0.13,-17.575 13.828,-32.307 31.531,-32.307 16.8,0 30.11,12.535 31.145,29.98 l 0,0.646 c 0,0.259 0,0.904 -0.129,1.163 -0.389,3.102 -3.102,5.17 -6.721,5.17 l -41.094,0 c 0.646,2.973 2.067,6.332 4.394,8.529 2.714,3.102 7.883,5.426 12.405,5.814 4.652,0.387 10.209,-0.775 13.44,-3.23 2.713,-2.844 8.012,-2.455 9.692,-0.389 1.68,1.811 2.972,5.688 0,8.4 -6.333,5.814 -13.957,8.529 -23.133,8.529 -17.702,-0.127 -31.4,-14.73 -31.53,-32.305 z m 14.086,-6.332 36.571,0 c -1.292,-5.169 -7.883,-12.793 -19.126,-13.698 -10.983,0.516 -16.411,8.4 -17.445,13.698 z"
         inkscape:connector-curvature="0"
         style="fill:#636466" />
      <path
         id="path4418"
         d="m 546.36,323.06 c 0,3.748 -3.102,6.979 -6.979,6.979 -3.489,0 -6.202,-2.455 -6.849,-5.557 -4.91,3.359 -11.113,5.557 -17.575,5.557 -17.445,0 -31.402,-14.732 -31.402,-32.178 0,-17.705 13.957,-32.437 31.402,-32.437 6.333,0 12.535,2.067 17.316,5.427 l 0,-24.294 c 0,-3.748 3.102,-6.979 7.107,-6.979 3.877,0 6.979,3.231 6.979,6.979 l 0,51.174 0,0.13 0,25.199 z m -31.402,-43.55 c -4.652,0 -8.917,1.938 -12.146,5.298 -3.231,3.231 -5.17,7.882 -5.17,13.052 0,4.91 1.938,9.562 5.17,12.793 3.229,3.361 7.494,5.299 12.146,5.299 4.781,0 8.917,-1.938 12.147,-5.299 3.23,-3.23 5.169,-7.883 5.169,-12.793 0,-5.17 -1.938,-9.821 -5.169,-13.052 -3.23,-3.36 -7.366,-5.298 -12.147,-5.298 z"
         inkscape:connector-curvature="0"
         style="fill:#636466" />
      <path
         id="path4420"
         d="m 570.95,249.27 c 0,3.877 -2.972,7.107 -6.979,7.107 -3.877,0 -6.978,-3.23 -6.978,-7.107 l 0,-2.714 c 0,-3.877 3.101,-6.979 6.978,-6.979 4.007,0 6.979,3.102 6.979,6.979 l 0,2.714 z m 0,23.39 0,50.399 c 0,3.877 -2.972,6.979 -6.979,6.979 -3.877,0 -6.978,-3.102 -6.978,-6.979 l 0,-50.399 c 0,-4.135 3.101,-7.108 6.978,-7.108 4.008,0 6.979,2.973 6.979,7.108 z"
         inkscape:connector-curvature="0"
         style="fill:#636466" />
      <path
         id="path4422"
         d="m 579.83,311.55 c 2.326,-3.1 6.85,-3.488 9.692,-1.033 3.36,2.844 9.176,5.814 14.215,5.686 3.489,0 6.72,-1.162 8.788,-2.455 1.809,-1.551 2.325,-2.842 2.325,-3.877 0,-0.646 -0.129,-0.904 -0.387,-1.293 -0.13,-0.387 -0.646,-0.904 -1.681,-1.549 -1.809,-1.293 -5.686,-2.715 -10.338,-3.619 l -0.129,0 c -4.007,-0.775 -7.884,-1.809 -11.243,-3.361 -3.489,-1.679 -6.591,-4.005 -8.917,-7.494 -1.421,-2.326 -2.196,-5.169 -2.196,-8.141 0,-5.945 3.36,-10.985 7.624,-14.216 4.523,-3.101 9.951,-4.781 15.896,-4.781 8.916,0 15.248,4.265 19.384,7.107 3.102,2.068 4.006,6.333 2.067,9.562 -2.067,3.102 -6.332,4.007 -9.562,1.81 -4.135,-2.713 -7.754,-4.782 -11.889,-4.782 -3.231,0 -6.074,1.034 -7.754,2.326 -1.68,1.164 -2.067,2.327 -2.067,2.973 0,0.516 0,0.646 0.258,1.033 0.13,0.258 0.517,0.775 1.422,1.292 1.681,1.163 5.04,2.326 9.434,3.102 l 0.129,0.13 0.13,0 c 4.265,0.774 8.271,1.938 12.018,3.747 3.489,1.551 6.979,4.006 9.176,7.624 1.551,2.584 2.455,5.557 2.455,8.529 0,6.332 -3.489,11.631 -8.142,14.99 -4.652,3.23 -10.468,5.17 -16.8,5.17 -10.079,-0.129 -17.833,-4.781 -23.002,-8.916 -2.844,-2.326 -3.231,-6.721 -0.906,-9.564 z"
         inkscape:connector-curvature="0"
         style="fill:#636466" />
      <path
         id="path4424"
         d="m 334.77,339.54 c -9.078,4.732 -56.106,24.068 -66.118,29.287 -10.012,5.221 -15.574,5.17 -23.483,1.389 -7.909,-3.781 -57.955,-23.996 -66.97,-28.305 -4.506,-2.154 -6.875,-3.971 -6.875,-5.688 l 0,-17.195 c 0,0 65.153,-14.184 75.672,-17.957 10.518,-3.774 14.167,-3.91 23.118,-0.631 8.952,3.279 62.474,12.936 71.321,16.176 0,0 -0.004,15.357 -0.004,16.951 0.001,1.7 -2.04,3.565 -6.661,5.973 z"
         inkscape:connector-curvature="0"
         style="fill:#a41e11" />
      <path
         id="path4426"
         d="m 334.77,322.34 c -9.078,4.73 -56.106,24.068 -66.118,29.287 -10.012,5.221 -15.574,5.17 -23.483,1.389 -7.91,-3.779 -57.955,-23.998 -66.97,-28.305 -9.015,-4.309 -9.204,-7.275 -0.348,-10.742 8.855,-3.469 58.626,-22.996 69.146,-26.77 10.518,-3.772 14.167,-3.91 23.118,-0.63 8.952,3.279 55.699,21.886 64.545,25.126 8.848,3.243 9.188,5.913 0.11,10.645 z"
         inkscape:connector-curvature="0"
         style="fill:#d82c20" />
      <path
         id="path4428"
         d="m 334.77,311.5 c -9.078,4.732 -56.106,24.068 -66.118,29.289 -10.012,5.219 -15.574,5.168 -23.483,1.387 -7.91,-3.779 -57.955,-23.996 -66.97,-28.305 -4.506,-2.154 -6.875,-3.969 -6.875,-5.686 l 0,-17.197 c 0,0 65.153,-14.183 75.672,-17.957 10.518,-3.773 14.167,-3.91 23.118,-0.631 8.952,3.279 62.474,12.934 71.321,16.175 0,0 -0.004,15.357 -0.004,16.953 0.001,1.699 -2.04,3.564 -6.661,5.972 z"
         inkscape:connector-curvature="0"
         style="fill:#a41e11" />
      <path
         id="path4430"
         d="m 334.77,294.3 c -9.078,4.732 -56.106,24.068 -66.118,29.289 -10.012,5.219 -15.574,5.168 -23.483,1.387 -7.91,-3.779 -57.955,-23.997 -66.97,-28.305 -9.015,-4.308 -9.204,-7.274 -0.348,-10.743 8.855,-3.467 58.626,-22.995 69.146,-26.768 10.518,-3.773 14.167,-3.91 23.118,-0.631 8.952,3.279 55.699,21.885 64.545,25.126 8.848,3.242 9.188,5.913 0.11,10.645 z"
         inkscape:connector-curvature="0"
         style="fill:#d82c20" />
      <path
         id="path4432"
         d="m 334.77,282.42 c -9.078,4.732 -56.106,24.069 -66.118,29.29 -10.012,5.219 -15.574,5.168 -23.483,1.387 -7.91,-3.779 -57.955,-23.997 -66.97,-28.305 -4.506,-2.154 -6.875,-3.97 -6.875,-5.686 l 0,-17.197 c 0,0 65.153,-14.183 75.672,-17.956 10.518,-3.774 14.167,-3.91 23.118,-0.631 8.952,3.279 62.474,12.934 71.321,16.175 0,0 -0.004,15.357 -0.004,16.952 0.001,1.698 -2.04,3.563 -6.661,5.971 z"
         inkscape:connector-curvature="0"
         style="fill:#a41e11" />
      <path
         id="path4434"
         d="m 334.77,265.22 c -9.078,4.732 -56.106,24.069 -66.118,29.289 -10.012,5.219 -15.574,5.168 -23.483,1.388 -7.909,-3.78 -57.955,-23.997 -66.97,-28.305 -9.015,-4.308 -9.204,-7.275 -0.348,-10.743 8.855,-3.468 58.626,-22.994 69.146,-26.768 10.518,-3.774 14.167,-3.91 23.118,-0.63 8.952,3.279 55.699,21.885 64.545,25.126 8.848,3.24 9.188,5.912 0.11,10.643 z"
         inkscape:connector-curvature="0"
         style="fill:#d82c20" />
      <polygon
         id="polygon4436"
         points="260.63,258.13 255.3,249.27 238.28,247.74 250.98,243.16 247.17,236.13 259.06,240.78 270.27,237.11 267.24,244.38 278.67,248.66 263.93,250.19 "
         style="fill:#ffffff" />
      <polygon
         id="polygon4438"
         points="232.24,275.77 271.66,269.72 259.75,287.18 "
         style="fill:#ffffff" />
      <ellipse
         id="ellipse4440"
         cy="261.23999"
         ry="8.1669998"
         rx="21.069"
         cx="221.61"
         style="fill:#ffffff" />
      <polygon
         id="polygon4442"
         points="319.42,260.05 296.11,269.26 296.09,250.83 "
         style="fill:#7a0c00" />
      <polygon
         id="polygon4444"
         points="296.11,269.26 293.58,270.25 270.28,261.04 296.09,250.83 "
         style="fill:#ad2115" />
    </g>
    <path
       inkscape:connector-curvature="0"
       sodipodi:nodetypes="cccccccc"
       id="path4535"
       d="m 376.33706,621.09605 8.89946,-5.33851 -5.33325,0 0,-8.342 -7.13241,0 0,8.37148 -5.26899,0 8.83519,5.30903 z"
       style="fill:none;fill-opacity:1;stroke:#4e6070;stroke-width:0.69654244;stroke-linecap:round;stroke-linejoin:round;stroke-miterlimit:4;stroke-dasharray:none;stroke-opacity:1"
       inkscape:transform-center-x="13.577847"
       inkscape:transform-center-y="-29.483323" />
    <path
       style="fill:none;fill-opacity:1;stroke:#4e6070;stroke-width:0.69654244;stroke-linecap:round;stroke-linejoin:round;stroke-miterlimit:4;stroke-dasharray:none;stroke-opacity:1"
       d="m 376.33706,562.72898 8.89946,-5.33851 -5.33325,0 0,-8.342 -7.13241,0 0,8.37149 -5.26899,0 8.83519,5.30902 z"
       id="path4537"
       sodipodi:nodetypes="cccccccc"
       inkscape:connector-curvature="0" />
    <path
       style="fill:none;fill-opacity:1;stroke:#4e6070;stroke-width:2.26756263;stroke-linecap:round;stroke-linejoin:round;stroke-miterlimit:4;stroke-dasharray:none;stroke-opacity:1"
       d="m 319.15652,548.76925 -19.62858,25.65182 11.76298,0 0,40.08368 15.73121,0 0,-40.22542 11.62126,0 -19.48687,-25.51008 z"
       id="path4288"
       sodipodi:nodetypes="cccccccc"
       inkscape:connector-curvature="0" />
    <g
       id="g4296"
       transform="matrix(0.64464289,0,0,0.64464289,59.16752,243.75838)">
      <rect
         ry="3.0342093"
         y="508.72781"
         x="441.25595"
         height="37.496521"
         width="107.39059"
         id="rect4294"
         style="opacity:1;fill:#ffffff;fill-opacity:0.71895429;stroke:#000000;stroke-width:0.87912619;stroke-linecap:round;stroke-linejoin:round;stroke-miterlimit:4;stroke-dasharray:none;stroke-dashoffset:0;stroke-opacity:1" />
      <text
         sodipodi:linespacing="125%"
         id="text4290"
         y="542.03662"
         x="456.90436"
         style="font-style:normal;font-weight:normal;font-size:40px;line-height:125%;font-family:sans-serif;letter-spacing:0px;word-spacing:0px;fill:#000000;fill-opacity:1;stroke:none;stroke-width:1px;stroke-linecap:butt;stroke-linejoin:miter;stroke-opacity:1"
         xml:space="preserve"><tspan
           y="542.03662"
           x="456.90436"
           id="tspan4292"
           sodipodi:role="line">404</tspan></text>
    </g>
  </g>
  <style
     id="style4258"
     type="text/css">
	.st0{fill:#77B3D4;}
	.st1{opacity:0.2;}
	.st2{fill:#231F20;}
	.st3{fill:#FFFFFF;}
	.st4{fill:#E0E0D1;}
	.st5{fill:#E0995E;}
	.st6{fill:#76C2AF;}
	.st7{fill:#C75C5C;}
	.st8{fill:#4F5D73;}
</style>
</svg>
