<?xml version="1.0" encoding="UTF-8" standalone="no"?>
<!-- Created with Inkscape (http://www.inkscape.org/) -->

<svg
   xmlns:dc="http://purl.org/dc/elements/1.1/"
   xmlns:cc="http://creativecommons.org/ns#"
   xmlns:rdf="http://www.w3.org/1999/02/22-rdf-syntax-ns#"
   xmlns:svg="http://www.w3.org/2000/svg"
   xmlns="http://www.w3.org/2000/svg"
   xmlns:sodipodi="http://sodipodi.sourceforge.net/DTD/sodipodi-0.dtd"
   xmlns:inkscape="http://www.inkscape.org/namespaces/inkscape"
   width="94.833923mm"
   height="71.170898mm"
   viewBox="0 0 336.02571 252.18035"
   id="svg2"
   version="1.1"
   inkscape:version="0.91 r13725"
   sodipodi:docname="event-bus.svg">
  <defs
     id="defs4">
    <filter
       inkscape:collect="always"
       style="color-interpolation-filters:sRGB"
       id="filter4735"
       x="-0.096851736"
       width="1.1937035"
       y="-0.11608559"
       height="1.2321712">
      <feGaussianBlur
         inkscape:collect="always"
         stdDeviation="3.7356343"
         id="feGaussianBlur4737" />
    </filter>
  </defs>
  <sodipodi:namedview
     id="base"
     pagecolor="#ffffff"
     bordercolor="#666666"
     borderopacity="1.0"
     inkscape:pageopacity="0.0"
     inkscape:pageshadow="2"
     inkscape:zoom="0.98994949"
     inkscape:cx="320.88647"
     inkscape:cy="55.608593"
     inkscape:document-units="px"
     inkscape:current-layer="layer1"
     showgrid="false"
     fit-margin-top="0"
     fit-margin-left="0"
     fit-margin-right="0"
     fit-margin-bottom="0"
     inkscape:window-width="1920"
     inkscape:window-height="1007"
     inkscape:window-x="0"
     inkscape:window-y="27"
     inkscape:window-maximized="1" />
  <metadata
     id="metadata7">
    <rdf:RDF>
      <cc:Work
         rdf:about="">
        <dc:format>image/svg+xml</dc:format>
        <dc:type
           rdf:resource="http://purl.org/dc/dcmitype/StillImage" />
        <dc:title></dc:title>
      </cc:Work>
    </rdf:RDF>
  </metadata>
  <g
     inkscape:label="Layer 1"
     inkscape:groupmode="layer"
     id="layer1"
     transform="translate(-61.230177,-176.21579)">
    <rect
       style="opacity:1;fill:#77b3d4;fill-opacity:1;stroke:none;stroke-width:0.98596734;stroke-linecap:round;stroke-linejoin:round;stroke-miterlimit:4;stroke-dasharray:none;stroke-dashoffset:0;stroke-opacity:1"
       id="rect4152"
       width="87.838173"
       height="284.3866"
       x="340.46802"
       y="-366.7536"
       ry="1.3333896"
       transform="matrix(0,1,-1,0,0,0)" />
    <ellipse
       style="opacity:1;fill:#77b3d4;fill-opacity:1;stroke:none;stroke-width:1.04253876;stroke-linecap:round;stroke-linejoin:round;stroke-miterlimit:4;stroke-dasharray:none;stroke-dashoffset:0;stroke-opacity:1"
       id="path4154"
       cx="384.38712"
       cy="-83.319992"
       rx="43.901619"
       ry="22.089815"
       transform="matrix(0,1,-1,0,0,0)" />
    <ellipse
       ry="22.097551"
       rx="43.126534"
       cy="-367.20096"
       cx="384.38712"
       id="ellipse4156"
       style="opacity:1;fill:#b6def4;fill-opacity:1;stroke:#77b3d4;stroke-width:1.76497352;stroke-linecap:round;stroke-linejoin:round;stroke-miterlimit:4;stroke-dasharray:none;stroke-dashoffset:0;stroke-opacity:1"
       transform="matrix(0,1,-1,0,0,0)" />
    <g
       style="font-style:normal;font-weight:normal;font-size:40px;line-height:125%;font-family:sans-serif;letter-spacing:0px;word-spacing:0px;fill:#ffffff;fill-opacity:1;stroke:none;stroke-width:1px;stroke-linecap:butt;stroke-linejoin:miter;stroke-opacity:1"
       id="flowRoot4188"
       transform="translate(-29.294424,284.86302)">
      <path
         d="m 160.89648,98.113412 12.40235,0 q -0.625,-2.226562 -2.36328,-3.613281 -1.71875,-1.386719 -3.82813,-1.386719 -2.07031,0 -3.80859,1.386719 -1.71875,1.386719 -2.40235,3.613281 z m -0.35156,2.890628 q 0.23438,2.8125 2.12891,4.6875 1.89453,1.85547 4.35547,1.85547 1.93359,0 3.59375,-0.97657 1.66015,-0.99609 2.79297,-2.91015 l 2.65625,1.42578 q -0.76172,1.34765 -1.77735,2.38281 -1.01562,1.01563 -1.97265,1.58203 -0.95704,0.56641 -2.01172,0.91797 -1.05469,0.35156 -1.81641,0.44922 -0.74219,0.0977 -1.46484,0.0977 -2.65625,0 -4.86328,-1.38672 -2.20704,-1.38672 -3.45704,-3.71094 -1.23046,-2.34375 -1.23046,-5.07813 0,-2.714839 1.26953,-5.039058 1.26953,-2.34375 3.49609,-3.75 2.22656,-1.40625 4.86328,-1.40625 2.51953,0 4.64844,1.269532 2.12891,1.269531 3.41797,3.417968 1.28906,2.128907 1.5039,4.667969 l 0.0781,1.503909 -16.21094,0 z"
         style="font-style:normal;font-variant:normal;font-weight:bold;font-stretch:normal;font-family:Sawasdee;-inkscape-font-specification:'Sawasdee Bold';fill:#ffffff;fill-opacity:1"
         id="path4231"
         inkscape:connector-curvature="0" />
      <path
         d="m 179.17773,90.4181 3.32032,0 6.07422,12.53906 6.09375,-12.53906 3.33984,0 -9.35547,20.13672 -9.47266,-20.13672 z"
         style="font-style:normal;font-variant:normal;font-weight:bold;font-stretch:normal;font-family:Sawasdee;-inkscape-font-specification:'Sawasdee Bold';fill:#ffffff;fill-opacity:1"
         id="path4233"
         inkscape:connector-curvature="0" />
      <path
         d="m 203.70898,98.113412 12.40235,0 q -0.625,-2.226562 -2.36328,-3.613281 -1.71875,-1.386719 -3.82813,-1.386719 -2.07031,0 -3.80859,1.386719 -1.71875,1.386719 -2.40235,3.613281 z m -0.35156,2.890628 q 0.23438,2.8125 2.12891,4.6875 1.89453,1.85547 4.35547,1.85547 1.93359,0 3.59375,-0.97657 1.66015,-0.99609 2.79297,-2.91015 l 2.65625,1.42578 q -0.76172,1.34765 -1.77735,2.38281 -1.01562,1.01563 -1.97265,1.58203 -0.95704,0.56641 -2.01172,0.91797 -1.05469,0.35156 -1.81641,0.44922 -0.74219,0.0977 -1.46484,0.0977 -2.65625,0 -4.86328,-1.38672 -2.20704,-1.38672 -3.45704,-3.71094 -1.23046,-2.34375 -1.23046,-5.07813 0,-2.714839 1.26953,-5.039058 1.26953,-2.34375 3.49609,-3.75 2.22656,-1.40625 4.86328,-1.40625 2.51953,0 4.64844,1.269532 2.12891,1.269531 3.41797,3.417968 1.28906,2.128907 1.5039,4.667969 l 0.0781,1.503909 -16.21094,0 z"
         style="font-style:normal;font-variant:normal;font-weight:bold;font-stretch:normal;font-family:Sawasdee;-inkscape-font-specification:'Sawasdee Bold';fill:#ffffff;fill-opacity:1"
         id="path4235"
         inkscape:connector-curvature="0" />
      <path
         d="m 226.83398,90.4181 q 0.33204,1.074219 0.41016,1.71875 0.0977,0.644531 0.0977,2.109375 1.11328,-1.679688 2.7539,-2.890625 1.64063,-1.210938 3.16407,-1.210938 1.64062,0 2.92968,0.664063 1.28907,0.644531 2.07032,1.777344 0.78125,1.132812 1.17187,2.558593 0.39063,1.40625 0.39063,3.007813 l 0,12.109375 -3.10547,0 0,-12.109375 q 0,-0.898438 -0.17578,-1.71875 -0.15625,-0.820313 -0.52735,-1.601563 -0.37109,-0.800781 -1.09375,-1.269531 -0.72265,-0.488281 -1.73828,-0.488281 -1.26953,0 -2.67578,1.328125 -1.40625,1.308594 -2.28516,3.027344 -0.8789,1.699218 -0.8789,2.910151 l 0,9.92188 -3.08594,0 0,-13.984375 q 0,-1.503906 -0.25391,-3.339844 -0.23437,-1.855469 -0.625,-2.519531 l 3.45703,0 z"
         style="font-style:normal;font-variant:normal;font-weight:bold;font-stretch:normal;font-family:Sawasdee;-inkscape-font-specification:'Sawasdee Bold';fill:#ffffff;fill-opacity:1"
         id="path4237"
         inkscape:connector-curvature="0" />
      <path
         d="m 248.49414,110.22279 -3.10547,0 0,-16.855471 -1.69922,0 0,-2.910157 1.69922,0 0,-4.375 3.10547,0 0,4.375 5.64453,0 -1.03515,2.910157 -4.60938,0 0,16.855471 z"
         style="font-style:normal;font-variant:normal;font-weight:bold;font-stretch:normal;font-family:Sawasdee;-inkscape-font-specification:'Sawasdee Bold';fill:#ffffff;fill-opacity:1"
         id="path4239"
         inkscape:connector-curvature="0" />
      <path
         d="m 274.19727,107.25404 q 0,1.30859 -0.52735,3.00781 l -3.45703,0 q 0.87891,-1.58203 0.87891,-5.80078 l 0,-23.320314 3.10547,0 0,12.226563 q 1.23046,-1.425782 3.00781,-2.324219 1.79687,-0.898438 3.51562,-0.898438 2.65625,0 4.84375,1.40625 2.20703,1.40625 3.4375,3.75 1.25,2.324219 1.25,5.039058 0,2.73438 -1.25,5.07813 -1.23047,2.32422 -3.4375,3.71094 -2.1875,1.38672 -4.84375,1.38672 -1.73828,0 -3.51562,-0.89844 -1.75781,-0.91797 -3.00781,-2.36328 z m 0,-6.91407 q 0,3.04688 1.93359,5.15625 1.95312,2.08985 4.58984,2.08985 2.59766,0 4.55078,-2.10938 1.95313,-2.10937 1.95313,-5.13672 0,-3.027339 -1.95313,-5.136714 -1.95312,-2.128906 -4.55078,-2.128906 -2.63672,0 -4.58984,2.128906 -1.93359,2.109375 -1.93359,5.136714 z"
         style="font-style:normal;font-variant:normal;font-weight:bold;font-stretch:normal;font-family:Sawasdee;-inkscape-font-specification:'Sawasdee Bold';fill:#ffffff;fill-opacity:1"
         id="path4241"
         inkscape:connector-curvature="0" />
      <path
         d="m 294.91992,90.457162 3.10547,0 0,12.070308 q 0,2.16797 1.32813,3.61329 1.32812,1.44531 3.20312,1.44531 1.91406,0 3.30078,-1.44531 1.40625,-1.46485 1.40625,-3.61329 l 0,-12.070308 3.08594,0 0,12.070308 q 0,3.30079 -2.24609,5.66407 -2.22657,2.36328 -5.46875,2.36328 -3.24219,0 -5.48829,-2.36328 -2.22656,-2.36328 -2.22656,-5.66407 l 0,-12.070308 z"
         style="font-style:normal;font-variant:normal;font-weight:bold;font-stretch:normal;font-family:Sawasdee;-inkscape-font-specification:'Sawasdee Bold';fill:#ffffff;fill-opacity:1"
         id="path4243"
         inkscape:connector-curvature="0" />
      <path
         d="m 327.88867,94.734506 -2.89062,1.015625 -0.21485,-0.664062 q -0.37109,-1.015625 -1.15234,-1.523438 -0.76172,-0.527344 -1.64063,-0.527344 -1.03515,0 -1.69921,0.605469 -0.66407,0.605469 -0.66407,1.5625 0,0.625 0.50782,1.152344 0.50781,0.507812 1.32812,0.898437 0.82031,0.371094 1.79688,0.761719 0.99609,0.390625 1.97265,0.917969 0.9961,0.527344 1.81641,1.191405 0.82031,0.66406 1.32812,1.71875 0.50782,1.05469 0.50782,2.38281 0,2.77344 -2.07032,4.57032 -2.07031,1.79687 -4.90234,1.79687 -1.62109,0 -3.02734,-0.625 -1.40625,-0.64453 -2.46094,-2.07031 -1.05469,-1.44531 -1.34766,-3.47656 l -0.0976,-0.66407 3.0664,-0.37109 0.0977,0.625 q 0.2539,1.83594 1.30859,2.73437 1.05469,0.89844 2.5,0.89844 1.54297,0 2.71485,-0.9375 1.17187,-0.95703 1.17187,-2.48047 0,-0.85937 -0.52734,-1.5039 -0.50782,-0.66407 -1.32813,-1.09375 -0.82031,-0.44922 -1.8164,-0.83985 -0.97657,-0.41015 -1.97266,-0.878903 -0.99609,-0.46875 -1.81641,-1.035156 -0.82031,-0.585937 -1.34765,-1.523437 -0.50782,-0.9375 -0.50782,-2.148438 0,-2.324219 1.60157,-3.710937 1.62109,-1.386719 3.86718,-1.386719 1.03516,0 2.05079,0.332031 1.01562,0.332031 2.05078,1.289063 1.05468,0.957031 1.58203,2.402343 l 0.21484,0.605469 z"
         style="font-style:normal;font-variant:normal;font-weight:bold;font-stretch:normal;font-family:Sawasdee;-inkscape-font-specification:'Sawasdee Bold';fill:#ffffff;fill-opacity:1"
         id="path4245"
         inkscape:connector-curvature="0" />
    </g>
    <rect
       ry="7.0234351"
       y="195.36578"
       x="79.576874"
       height="45.918129"
       width="137.6888"
       id="rect5245"
       style="opacity:1;fill:#77b3d4;fill-opacity:1;stroke:none;stroke-width:1;stroke-linecap:round;stroke-linejoin:round;stroke-miterlimit:4;stroke-dasharray:none;stroke-dashoffset:0;stroke-opacity:1" />
    <g
       transform="matrix(0.83979048,0,0,0.83979048,130.98341,-44.938295)"
       id="g4345"
       style="font-style:normal;font-weight:normal;font-size:40px;line-height:125%;font-family:sans-serif;letter-spacing:0px;word-spacing:0px;fill:#ffffff;fill-opacity:1;stroke:none;stroke-width:1px;stroke-linecap:butt;stroke-linejoin:miter;stroke-opacity:1">
      <path
         inkscape:connector-curvature="0"
         id="path4347"
         style="font-style:normal;font-variant:normal;font-weight:bold;font-stretch:normal;font-family:Sawasdee;-inkscape-font-specification:'Sawasdee Bold';fill:#ffffff;fill-opacity:1"
         d="m -28.30772,322.06094 -6.074219,0 -17.363281,-10.58593 17.363281,-10.60547 6.074219,0 -17.34375,10.60547 17.34375,10.58593 z" />
      <path
         inkscape:connector-curvature="0"
         id="path4349"
         style="font-style:normal;font-variant:normal;font-weight:bold;font-stretch:normal;font-family:Sawasdee;-inkscape-font-specification:'Sawasdee Bold';fill:#ffffff;fill-opacity:1"
         d="m -13.210064,306.49454 -2.890625,1.01562 -0.214844,-0.66406 q -0.371093,-1.01563 -1.152343,-1.52344 -0.761719,-0.52734 -1.640625,-0.52734 -1.035157,0 -1.699219,0.60547 -0.664063,0.60547 -0.664063,1.5625 0,0.625 0.507813,1.15234 0.507812,0.50781 1.328125,0.89844 0.820312,0.37109 1.796875,0.76172 0.996094,0.39062 1.972656,0.91797 0.996094,0.52734 1.816406,1.1914 0.820313,0.66406 1.328125,1.71875 0.507813,1.05469 0.507813,2.38281 0,2.77344 -2.070313,4.57032 -2.070312,1.79687 -4.902343,1.79687 -1.621094,0 -3.027344,-0.625 -1.40625,-0.64453 -2.460938,-2.07031 -1.054687,-1.44531 -1.347656,-3.47656 l -0.09766,-0.66407 3.066406,-0.37109 0.09766,0.625 q 0.253907,1.83594 1.308594,2.73438 1.054688,0.89843 2.5,0.89843 1.542969,0 2.714844,-0.9375 1.171875,-0.95703 1.171875,-2.48047 0,-0.85937 -0.527344,-1.5039 -0.507812,-0.66406 -1.328125,-1.09375 -0.820312,-0.44922 -1.816406,-0.83985 -0.976563,-0.41015 -1.972656,-0.8789 -0.996094,-0.46875 -1.816407,-1.03516 -0.820312,-0.58594 -1.347656,-1.52344 -0.507812,-0.9375 -0.507812,-2.14843 0,-2.32422 1.601562,-3.71094 1.621094,-1.38672 3.867188,-1.38672 1.035156,0 2.050781,0.33203 1.015625,0.33203 2.050781,1.28906 1.054688,0.95704 1.582031,2.40235 l 0.214844,0.60547 z" />
      <path
         inkscape:connector-curvature="0"
         id="path4351"
         style="font-style:normal;font-variant:normal;font-weight:bold;font-stretch:normal;font-family:Sawasdee;-inkscape-font-specification:'Sawasdee Bold';fill:#ffffff;fill-opacity:1"
         d="m 6.9657173,315.42032 2.6757813,1.42578 q -3.1445313,5.42969 -8.4765625,5.42969 -2.65625,0 -4.8632813,-1.38672 -2.2070312,-1.38672 -3.4570312,-3.71094 -1.2304688,-2.34375 -1.2304688,-5.07812 0,-2.71485 1.2304688,-5.03907 1.25,-2.34375 3.4570312,-3.75 2.2070313,-1.40625 4.8632813,-1.40625 1.09375,0 2.1289062,0.27344 1.0351563,0.25391 1.7578125,0.60547 0.7421875,0.33203 1.484375,0.9375 0.7617188,0.60547 1.171875,0.99609 0.4101563,0.39063 0.8984375,1.07422 0.5078125,0.6836 0.625,0.87891 0.1171875,0.19531 0.4101563,0.66406 l -2.6757813,1.50391 q -0.2929687,-0.52735 -0.546875,-0.87891 -0.234375,-0.37109 -0.8007812,-0.99609 -0.546875,-0.625 -1.1328125,-1.01563 -0.5664063,-0.41015 -1.4453125,-0.70312 -0.8789063,-0.3125 -1.875,-0.3125 -2.65625,0 -4.609375,2.05078 -1.9335938,2.05078 -1.9335938,5.07812 0,3.02735 1.953125,5.13672 1.9726563,2.10938 4.5898438,2.10938 1.0351562,0 1.9726562,-0.35157 0.9375,-0.35156 1.5039063,-0.74218 0.5664062,-0.39063 1.1328125,-1.07422 0.5859375,-0.70313 0.7421875,-0.95703 0.15625,-0.25391 0.4492187,-0.76172 z" />
      <path
         inkscape:connector-curvature="0"
         id="path4353"
         style="font-style:normal;font-variant:normal;font-weight:bold;font-stretch:normal;font-family:Sawasdee;-inkscape-font-specification:'Sawasdee Bold';fill:#ffffff;fill-opacity:1"
         d="m 17.258686,305.12735 q 2.089844,-2.34375 4.785156,-3.30078 l 3.886719,2.71484 q -1.679687,0 -3.046875,0.35156 -1.367187,0.33204 -2.246094,0.85938 -0.878906,0.50781 -1.542968,1.23047 -0.664063,0.72265 -0.996094,1.38672 -0.332031,0.66406 -0.546875,1.42578 -0.195313,0.74219 -0.253906,1.1914 -0.03906,0.44922 -0.03906,0.85938 l 0,10.17578 -3.046875,0 0,-13.98437 q 0,-1.46485 -0.273437,-3.32032 -0.253907,-1.85547 -0.605469,-2.53906 l 3.417969,0 q 0.507812,1.38672 0.507812,2.94922 z" />
      <path
         inkscape:connector-curvature="0"
         id="path4355"
         style="font-style:normal;font-variant:normal;font-weight:bold;font-stretch:normal;font-family:Sawasdee;-inkscape-font-specification:'Sawasdee Bold';fill:#ffffff;fill-opacity:1"
         d="m 30.12978,295.75235 q 0.917969,0 1.5625,0.625 0.664062,0.625 0.664062,1.52344 0,0.8789 -0.664062,1.48437 -0.644531,0.60547 -1.5625,0.60547 -0.957031,0 -1.601563,-0.60547 -0.644531,-0.60547 -0.644531,-1.48437 0,-0.89844 0.644531,-1.52344 0.664063,-0.625 1.601563,-0.625 z m 1.503906,26.26953 -3.085937,0 0,-19.80469 3.085937,0 0,19.80469 z" />
      <path
         inkscape:connector-curvature="0"
         id="path4357"
         style="font-style:normal;font-variant:normal;font-weight:bold;font-stretch:normal;font-family:Sawasdee;-inkscape-font-specification:'Sawasdee Bold';fill:#ffffff;fill-opacity:1"
         d="m 36.22353,302.17813 3.457031,0 q 0.527344,1.66016 0.527344,3.06641 1.269531,-1.46485 3.027344,-2.40235 1.777343,-0.9375 3.496093,-0.9375 2.65625,0 4.84375,1.40625 2.207032,1.40625 3.4375,3.75 1.25,2.32422 1.25,5.03907 0,2.71484 -1.25,5.05859 -1.230468,2.32422 -3.4375,3.73047 -2.1875,1.38672 -4.84375,1.38672 -1.738281,0 -3.515625,-0.87891 -1.777343,-0.89844 -3.007812,-2.34375 l 0,12.16797 -3.105469,0 0,-23.22266 q 0,-1.48437 -0.253906,-3.32031 -0.234375,-1.83594 -0.625,-2.5 z m 3.984375,9.92188 q 0,3.04687 1.933594,5.15625 1.953125,2.08984 4.589843,2.08984 2.597657,0 4.550782,-2.10938 1.953125,-2.10937 1.953125,-5.13671 0,-3.02735 -1.953125,-5.13672 -1.953125,-2.12891 -4.550782,-2.12891 -2.636718,0 -4.589843,2.12891 -1.933594,2.10937 -1.933594,5.13672 z" />
      <path
         inkscape:connector-curvature="0"
         id="path4359"
         style="font-style:normal;font-variant:normal;font-weight:bold;font-stretch:normal;font-family:Sawasdee;-inkscape-font-specification:'Sawasdee Bold';fill:#ffffff;fill-opacity:1"
         d="m 64.03603,321.98282 -3.105469,0 0,-16.85547 -1.699219,0 0,-2.91016 1.699219,0 0,-4.375 3.105469,0 0,4.375 5.644531,0 -1.035156,2.91016 -4.609375,0 0,16.85547 z" />
      <path
         inkscape:connector-curvature="0"
         id="path4361"
         style="font-style:normal;font-variant:normal;font-weight:bold;font-stretch:normal;font-family:Sawasdee;-inkscape-font-specification:'Sawasdee Bold';fill:#ffffff;fill-opacity:1"
         d="m 75.930561,322.06094 -6.09375,0 17.363281,-10.58593 -17.363281,-10.60547 6.09375,0 17.34375,10.60547 -17.34375,10.58593 z" />
    </g>
    <g
       style="fill:#000000;fill-opacity:1;filter:url(#filter4735)"
       transform="matrix(0.02011557,-5.8377607e-4,-5.8377607e-4,-0.02011557,197.27841,209.10879)"
       id="g4499">
      <path
         d="m 1024,640 q 0,106 -75,181 -75,75 -181,75 -106,0 -181,-75 -75,-75 -75,-181 0,-106 75,-181 75,-75 181,-75 106,0 181,75 75,75 75,181 z m 512,109 0,-222 q 0,-12 -8,-23 -8,-11 -20,-13 l -185,-28 q -19,-54 -39,-91 35,-50 107,-138 10,-12 10,-25 0,-13 -9,-23 -27,-37 -99,-108 -72,-71 -94,-71 -12,0 -26,9 l -138,108 q -44,-23 -91,-38 -16,-136 -29,-186 -7,-28 -36,-28 l -222,0 q -14,0 -24.5,8.5 Q 622,-111 621,-98 L 593,86 q -49,16 -90,37 L 362,16 Q 352,7 337,7 323,7 312,18 186,132 147,186 q -7,10 -7,23 0,12 8,23 15,21 51,66.5 36,45.5 54,70.5 -27,50 -41,99 L 29,495 Q 16,497 8,507.5 0,518 0,531 l 0,222 q 0,12 8,23 8,11 19,13 l 186,28 q 14,46 39,92 -40,57 -107,138 -10,12 -10,24 0,10 9,23 26,36 98.5,107.5 72.5,71.5 94.5,71.5 13,0 26,-10 l 138,-107 q 44,23 91,38 16,136 29,186 7,28 36,28 l 222,0 q 14,0 24.5,-8.5 Q 914,1391 915,1378 l 28,-184 q 49,-16 90,-37 l 142,107 q 9,9 24,9 13,0 25,-10 129,-119 165,-170 7,-8 7,-22 0,-12 -8,-23 -15,-21 -51,-66.5 -36,-45.5 -54,-70.5 26,-50 41,-98 l 183,-28 q 13,-2 21,-12.5 8,-10.5 8,-23.5 z"
         id="path4501"
         inkscape:connector-curvature="0"
         style="fill:#000000;fill-opacity:1" />
    </g>
    <g
       id="g4169"
       transform="matrix(0.02011557,-5.8377607e-4,-5.8377607e-4,-0.02011557,196.16163,209.57581)"
       style="fill:#e0e0d1;fill-opacity:1">
      <path
         style="fill:#e0e0d1;fill-opacity:1"
         inkscape:connector-curvature="0"
         id="path4171"
         d="m 1024,640 q 0,106 -75,181 -75,75 -181,75 -106,0 -181,-75 -75,-75 -75,-181 0,-106 75,-181 75,-75 181,-75 106,0 181,75 75,75 75,181 z m 512,109 0,-222 q 0,-12 -8,-23 -8,-11 -20,-13 l -185,-28 q -19,-54 -39,-91 35,-50 107,-138 10,-12 10,-25 0,-13 -9,-23 -27,-37 -99,-108 -72,-71 -94,-71 -12,0 -26,9 l -138,108 q -44,-23 -91,-38 -16,-136 -29,-186 -7,-28 -36,-28 l -222,0 q -14,0 -24.5,8.5 Q 622,-111 621,-98 L 593,86 q -49,16 -90,37 L 362,16 Q 352,7 337,7 323,7 312,18 186,132 147,186 q -7,10 -7,23 0,12 8,23 15,21 51,66.5 36,45.5 54,70.5 -27,50 -41,99 L 29,495 Q 16,497 8,507.5 0,518 0,531 l 0,222 q 0,12 8,23 8,11 19,13 l 186,28 q 14,46 39,92 -40,57 -107,138 -10,12 -10,24 0,10 9,23 26,36 98.5,107.5 72.5,71.5 94.5,71.5 13,0 26,-10 l 138,-107 q 44,23 91,38 16,136 29,186 7,28 36,28 l 222,0 q 14,0 24.5,-8.5 Q 914,1391 915,1378 l 28,-184 q 49,-16 90,-37 l 142,107 q 9,9 24,9 13,0 25,-10 129,-119 165,-170 7,-8 7,-22 0,-12 -8,-23 -15,-21 -51,-66.5 -36,-45.5 -54,-70.5 26,-50 41,-98 l 183,-28 q 13,-2 21,-12.5 8,-10.5 8,-23.5 z" />
    </g>
    <path
       style="fill:none;fill-opacity:1;stroke:#4e6070;stroke-width:2.26756263;stroke-linecap:round;stroke-linejoin:round;stroke-miterlimit:4;stroke-dasharray:none;stroke-opacity:1"
       d="m 308.12119,244.99098 -19.62891,25.65234 11.76367,0 0,0.33984 -0.10351,0 0,40.22266 -11.69336,0 19.60742,25.50781 19.75195,-25.65039 -11.83593,0 0,-0.33789 0.004,0 0,-40.22461 11.62305,0 -19.48828,-25.50976 z"
       id="path4363"
       inkscape:connector-curvature="0" />
    <rect
       style="opacity:1;fill:#77b3d4;fill-opacity:1;stroke:none;stroke-width:1;stroke-linecap:round;stroke-linejoin:round;stroke-miterlimit:4;stroke-dasharray:none;stroke-dashoffset:0;stroke-opacity:1"
       id="rect4365"
       width="137.6888"
       height="45.918129"
       x="245.48555"
       y="195.36578"
       ry="7.0234351" />
    <g
       style="font-style:normal;font-weight:normal;font-size:40px;line-height:125%;font-family:sans-serif;letter-spacing:0px;word-spacing:0px;fill:#ffffff;fill-opacity:1;stroke:none;stroke-width:1px;stroke-linecap:butt;stroke-linejoin:miter;stroke-opacity:1"
       id="g4367"
       transform="matrix(0.83979048,0,0,0.83979048,296.89209,-44.938295)">
      <path
         d="m -28.30772,322.06094 -6.074219,0 -17.363281,-10.58593 17.363281,-10.60547 6.074219,0 -17.34375,10.60547 17.34375,10.58593 z"
         style="font-style:normal;font-variant:normal;font-weight:bold;font-stretch:normal;font-family:Sawasdee;-inkscape-font-specification:'Sawasdee Bold';fill:#ffffff;fill-opacity:1"
         id="path4369"
         inkscape:connector-curvature="0" />
      <path
         d="m -13.210064,306.49454 -2.890625,1.01562 -0.214844,-0.66406 q -0.371093,-1.01563 -1.152343,-1.52344 -0.761719,-0.52734 -1.640625,-0.52734 -1.035157,0 -1.699219,0.60547 -0.664063,0.60547 -0.664063,1.5625 0,0.625 0.507813,1.15234 0.507812,0.50781 1.328125,0.89844 0.820312,0.37109 1.796875,0.76172 0.996094,0.39062 1.972656,0.91797 0.996094,0.52734 1.816406,1.1914 0.820313,0.66406 1.328125,1.71875 0.507813,1.05469 0.507813,2.38281 0,2.77344 -2.070313,4.57032 -2.070312,1.79687 -4.902343,1.79687 -1.621094,0 -3.027344,-0.625 -1.40625,-0.64453 -2.460938,-2.07031 -1.054687,-1.44531 -1.347656,-3.47656 l -0.09766,-0.66407 3.066406,-0.37109 0.09766,0.625 q 0.253907,1.83594 1.308594,2.73438 1.054688,0.89843 2.5,0.89843 1.542969,0 2.714844,-0.9375 1.171875,-0.95703 1.171875,-2.48047 0,-0.85937 -0.527344,-1.5039 -0.507812,-0.66406 -1.328125,-1.09375 -0.820312,-0.44922 -1.816406,-0.83985 -0.976563,-0.41015 -1.972656,-0.8789 -0.996094,-0.46875 -1.816407,-1.03516 -0.820312,-0.58594 -1.347656,-1.52344 -0.507812,-0.9375 -0.507812,-2.14843 0,-2.32422 1.601562,-3.71094 1.621094,-1.38672 3.867188,-1.38672 1.035156,0 2.050781,0.33203 1.015625,0.33203 2.050781,1.28906 1.054688,0.95704 1.582031,2.40235 l 0.214844,0.60547 z"
         style="font-style:normal;font-variant:normal;font-weight:bold;font-stretch:normal;font-family:Sawasdee;-inkscape-font-specification:'Sawasdee Bold';fill:#ffffff;fill-opacity:1"
         id="path4371"
         inkscape:connector-curvature="0" />
      <path
         d="m 6.9657173,315.42032 2.6757813,1.42578 q -3.1445313,5.42969 -8.4765625,5.42969 -2.65625,0 -4.8632813,-1.38672 -2.2070312,-1.38672 -3.4570312,-3.71094 -1.2304688,-2.34375 -1.2304688,-5.07812 0,-2.71485 1.2304688,-5.03907 1.25,-2.34375 3.4570312,-3.75 2.2070313,-1.40625 4.8632813,-1.40625 1.09375,0 2.1289062,0.27344 1.0351563,0.25391 1.7578125,0.60547 0.7421875,0.33203 1.484375,0.9375 0.7617188,0.60547 1.171875,0.99609 0.4101563,0.39063 0.8984375,1.07422 0.5078125,0.6836 0.625,0.87891 0.1171875,0.19531 0.4101563,0.66406 l -2.6757813,1.50391 q -0.2929687,-0.52735 -0.546875,-0.87891 -0.234375,-0.37109 -0.8007812,-0.99609 -0.546875,-0.625 -1.1328125,-1.01563 -0.5664063,-0.41015 -1.4453125,-0.70312 -0.8789063,-0.3125 -1.875,-0.3125 -2.65625,0 -4.609375,2.05078 -1.9335938,2.05078 -1.9335938,5.07812 0,3.02735 1.953125,5.13672 1.9726563,2.10938 4.5898438,2.10938 1.0351562,0 1.9726562,-0.35157 0.9375,-0.35156 1.5039063,-0.74218 0.5664062,-0.39063 1.1328125,-1.07422 0.5859375,-0.70313 0.7421875,-0.95703 0.15625,-0.25391 0.4492187,-0.76172 z"
         style="font-style:normal;font-variant:normal;font-weight:bold;font-stretch:normal;font-family:Sawasdee;-inkscape-font-specification:'Sawasdee Bold';fill:#ffffff;fill-opacity:1"
         id="path4373"
         inkscape:connector-curvature="0" />
      <path
         d="m 17.258686,305.12735 q 2.089844,-2.34375 4.785156,-3.30078 l 3.886719,2.71484 q -1.679687,0 -3.046875,0.35156 -1.367187,0.33204 -2.246094,0.85938 -0.878906,0.50781 -1.542968,1.23047 -0.664063,0.72265 -0.996094,1.38672 -0.332031,0.66406 -0.546875,1.42578 -0.195313,0.74219 -0.253906,1.1914 -0.03906,0.44922 -0.03906,0.85938 l 0,10.17578 -3.046875,0 0,-13.98437 q 0,-1.46485 -0.273437,-3.32032 -0.253907,-1.85547 -0.605469,-2.53906 l 3.417969,0 q 0.507812,1.38672 0.507812,2.94922 z"
         style="font-style:normal;font-variant:normal;font-weight:bold;font-stretch:normal;font-family:Sawasdee;-inkscape-font-specification:'Sawasdee Bold';fill:#ffffff;fill-opacity:1"
         id="path4375"
         inkscape:connector-curvature="0" />
      <path
         d="m 30.12978,295.75235 q 0.917969,0 1.5625,0.625 0.664062,0.625 0.664062,1.52344 0,0.8789 -0.664062,1.48437 -0.644531,0.60547 -1.5625,0.60547 -0.957031,0 -1.601563,-0.60547 -0.644531,-0.60547 -0.644531,-1.48437 0,-0.89844 0.644531,-1.52344 0.664063,-0.625 1.601563,-0.625 z m 1.503906,26.26953 -3.085937,0 0,-19.80469 3.085937,0 0,19.80469 z"
         style="font-style:normal;font-variant:normal;font-weight:bold;font-stretch:normal;font-family:Sawasdee;-inkscape-font-specification:'Sawasdee Bold';fill:#ffffff;fill-opacity:1"
         id="path4377"
         inkscape:connector-curvature="0" />
      <path
         d="m 36.22353,302.17813 3.457031,0 q 0.527344,1.66016 0.527344,3.06641 1.269531,-1.46485 3.027344,-2.40235 1.777343,-0.9375 3.496093,-0.9375 2.65625,0 4.84375,1.40625 2.207032,1.40625 3.4375,3.75 1.25,2.32422 1.25,5.03907 0,2.71484 -1.25,5.05859 -1.230468,2.32422 -3.4375,3.73047 -2.1875,1.38672 -4.84375,1.38672 -1.738281,0 -3.515625,-0.87891 -1.777343,-0.89844 -3.007812,-2.34375 l 0,12.16797 -3.105469,0 0,-23.22266 q 0,-1.48437 -0.253906,-3.32031 -0.234375,-1.83594 -0.625,-2.5 z m 3.984375,9.92188 q 0,3.04687 1.933594,5.15625 1.953125,2.08984 4.589843,2.08984 2.597657,0 4.550782,-2.10938 1.953125,-2.10937 1.953125,-5.13671 0,-3.02735 -1.953125,-5.13672 -1.953125,-2.12891 -4.550782,-2.12891 -2.636718,0 -4.589843,2.12891 -1.933594,2.10937 -1.933594,5.13672 z"
         style="font-style:normal;font-variant:normal;font-weight:bold;font-stretch:normal;font-family:Sawasdee;-inkscape-font-specification:'Sawasdee Bold';fill:#ffffff;fill-opacity:1"
         id="path4379"
         inkscape:connector-curvature="0" />
      <path
         d="m 64.03603,321.98282 -3.105469,0 0,-16.85547 -1.699219,0 0,-2.91016 1.699219,0 0,-4.375 3.105469,0 0,4.375 5.644531,0 -1.035156,2.91016 -4.609375,0 0,16.85547 z"
         style="font-style:normal;font-variant:normal;font-weight:bold;font-stretch:normal;font-family:Sawasdee;-inkscape-font-specification:'Sawasdee Bold';fill:#ffffff;fill-opacity:1"
         id="path4381"
         inkscape:connector-curvature="0" />
      <path
         d="m 75.930561,322.06094 -6.09375,0 17.363281,-10.58593 -17.363281,-10.60547 6.09375,0 17.34375,10.60547 -17.34375,10.58593 z"
         style="font-style:normal;font-variant:normal;font-weight:bold;font-stretch:normal;font-family:Sawasdee;-inkscape-font-specification:'Sawasdee Bold';fill:#ffffff;fill-opacity:1"
         id="path4383"
         inkscape:connector-curvature="0" />
    </g>
    <g
       id="g4385"
       transform="matrix(0.02011557,-5.8377607e-4,-5.8377607e-4,-0.02011557,363.18709,209.10879)"
       style="fill:#000000;fill-opacity:1;filter:url(#filter4735)">
      <path
         style="fill:#000000;fill-opacity:1"
         inkscape:connector-curvature="0"
         id="path4387"
         d="m 1024,640 q 0,106 -75,181 -75,75 -181,75 -106,0 -181,-75 -75,-75 -75,-181 0,-106 75,-181 75,-75 181,-75 106,0 181,75 75,75 75,181 z m 512,109 0,-222 q 0,-12 -8,-23 -8,-11 -20,-13 l -185,-28 q -19,-54 -39,-91 35,-50 107,-138 10,-12 10,-25 0,-13 -9,-23 -27,-37 -99,-108 -72,-71 -94,-71 -12,0 -26,9 l -138,108 q -44,-23 -91,-38 -16,-136 -29,-186 -7,-28 -36,-28 l -222,0 q -14,0 -24.5,8.5 Q 622,-111 621,-98 L 593,86 q -49,16 -90,37 L 362,16 Q 352,7 337,7 323,7 312,18 186,132 147,186 q -7,10 -7,23 0,12 8,23 15,21 51,66.5 36,45.5 54,70.5 -27,50 -41,99 L 29,495 Q 16,497 8,507.5 0,518 0,531 l 0,222 q 0,12 8,23 8,11 19,13 l 186,28 q 14,46 39,92 -40,57 -107,138 -10,12 -10,24 0,10 9,23 26,36 98.5,107.5 72.5,71.5 94.5,71.5 13,0 26,-10 l 138,-107 q 44,23 91,38 16,136 29,186 7,28 36,28 l 222,0 q 14,0 24.5,-8.5 Q 914,1391 915,1378 l 28,-184 q 49,-16 90,-37 l 142,107 q 9,9 24,9 13,0 25,-10 129,-119 165,-170 7,-8 7,-22 0,-12 -8,-23 -15,-21 -51,-66.5 -36,-45.5 -54,-70.5 26,-50 41,-98 l 183,-28 q 13,-2 21,-12.5 8,-10.5 8,-23.5 z" />
    </g>
    <g
       style="fill:#e0e0d1;fill-opacity:1"
       transform="matrix(0.02011557,-5.8377607e-4,-5.8377607e-4,-0.02011557,362.07031,209.57581)"
       id="g4389">
      <path
         d="m 1024,640 q 0,106 -75,181 -75,75 -181,75 -106,0 -181,-75 -75,-75 -75,-181 0,-106 75,-181 75,-75 181,-75 106,0 181,75 75,75 75,181 z m 512,109 0,-222 q 0,-12 -8,-23 -8,-11 -20,-13 l -185,-28 q -19,-54 -39,-91 35,-50 107,-138 10,-12 10,-25 0,-13 -9,-23 -27,-37 -99,-108 -72,-71 -94,-71 -12,0 -26,9 l -138,108 q -44,-23 -91,-38 -16,-136 -29,-186 -7,-28 -36,-28 l -222,0 q -14,0 -24.5,8.5 Q 622,-111 621,-98 L 593,86 q -49,16 -90,37 L 362,16 Q 352,7 337,7 323,7 312,18 186,132 147,186 q -7,10 -7,23 0,12 8,23 15,21 51,66.5 36,45.5 54,70.5 -27,50 -41,99 L 29,495 Q 16,497 8,507.5 0,518 0,531 l 0,222 q 0,12 8,23 8,11 19,13 l 186,28 q 14,46 39,92 -40,57 -107,138 -10,12 -10,24 0,10 9,23 26,36 98.5,107.5 72.5,71.5 94.5,71.5 13,0 26,-10 l 138,-107 q 44,23 91,38 16,136 29,186 7,28 36,28 l 222,0 q 14,0 24.5,-8.5 Q 914,1391 915,1378 l 28,-184 q 49,-16 90,-37 l 142,107 q 9,9 24,9 13,0 25,-10 129,-119 165,-170 7,-8 7,-22 0,-12 -8,-23 -15,-21 -51,-66.5 -36,-45.5 -54,-70.5 26,-50 41,-98 l 183,-28 q 13,-2 21,-12.5 8,-10.5 8,-23.5 z"
         id="path4391"
         inkscape:connector-curvature="0"
         style="fill:#e0e0d1;fill-opacity:1" />
    </g>
    <path
       inkscape:connector-curvature="0"
       id="path4398"
       d="m 150.12119,244.99098 -19.62891,25.65234 11.76367,0 0,0.33984 -0.10351,0 0,40.22266 -11.69336,0 19.60742,25.50781 19.75195,-25.65039 -11.83593,0 0,-0.33789 0.004,0 0,-40.22461 11.62305,0 -19.48828,-25.50976 z"
       style="fill:none;fill-opacity:1;stroke:#4e6070;stroke-width:2.26756263;stroke-linecap:round;stroke-linejoin:round;stroke-miterlimit:4;stroke-dasharray:none;stroke-opacity:1" />
  </g>
</svg>
