<svg width="473" height="173" viewBox="0 0 473 173" xmlns="http://www.w3.org/2000/svg" xmlns:xlink="http://www.w3.org/1999/xlink"><title>enable-v1-white</title><defs><path d="M170.1 170H85c-47.6 0-85-37.4-85-85S37.4 0 85 0s85 37.4 85 85v85h.1z" id="a"/></defs><g fill="none" fill-rule="evenodd"><path d="M314.2 86.8c0-10.9 5.7-16.7 13.8-16.7 8.2 0 13.6 5.4 13.6 14.8 0 6.2-2.4 12.6-9 16.3l-18.3 9.5V86.8h-.1zm125.1 5.8c-11.1-3.4-18.5-4.9-18.5-13 0-6.4 4.7-10.1 13.5-10.1 9.6 0 18.3 2.8 26.3 6.9 1.4.7 2.8.1 3-1.3l2.7-26.1c.1-1.3-.4-2.4-1.7-2.9-9-3.6-19.7-6.1-32.5-6.1-30.5 0-46.5 15.5-46.5 39.9 0 21.9 13 32 38.4 38.9 10.3 3.2 14 5.7 14 12.8 0 6.9-4.4 11.1-13.8 11.1-12.3 0-25.4-5.7-36.3-12.1-1.9-1.1-3.3-.2-3.3 1.6v27.4c0 1.8.5 3 2.5 4.1 8.8 4.9 22.2 8.8 38.9 8.8 28.5 0 47-14.9 47-41.6 0-23.3-12.8-31.9-33.7-38.3zm-67.7 37.9c-8.2 5.1-19.3 10.3-33.7 10.3-4.5 0-9.7-.9-12.3-2.4l24.9-12.7c15-8.2 24.4-19.3 24.4-39.5v-6c-.3-21.9-18.5-40.1-46.3-40.1-31.5 0-50.7 18.9-50.7 49.7v33c0 13.9 5.1 25 11.9 32.5 9.9 10.9 25.2 17.2 43.5 17.2 17.9 0 30.7-3.3 39.6-8.8 1.2-.8 2.3-1.9 2.2-4.1v-27.4c-.2-1.9-1.8-2.8-3.5-1.7zm-90.7 27.7c-5-6.7-8.5-13.7-10.5-22.6-.3-1.4-1.8-2.1-3.1-1.4-8.6 4.5-13.8 5.8-18.8 4.5-5-1.3-8-6.3-8-15.3V71.6h22.4c1.1 0 1.9-.9 1.9-1.9V43.4c0-1.1-.9-1.9-1.9-1.9h-22.4V2.4c0-1.1-.9-2-1.9-2h-32.8c-1.1 0-1.9.8-1.9 2v39.1h-17c-1.1 0-1.9.9-1.9 1.9v26.2c0 1.1.9 1.9 1.9 1.9h17v61.2c0 30.4 17.5 39.6 36.5 39.6 15.9 0 29.1-4.3 39.9-10.9 1-.6 1.3-2.2.6-3.2z" fill="#FFF" fill-rule="nonzero"/><g transform="translate(-9)"><mask id="b" fill="#fff"><use xlink:href="#a"/></mask><g mask="url(#b)" fill-rule="nonzero"><path fill="#0C3775" d="M172.8 172.5L31.3 94.9l-22 34.9z"/><path fill="#00579C" d="M172.9 172.6l-1.8-1.7L56.8 55.2 68.6 19z"/><path fill="#0C3775" d="M173.3 173.2l-1.6-4.2-61.8-151.7L68.6 19z"/><path fill="#0095C8" d="M173.1 172.6L101.8-1l68.4 4.7z"/><path fill="#00579C" d="M173.5 173.1L9.1 82.9l2-40.5z"/><path fill="#0095C8" d="M172.6 172.4L36.5 28.8 11.1 42.4z"/><path fill="#00579C" d="M173.7 172.5l-146.1-.7-20-45.4z"/></g></g></g></svg>